<?xml version="1.0" encoding="UTF-8" standalone="no"?>
<!-- Created with Inkscape (http://www.inkscape.org/) -->

<svg
   width="68.217033mm"
   height="37.838516mm"
   viewBox="0 0 68.217033 37.838516"
   version="1.1"
   id="svg1"
   inkscape:version="1.4 (e7c3feb100, 2024-10-09)"
   sodipodi:docname="image_source.svg"
   xmlns:inkscape="http://www.inkscape.org/namespaces/inkscape"
   xmlns:sodipodi="http://sodipodi.sourceforge.net/DTD/sodipodi-0.dtd"
   xmlns="http://www.w3.org/2000/svg"
   xmlns:svg="http://www.w3.org/2000/svg">
  <sodipodi:namedview
     id="namedview1"
     pagecolor="#ffffff"
     bordercolor="#000000"
     borderopacity="0.25"
     inkscape:showpageshadow="2"
     inkscape:pageopacity="0.0"
     inkscape:pagecheckerboard="0"
     inkscape:deskcolor="#d1d1d1"
     inkscape:document-units="mm"
     inkscape:zoom="0.63244788"
     inkscape:cx="105.147"
     inkscape:cy="307.53522"
     inkscape:window-width="2560"
     inkscape:window-height="1408"
     inkscape:window-x="0"
     inkscape:window-y="0"
     inkscape:window-maximized="0"
     inkscape:current-layer="layer1" />
  <defs
     id="defs1">
    <clipPath
       clipPathUnits="userSpaceOnUse"
       id="clipPath145">
      <path
         d="M 0,0 H 595 V 842 H 0 Z"
         transform="translate(-2.5497195e-6,2.5497196e-5)"
         id="path145" />
    </clipPath>
    <clipPath
       clipPathUnits="userSpaceOnUse"
       id="clipPath146">
      <path
         d="M 0,0 H 595 V 842 H 0 Z"
         transform="matrix(1,0,0,-1,-382.97803,730.10602)"
         id="path146" />
    </clipPath>
    <clipPath
       clipPathUnits="userSpaceOnUse"
       id="clipPath147">
      <path
         d="M 0,0 H 595 V 842 H 0 Z"
         transform="matrix(1,0,0,-1,-342.68303,722.29002)"
         id="path147" />
    </clipPath>
    <clipPath
       clipPathUnits="userSpaceOnUse"
       id="clipPath148">
      <path
         d="M 0,0 H 595 V 842 H 0 Z"
         transform="matrix(1,0,0,-1,-524.66003,723.73002)"
         id="path148" />
    </clipPath>
    <clipPath
       clipPathUnits="userSpaceOnUse"
       id="clipPath149">
      <path
         d="M 0,0 H 595 V 842 H 0 Z"
         transform="matrix(1,0,0,-1,-530.78005,722.29002)"
         id="path149" />
    </clipPath>
    <clipPath
       clipPathUnits="userSpaceOnUse"
       id="clipPath150">
      <path
         d="M 0,0 H 595 V 842 H 0 Z"
         transform="matrix(1,0,0,-1,-388.09103,659.16602)"
         id="path150" />
    </clipPath>
    <clipPath
       clipPathUnits="userSpaceOnUse"
       id="clipPath151">
      <path
         d="M 0,0 H 595 V 842 H 0 Z"
         transform="matrix(1,0,0,-1,-394.21097,657.72602)"
         id="path151" />
    </clipPath>
    <clipPath
       clipPathUnits="userSpaceOnUse"
       id="clipPath152">
      <path
         d="M 0,0 H 595 V 842 H 0 Z"
         transform="matrix(1,0,0,-1,-388.09103,759.94702)"
         id="path152" />
    </clipPath>
    <clipPath
       clipPathUnits="userSpaceOnUse"
       id="clipPath153">
      <path
         d="M 0,0 H 595 V 842 H 0 Z"
         transform="matrix(1,0,0,-1,-394.21097,758.50702)"
         id="path153" />
    </clipPath>
    <clipPath
       clipPathUnits="userSpaceOnUse"
       id="clipPath154">
      <path
         d="M 0,0 H 595 V 842 H 0 Z"
         transform="translate(-2.5497195e-6,2.5497196e-5)"
         id="path154" />
    </clipPath>
    <clipPath
       clipPathUnits="userSpaceOnUse"
       id="clipPath155">
      <path
         d="M 0,0 H 595 V 842 H 0 Z"
         transform="translate(-2.5497195e-6,2.5497196e-5)"
         id="path155" />
    </clipPath>
    <clipPath
       clipPathUnits="userSpaceOnUse"
       id="clipPath156">
      <path
         d="M 0,0 H 595 V 842 H 0 Z"
         transform="translate(-389.44601,-725.73102)"
         id="path156" />
    </clipPath>
    <clipPath
       clipPathUnits="userSpaceOnUse"
       id="clipPath157">
      <path
         d="M 0,0 H 595 V 842 H 0 Z"
         transform="translate(-431.965,-712.86802)"
         id="path157" />
    </clipPath>
    <clipPath
       clipPathUnits="userSpaceOnUse"
       id="clipPath158">
      <path
         d="M 0,0 H 595 V 842 H 0 Z"
         transform="translate(-397.315,-725.73102)"
         id="path158" />
    </clipPath>
    <clipPath
       clipPathUnits="userSpaceOnUse"
       id="clipPath159">
      <path
         d="M 0,0 H 595 V 842 H 0 Z"
         transform="translate(-439.83499,-712.86802)"
         id="path159" />
    </clipPath>
    <clipPath
       clipPathUnits="userSpaceOnUse"
       id="clipPath160">
      <path
         d="M 0,0 H 595 V 842 H 0 Z"
         transform="translate(-396.21199,-723.55602)"
         id="path160" />
    </clipPath>
    <clipPath
       clipPathUnits="userSpaceOnUse"
       id="clipPath161">
      <path
         d="M 0,0 H 595 V 842 H 0 Z"
         transform="translate(-433.06901,-709.38102)"
         id="path161" />
    </clipPath>
    <clipPath
       clipPathUnits="userSpaceOnUse"
       id="clipPath162">
      <path
         d="M 0,0 H 595 V 842 H 0 Z"
         transform="translate(-396.198,-729.20502)"
         id="path162" />
    </clipPath>
    <clipPath
       clipPathUnits="userSpaceOnUse"
       id="clipPath163">
      <path
         d="M 0,0 H 595 V 842 H 0 Z"
         transform="translate(-433.06901,-715.04502)"
         id="path163" />
    </clipPath>
    <clipPath
       clipPathUnits="userSpaceOnUse"
       id="clipPath164">
      <path
         d="M 0,0 H 595 V 842 H 0 Z"
         transform="translate(-397.16401,-725.12502)"
         id="path164" />
    </clipPath>
    <clipPath
       clipPathUnits="userSpaceOnUse"
       id="clipPath165">
      <path
         d="M 0,0 H 595 V 842 H 0 Z"
         transform="translate(-432.115,-713.47402)"
         id="path165" />
    </clipPath>
    <clipPath
       clipPathUnits="userSpaceOnUse"
       id="clipPath166">
      <path
         d="M 0,0 H 595 V 842 H 0 Z"
         transform="translate(-2.5497195e-6,2.5497196e-5)"
         id="path166" />
    </clipPath>
    <clipPath
       clipPathUnits="userSpaceOnUse"
       id="clipPath167">
      <path
         d="M 0,0 H 595 V 842 H 0 Z"
         transform="translate(-395.37204,-726.38602)"
         id="path167" />
    </clipPath>
    <clipPath
       clipPathUnits="userSpaceOnUse"
       id="clipPath168">
      <path
         d="M 0,0 H 595 V 842 H 0 Z"
         transform="translate(-437.89302,-712.21302)"
         id="path168" />
    </clipPath>
    <clipPath
       clipPathUnits="userSpaceOnUse"
       id="clipPath169">
      <path
         d="M 0,0 H 595 V 842 H 0 Z"
         transform="translate(-352.85304,-726.38602)"
         id="path169" />
    </clipPath>
    <clipPath
       clipPathUnits="userSpaceOnUse"
       id="clipPath170">
      <path
         d="M 0,0 H 595 V 842 H 0 Z"
         transform="translate(-522.934,-726.38602)"
         id="path170" />
    </clipPath>
    <clipPath
       clipPathUnits="userSpaceOnUse"
       id="clipPath171">
      <path
         d="M 0,0 H 595 V 842 H 0 Z"
         transform="translate(-395.37204,-669.69402)"
         id="path171" />
    </clipPath>
    <clipPath
       clipPathUnits="userSpaceOnUse"
       id="clipPath172">
      <path
         d="M 0,0 H 595 V 842 H 0 Z"
         transform="translate(-395.37204,-754.73402)"
         id="path172" />
    </clipPath>
  </defs>
  <g
     inkscape:label="Layer 1"
     inkscape:groupmode="layer"
     id="layer1"
     transform="translate(-17.991656,-35.454167)">
    <path
       d="m 372.12,698.04 h 85.041 v 42.52 H 372.12 Z"
       style="fill:#d2c9e9;fill-opacity:1;fill-rule:nonzero;stroke:#231f20;stroke-width:0.398;stroke-linecap:butt;stroke-linejoin:miter;stroke-miterlimit:10;stroke-dasharray:none;stroke-opacity:1"
       transform="matrix(0.3458986,0,0,-0.3458986,-98.602652,300.74954)"
       clip-path="url(#clipPath145)"
       id="path269" />
    <path
       d="m 6.4295312,-6.9320641 c 0,-0.023904 -0.023904,-0.095614 -0.1075663,-0.095614 -0.047807,0 -0.059759,0.011952 -0.1792771,0.1553735 L 5.6646154,-6.31057 C 5.4016755,-6.7766906 4.8877477,-7.0276786 4.2303981,-7.0276786 c -1.25494,0 -2.4620729,1.1473738 -2.4620729,2.3545066 0,0.8007713 0.5378315,1.2668919 1.0398075,1.4103136 l 1.0637111,0.2868435 c 0.3705061,0.083663 0.9202894,0.2390362 0.9202894,1.0517593 0,0.8963858 -0.8127231,1.82862697 -1.7927715,1.82862697 -0.633446,0 -1.7449643,-0.21513259 -1.7449643,-1.44616907 0,-0.2390362 0.047807,-0.4780724 0.059759,-0.5378314 0.011952,-0.047807 0.023904,-0.047807 0.023904,-0.071711 0,-0.095615 -0.071711,-0.1075663 -0.1195181,-0.1075663 -0.047807,0 -0.071711,0.011952 -0.1075662,0.035855 -0.035856,0.035856 -0.59759056,2.31865123 -0.59759056,2.34255485 0,0.0597591 0.0597591,0.0956145 0.1195181,0.0956145 0.0478072,0 0.0597591,0 0.17927715,-0.14342172 L 1.2902528,-0.50199018 c 0.4302652,0.5856387 1.1115184,0.71710861 1.6852053,0.71710861 1.3625063,0 2.5337837,-1.32665093 2.5337837,-2.55768743 0,-0.693205 -0.3346506,-1.0278557 -0.4900242,-1.1712774 C 4.7921332,-3.7409308 4.6487115,-3.7767862 3.7523257,-4.0038706 3.5371931,-4.0636297 3.1786388,-4.1711959 3.0949762,-4.1831478 2.8200845,-4.2787622 2.4854338,-4.5656057 2.4854338,-5.0914853 c 0,-0.8127231 0.7888195,-1.6613017 1.7449643,-1.6613017 0.8246749,0 1.4342173,0.4302652 1.4342173,1.5537354 0,0.310747 -0.047807,0.4900242 -0.047807,0.5497832 0,0.011952 0,0.1075663 0.1195181,0.1075663 0.1075663,0 0.1195181,-0.035855 0.1553736,-0.2031807 z M 60.382991,22.302064 c 0.05976,-0.239036 0.08366,-0.334651 0.274892,-0.370506 0.09561,-0.01195 0.406361,-0.01195 0.609542,-0.01195 0.705157,0 1.816675,0 1.816675,0.992 0,0.334651 -0.167325,1.027856 -0.549783,1.410314 -0.26294,0.26294 -0.78882,0.585639 -1.685206,0.585639 h -1.111518 z m 1.434217,2.725013 c 1.003952,-0.215133 2.187181,-0.908338 2.187181,-1.924242 0,-0.848578 -0.896385,-1.493976 -2.199133,-1.493976 h -2.844531 c -0.191229,0 -0.286843,0 -0.286843,0.203181 0,0.107566 0.09561,0.107566 0.274892,0.107566 0.0239,0 0.215132,0 0.382458,0.0239 0.179277,0.0239 0.274891,0.0239 0.274891,0.155373 0,0.04781 -0.01195,0.07171 -0.04781,0.191229 l -1.326651,5.354411 c -0.107566,0.382458 -0.119518,0.466121 -0.908338,0.466121 -0.179277,0 -0.274891,0 -0.274891,0.20318 0,0.107567 0.119518,0.107567 0.143422,0.107567 0.274891,0 0.980048,-0.03586 1.25494,-0.03586 0.274891,0 0.992,0.03586 1.266892,0.03586 0.08366,0 0.20318,0 0.20318,-0.203181 0,-0.107566 -0.09561,-0.107566 -0.286843,-0.107566 -0.370506,0 -0.645398,0 -0.645398,-0.179277 0,-0.05976 0.0239,-0.107567 0.0239,-0.167326 l 0.669301,-2.64135 h 1.183229 c 0.908338,0 1.087615,0.561735 1.087615,0.908338 0,0.143421 -0.08366,0.454168 -0.143422,0.681253 -0.07171,0.286843 -0.155373,0.657349 -0.155373,0.848578 0,1.075663 1.195181,1.075663 1.326651,1.075663 0.836626,0 1.195181,-1.003952 1.195181,-1.147373 0,-0.119519 -0.119518,-0.119519 -0.119518,-0.119519 -0.09562,0 -0.119518,0.07171 -0.13147,0.143422 -0.250988,0.741012 -0.681253,0.908338 -0.908338,0.908338 -0.334651,0 -0.39441,-0.215133 -0.39441,-0.609543 0,-0.310747 0.05976,-0.812723 0.09562,-1.135422 0.0239,-0.143421 0.03585,-0.322698 0.03585,-0.46612 0,-0.764916 -0.669301,-1.075663 -0.932241,-1.183229 z M -39.985324,-0.55577333 c 0,-0.0239036 -0.0239,-0.0956145 -0.107566,-0.0956145 -0.04781,0 -0.05976,0.0119518 -0.179278,0.15537353 l -0.478072,0.56173509 c -0.26294,-0.46612061 -0.776868,-0.71710862 -1.434217,-0.71710862 -1.25494,0 -2.462073,1.14737379 -2.462073,2.35450663 0,0.8007713 0.537831,1.2668919 1.039807,1.4103136 l 1.063712,0.2868435 c 0.370506,0.083663 0.920289,0.2390362 0.920289,1.0517593 0,0.8963858 -0.812723,1.828627 -1.792772,1.828627 -0.633446,0 -1.744964,-0.2151326 -1.744964,-1.4461691 0,-0.2390362 0.04781,-0.4780724 0.05976,-0.5378314 0.01195,-0.047807 0.0239,-0.047807 0.0239,-0.071711 0,-0.095614 -0.07171,-0.1075663 -0.119518,-0.1075663 -0.04781,0 -0.07171,0.011952 -0.107567,0.035855 -0.03585,0.035856 -0.59759,2.3186512 -0.59759,2.3425548 0,0.059759 0.05976,0.095614 0.119518,0.095614 0.04781,0 0.05976,0 0.179277,-0.1434217 l 0.478073,-0.5736869 c 0.430265,0.5856387 1.111518,0.7171086 1.685205,0.7171086 1.362506,0 2.533784,-1.3266509 2.533784,-2.5576874 0,-0.693205 -0.334651,-1.0278557 -0.490025,-1.1712774 -0.227084,-0.2270844 -0.370506,-0.2629398 -1.266892,-0.4900242 -0.215132,-0.059759 -0.573686,-0.1673254 -0.657349,-0.1792772 -0.274892,-0.095614 -0.609542,-0.3824579 -0.609542,-0.9083375 0,-0.81272316 0.788819,-1.6613017 1.744964,-1.6613017 0.824675,0 1.434217,0.43026518 1.434217,1.5537354 0,0.310747 -0.04781,0.4900242 -0.04781,0.5497832 0,0.011952 0,0.1075663 0.119518,0.1075663 0.107566,0 0.119518,-0.035855 0.155373,-0.2031807 z m 0,0"
       style="fill:#231f20;fill-opacity:1;fill-rule:nonzero;stroke:none"
       aria-label="S&#10;R&#10;S"
       transform="matrix(0.3458986,0,0,0.3458986,33.868911,48.206883)"
       clip-path="url(#clipPath146)"
       id="path270" />
    <path
       d="m 2.3295319,-4.4336518 c 0,-0.191229 -0.011952,-0.191229 -0.2031808,-0.191229 -0.442217,0.442217 -1.0876147,0.442217 -1.36250638,0.442217 v 0.250988 c 0.16732535,0 0.62149418,0 1.00395208,-0.191229 v 3.54968769 c 0,0.2270844 0,0.32269888 -0.693205,0.32269888 H 0.81165196 V 4.6978582e-4 C 0.93117007,-0.01148202 1.7917004,-0.02343383 2.0426884,-0.02343383 c 0.2151326,0 1.0995666,0.01195181 1.2549401,0.0239036158 V -0.25051823 H 3.0346887 c -0.7051568,0 -0.7051568,-0.0956145 -0.7051568,-0.32269888 z m 0,0"
       style="fill:#231f20;fill-opacity:1;fill-rule:nonzero;stroke:none"
       aria-label="1"
       transform="matrix(0.3458986,0,0,0.3458986,19.930926,50.910424)"
       clip-path="url(#clipPath147)"
       id="path271" />
    <path
       d="m 6.4302664,-6.9317733 c 0,-0.023904 -0.023904,-0.095614 -0.1075662,-0.095614 -0.047807,0 -0.059759,0.011952 -0.1792772,0.1553735 L 5.6653506,-6.3102792 C 5.4024108,-6.7763998 4.8884829,-7.0273878 4.2311334,-7.0273878 c -1.2549401,0 -2.462073,1.1473738 -2.462073,2.3545066 0,0.8007713 0.5378315,1.2668919 1.0398075,1.4103136 l 1.0637111,0.2868435 c 0.3705062,0.083663 0.9202894,0.2390362 0.9202894,1.0517593 0,0.8963858 -0.8127231,1.82862696 -1.7927715,1.82862696 -0.633446,0 -1.7449643,-0.21513258 -1.7449643,-1.44616906 0,-0.2390362 0.047807,-0.4780724 0.059759,-0.5378314 0.011952,-0.047807 0.023904,-0.047807 0.023904,-0.071711 0,-0.095614 -0.071711,-0.1075663 -0.1195181,-0.1075663 -0.047807,0 -0.071711,0.011952 -0.1075663,0.035855 -0.035856,0.035855 -0.59759055,2.31865123 -0.59759055,2.34255485 0,0.0597591 0.0597591,0.0956145 0.1195181,0.0956145 0.0478072,0 0.0597591,0 0.17927715,-0.14342172 l 0.4780724,-0.5736869 c 0.4302652,0.58563871 1.1115184,0.71710862 1.6852053,0.71710862 1.3625063,0 2.5337838,-1.32665095 2.5337838,-2.55768745 0,-0.693205 -0.3346507,-1.0278557 -0.4900243,-1.1712774 C 4.7928684,-3.74064 4.6494467,-3.7764954 3.7530609,-4.0035798 3.5379284,-4.0633389 3.179374,-4.1709052 3.0957114,-4.182857 2.8208197,-4.2784714 2.486169,-4.5653149 2.486169,-5.0911945 c 0,-0.8127231 0.7888195,-1.6613017 1.7449644,-1.6613017 0.8246749,0 1.4342172,0.4302652 1.4342172,1.5537354 0,0.310747 -0.047807,0.4900242 -0.047807,0.5497832 0,0.011952 0,0.1075663 0.1195181,0.1075663 0.1075663,0 0.1195182,-0.035855 0.1553736,-0.2031807 z m 0,0"
       style="fill:#231f20;fill-opacity:1;fill-rule:nonzero;stroke:none"
       aria-label="S"
       transform="matrix(0.3458986,0,0,0.3458986,82.876517,50.41233)"
       clip-path="url(#clipPath148)"
       id="path272" />
    <path
       d="M 3.5133516,-1.2664221 H 3.2862672 c -0.023904,0.1553735 -0.095615,0.56173508 -0.191229,0.63344594 -0.047807,0.0358554 -0.5856387,0.0358554 -0.6812531,0.0358554 H 1.1229895 C 1.8640018,-1.2425185 2.103038,-1.4337475 2.5213514,-1.7564463 c 0.5139278,-0.4183134 0.9920002,-0.8485786 0.9920002,-1.5059281 0,-0.8485786 -0.7290604,-1.3625064 -1.6254462,-1.3625064 -0.8605303,0 -1.44616904,0.6095423 -1.44616904,1.2429883 0,0.3585543 0.29879526,0.3944097 0.37050612,0.3944097 0.16732534,0 0.37050612,-0.1195181 0.37050612,-0.3705061 0,-0.1195181 -0.059759,-0.3705061 -0.41831336,-0.3705061 0.21513258,-0.4900243 0.69320496,-0.6453978 1.01590386,-0.6453978 0.7051568,0 1.0637111,0.5378315 1.0637111,1.1115184 0,0.5975905 -0.4302651,1.0876147 -0.6573495,1.3386027 l -1.67325348,1.64934985 c -0.0717109,0.0717109 -0.0717109,0.0836627 -0.0717109,0.27489163582 H 3.3101708 Z m 0,0"
       style="fill:#231f20;fill-opacity:1;fill-rule:nonzero;stroke:none"
       aria-label="2"
       transform="matrix(0.3458986,0,0,0.3458986,84.993422,50.910424)"
       clip-path="url(#clipPath149)"
       id="path273" />
    <path
       d="m 6.4289181,-6.9320941 c 0,-0.023904 -0.023904,-0.095615 -0.1075663,-0.095615 -0.047807,0 -0.059759,0.011952 -0.1792772,0.1553736 L 5.6640022,-6.3105999 C 5.4010624,-6.7767206 4.8871346,-7.0277086 4.229785,-7.0277086 c -1.2549401,0 -2.4620729,1.1473738 -2.4620729,2.3545067 0,0.8007713 0.5378314,1.2668919 1.0398075,1.4103136 l 1.0637111,0.2868434 c 0.3705061,0.083663 0.9202894,0.2390362 0.9202894,1.0517593 0,0.8963858 -0.8127231,1.82862701 -1.7927716,1.82862701 -0.6334459,0 -1.7449643,-0.21513259 -1.7449643,-1.44616901 0,-0.2390362 0.047807,-0.4780725 0.059759,-0.5378315 0.011952,-0.047807 0.023904,-0.047807 0.023904,-0.071711 0,-0.095614 -0.071711,-0.1075663 -0.1195181,-0.1075663 -0.047807,0 -0.071711,0.011952 -0.1075663,0.035855 -0.035855,0.035855 -0.59759051,2.31865117 -0.59759051,2.34255479 0,0.0597591 0.0597591,0.0956145 0.1195181,0.0956145 0.0478072,0 0.0597591,0 0.17927716,-0.14342173 l 0.47807215,-0.5736863 c 0.4302651,0.5856387 1.1115183,0.71710862 1.6852052,0.71710862 1.3625064,0 2.5337838,-1.32665098 2.5337838,-2.55768738 0,-0.693205 -0.3346507,-1.0278557 -0.4900242,-1.1712774 C 4.7915201,-3.7409607 4.6480984,-3.7768162 3.7517126,-4.0039006 3.53658,-4.0636596 3.1780257,-4.1712259 3.094363,-4.1831777 2.8194714,-4.2787922 2.4848207,-4.5656356 2.4848207,-5.0915153 c 0,-0.8127231 0.7888195,-1.6613016 1.7449643,-1.6613016 0.8246749,0 1.4342172,0.4302651 1.4342172,1.5537353 0,0.3107471 -0.047807,0.4900242 -0.047807,0.5497833 0,0.011952 0,0.1075663 0.1195181,0.1075663 0.1075663,0 0.1195181,-0.035856 0.1553735,-0.2031808 z m 0,0"
       style="fill:#231f20;fill-opacity:1;fill-rule:nonzero;stroke:none"
       aria-label="S"
       transform="matrix(0.3458986,0,0,0.3458986,35.637492,72.744928)"
       clip-path="url(#clipPath150)"
       id="path274" />
    <path
       d="m 1.9014968,-2.330454 c 0.5497833,0 0.9322412,0.382458 0.9322412,1.1234702 0,0.86053033 -0.501976,1.12347016 -0.9083376,1.12347016 -0.2748916,0 -0.8844339,-0.07171086 -1.18322919,-0.49002422 0.33465069,-0.0119518 0.40636159,-0.23903621 0.40636159,-0.38245793 0,-0.22708441 -0.16732538,-0.39440971 -0.38245797,-0.39440971 -0.19122896,0 -0.39440974,0.1195181 -0.39440974,0.40636152 0,0.65734956 0.72906041,1.08761473 1.57763901,1.08761473 0.9680966,0 1.637398,-0.65734956 1.637398,-1.35055455 0,-0.5378315 -0.4541688,-1.0876147 -1.2190847,-1.2429883 0.7290604,-0.2629398 1.0039521,-0.7888195 1.0039521,-1.2190846 0,-0.5497833 -0.633446,-0.9561449 -1.4103136,-0.9561449 -0.7768677,0 -1.36250641,0.3705062 -1.36250641,0.9322412 0,0.2390363 0.14342172,0.3705062 0.35855431,0.3705062 0.2151326,0 0.3585543,-0.1553736 0.3585543,-0.3585543 0,-0.2031808 -0.1434217,-0.3466025 -0.3585543,-0.3585544 0.2390362,-0.310747 0.7290604,-0.3824579 0.9800484,-0.3824579 0.3107471,0 0.7529641,0.1553736 0.7529641,0.7529641 0,0.2987952 -0.095614,0.6214941 -0.2748916,0.8366267 -0.2390363,0.2629398 -0.4302652,0.2748916 -0.7768677,0.2987952 -0.1792772,0.011952 -0.191229,0.011952 -0.2270844,0.023904 -0.011952,0 -0.059759,0.011952 -0.059759,0.083663 0,0.095614 0.059759,0.095614 0.1792772,0.095614 z m 0,0"
       style="fill:#231f20;fill-opacity:1;fill-rule:nonzero;stroke:none"
       aria-label="3"
       transform="matrix(0.3458986,0,0,0.3458986,37.75437,73.243022)"
       clip-path="url(#clipPath151)"
       id="path275" />
    <path
       d="m 6.4289181,-6.9317465 c 0,-0.023904 -0.023904,-0.095614 -0.1075663,-0.095614 -0.047807,0 -0.059759,0.011952 -0.1792772,0.1553736 l -0.4780724,0.561735 C 5.4010624,-6.776373 4.8871346,-7.027361 4.229785,-7.027361 c -1.2549401,0 -2.4620729,1.1473738 -2.4620729,2.3545067 0,0.8007712 0.5378314,1.2668918 1.0398075,1.4103136 l 1.0637111,0.2868434 c 0.3705061,0.083663 0.9202894,0.2390362 0.9202894,1.0517593 0,0.8963858 -0.8127231,1.828627 -1.7927716,1.828627 -0.6334459,0 -1.7449643,-0.21513259 -1.7449643,-1.446169 0,-0.2390363 0.047807,-0.4780725 0.059759,-0.5378315 0.011952,-0.047807 0.023904,-0.047807 0.023904,-0.071711 0,-0.095614 -0.071711,-0.1075663 -0.1195181,-0.1075663 -0.047807,0 -0.071711,0.011952 -0.1075663,0.035855 -0.035855,0.035855 -0.59759051,2.31865116 -0.59759051,2.34255478 0,0.059759 0.0597591,0.0956145 0.1195181,0.0956145 0.0478072,0 0.0597591,0 0.17927716,-0.14342173 l 0.47807215,-0.5736863 c 0.4302651,0.5856387 1.1115183,0.71710862 1.6852052,0.71710862 1.3625064,0 2.5337838,-1.32665097 2.5337838,-2.55768737 0,-0.693205 -0.3346507,-1.0278557 -0.4900242,-1.1712774 C 4.7915201,-3.7406131 4.6480984,-3.7764686 3.7517126,-4.003553 3.53658,-4.063312 3.1780257,-4.1708783 3.094363,-4.1828301 2.8194714,-4.2784446 2.4848207,-4.5652881 2.4848207,-5.0911677 c 0,-0.8127231 0.7888195,-1.6613016 1.7449643,-1.6613016 0.8246749,0 1.4342172,0.4302651 1.4342172,1.5537353 0,0.3107471 -0.047807,0.4900242 -0.047807,0.5497833 0,0.011952 0,0.1075663 0.1195181,0.1075663 0.1075663,0 0.1195181,-0.035856 0.1553735,-0.2031808 z m 0,0"
       style="fill:#231f20;fill-opacity:1;fill-rule:nonzero;stroke:none"
       aria-label="S"
       transform="matrix(0.3458986,0,0,0.3458986,35.637492,37.884921)"
       clip-path="url(#clipPath152)"
       id="path276" />
    <path
       d="m 3.6823165,-1.1468772 v -0.250988 H 2.9174007 v -3.1074707 c 0,-0.1434217 0,-0.1912289 -0.1553735,-0.1912289 -0.083663,0 -0.1075663,0 -0.1792772,0.095614 l -2.30669939,3.2030851 v 0.250988 H 2.3198102 v 0.57368693 c 0,0.2390362 0,0.32269888 -0.5617351,0.32269888 H 1.5668461 V 4.9662162e-4 C 1.9134486,-0.01145519 2.3676174,-0.023407 2.6186054,-0.023407 c 0.250988,0 0.7051568,0.01195181 1.0517593,0.0239036216 V -0.25049139 H 3.4791358 c -0.5617351,0 -0.5617351,-0.0836627 -0.5617351,-0.32269888 V -1.1468772 Z M 2.3676174,-3.9436008 v 2.5457356 H 0.52703863 Z m 0,0"
       style="fill:#231f20;fill-opacity:1;fill-rule:nonzero;stroke:none"
       aria-label="4"
       transform="matrix(0.3458986,0,0,0.3458986,37.75437,38.383015)"
       clip-path="url(#clipPath153)"
       id="path277" />
    <path
       d="m 393.38,726.386 h -42.521 m 42.521,0 h 127.56 m -127.56,0 v -56.693 m 0,56.693 v 28.348"
       style="fill:none;stroke:#231f20;stroke-width:0.797;stroke-linecap:butt;stroke-linejoin:miter;stroke-miterlimit:10;stroke-dasharray:0.79701, 0.99628;stroke-dashoffset:0;stroke-opacity:1"
       transform="matrix(0.3458986,0,0,-0.3458986,-98.602652,300.74954)"
       clip-path="url(#clipPath154)"
       id="path278" />
    <path
       d="m 372.12,698.04 h 85.041 v 42.52 H 372.12 Z"
       style="fill:none;stroke:#231f20;stroke-width:1.494;stroke-linecap:butt;stroke-linejoin:miter;stroke-miterlimit:10;stroke-dasharray:none;stroke-opacity:1"
       transform="matrix(0.3458986,0,0,-0.3458986,-98.602652,300.74954)"
       clip-path="url(#clipPath155)"
       id="path279" />
    <path
       d="m 0,0 -17.326,-2.89 55.241,-9.205"
       style="fill:none;stroke:#5a5758;stroke-width:0.797;stroke-linecap:butt;stroke-linejoin:bevel;stroke-miterlimit:10;stroke-dasharray:none;stroke-opacity:1"
       transform="matrix(0.3458986,0,0,-0.3458986,36.106175,49.720188)"
       clip-path="url(#clipPath156)"
       id="path280" />
    <path
       d="m 0,0 c -1.321,0.484 -3.41,1.62 -4.795,2.771 l -0.64,-3.836 C -3.751,-0.426 -1.406,-0.028 0,0"
       style="fill:#5a5758;fill-opacity:1;fill-rule:nonzero;stroke:none"
       transform="matrix(0.3458986,0,0,-0.3458986,50.813436,54.169482)"
       clip-path="url(#clipPath157)"
       id="path281" />
    <path
       d="M 0,0 59.84,-9.976 47.124,-12.095"
       style="fill:none;stroke:#5a5758;stroke-width:0.797;stroke-linecap:butt;stroke-linejoin:bevel;stroke-miterlimit:10;stroke-dasharray:none;stroke-opacity:1"
       transform="matrix(0.3458986,0,0,-0.3458986,38.828049,49.720188)"
       clip-path="url(#clipPath158)"
       id="path282" />
    <path
       d="M 0,0 C 1.408,-0.028 3.751,-0.426 5.436,-1.065 L 4.796,2.771 C 3.41,1.62 1.322,0.484 0,0"
       style="fill:#5a5758;fill-opacity:1;fill-rule:nonzero;stroke:none"
       transform="matrix(0.3458986,0,0,-0.3458986,53.535654,54.169482)"
       clip-path="url(#clipPath159)"
       id="path283" />
    <path
       d="m 0,0 25.522,-25.516 8.023,8.028"
       style="fill:none;stroke:#5a5758;stroke-width:0.797;stroke-linecap:butt;stroke-linejoin:bevel;stroke-miterlimit:10;stroke-dasharray:none;stroke-opacity:1"
       transform="matrix(0.3458986,0,0,-0.3458986,38.44652,50.472518)"
       clip-path="url(#clipPath160)"
       id="path284" />
    <path
       d="m 0,0 c -1.165,-0.798 -3.312,-1.841 -5.06,-2.302 l 2.761,-2.76 C -1.84,-3.313 -0.797,-1.165 0,0"
       style="fill:#5a5758;fill-opacity:1;fill-rule:nonzero;stroke:none"
       transform="matrix(0.3458986,0,0,-0.3458986,51.195309,55.375631)"
       clip-path="url(#clipPath161)"
       id="path285" />
    <path
       d="M 0,0 11.36,11.36 33.559,-10.847"
       style="fill:none;stroke:#5a5758;stroke-width:0.797;stroke-linecap:butt;stroke-linejoin:bevel;stroke-miterlimit:10;stroke-dasharray:none;stroke-opacity:1"
       transform="matrix(0.3458986,0,0,-0.3458986,38.441678,48.518536)"
       clip-path="url(#clipPath162)"
       id="path286" />
    <path
       d="M 0,0 C -0.797,1.166 -1.84,3.313 -2.299,5.062 L -5.06,2.302 C -3.312,1.841 -1.165,0.798 0,0"
       style="fill:#5a5758;fill-opacity:1;fill-rule:nonzero;stroke:none"
       transform="matrix(0.3458986,0,0,-0.3458986,51.195309,53.41646)"
       clip-path="url(#clipPath163)"
       id="path287" />
    <path
       d="M 0,0 30.524,-10.175"
       style="fill:none;stroke:#231f20;stroke-width:0.797;stroke-linecap:butt;stroke-linejoin:bevel;stroke-miterlimit:10;stroke-dasharray:none;stroke-opacity:1"
       transform="matrix(0.3458986,0,0,-0.3458986,38.77582,49.929802)"
       clip-path="url(#clipPath164)"
       id="path288" />
    <path
       d="m 0,0 c -1.23,0.684 -3.115,2.132 -4.304,3.485 l -1.23,-3.69 C -3.77,0.164 -1.393,0.192 0,0"
       style="fill:#231f20;fill-opacity:1;fill-rule:nonzero;stroke:none"
       transform="matrix(0.3458986,0,0,-0.3458986,50.865321,53.959866)"
       clip-path="url(#clipPath165)"
       id="path289" />
    <path
       d="m 350.86,726.386 21.26,-3.545 m 148.821,3.545 -63.785,-10.631 m -63.775,-46.062 28.354,28.346 m -28.354,56.694 14.178,-14.168"
       style="fill:none;stroke:#231f20;stroke-width:0.797;stroke-linecap:butt;stroke-linejoin:miter;stroke-miterlimit:10;stroke-dasharray:0.79701, 0.99628;stroke-dashoffset:0;stroke-opacity:1"
       transform="matrix(0.3458986,0,0,-0.3458986,-98.602652,300.74954)"
       clip-path="url(#clipPath166)"
       id="path290" />
    <path
       d="m 0,0 c 0,1.106 -0.887,1.993 -1.992,1.993 -1.106,0 -1.993,-0.887 -1.993,-1.993 0,-1.105 0.887,-1.992 1.993,-1.992 C -0.887,-1.992 0,-1.105 0,0"
       style="fill:#231f20;fill-opacity:1;fill-rule:nonzero;stroke:none"
       transform="matrix(0.3458986,0,0,-0.3458986,38.155981,49.493626)"
       clip-path="url(#clipPath167)"
       id="path291" />
    <path
       d="m 0,0 c 0,1.106 -0.887,1.992 -1.993,1.992 -1.105,0 -1.992,-0.886 -1.992,-1.992 0,-1.106 0.887,-1.992 1.992,-1.992 C -0.887,-1.992 0,-1.106 0,0"
       style="fill:#231f20;fill-opacity:1;fill-rule:nonzero;stroke:none"
       transform="matrix(0.3458986,0,0,-0.3458986,52.86393,54.396045)"
       clip-path="url(#clipPath168)"
       id="path292" />
    <path
       d="m 0,0 c 0,1.106 -0.887,1.993 -1.993,1.993 -1.105,0 -1.992,-0.887 -1.992,-1.993 0,-1.105 0.887,-1.992 1.992,-1.992 C -0.887,-1.992 0,-1.105 0,0"
       style="fill:#231f20;fill-opacity:1;fill-rule:nonzero;stroke:none"
       transform="matrix(0.3458986,0,0,-0.3458986,23.44872,49.493626)"
       clip-path="url(#clipPath169)"
       id="path293" />
    <path
       d="m 0,0 c 0,1.106 -0.887,1.993 -1.993,1.993 -1.105,0 -1.992,-0.887 -1.992,-1.993 0,-1.105 0.887,-1.992 1.992,-1.992 C -0.887,-1.992 0,-1.105 0,0"
       style="fill:#231f20;fill-opacity:1;fill-rule:nonzero;stroke:none"
       transform="matrix(0.3458986,0,0,-0.3458986,82.279485,49.493626)"
       clip-path="url(#clipPath170)"
       id="path294" />
    <path
       d="m 0,0 c 0,1.105 -0.887,1.992 -1.992,1.992 -1.106,0 -1.993,-0.887 -1.993,-1.992 0,-1.106 0.887,-1.993 1.993,-1.993 C -0.887,-1.993 0,-1.106 0,0"
       style="fill:#231f20;fill-opacity:1;fill-rule:nonzero;stroke:none"
       transform="matrix(0.3458986,0,0,-0.3458986,38.155981,69.103309)"
       clip-path="url(#clipPath171)"
       id="path295" />
    <path
       d="m 0,0 c 0,1.105 -0.887,1.992 -1.992,1.992 -1.106,0 -1.993,-0.887 -1.993,-1.992 0,-1.106 0.887,-1.993 1.993,-1.993 C -0.887,-1.993 0,-1.106 0,0"
       style="fill:#231f20;fill-opacity:1;fill-rule:nonzero;stroke:none"
       transform="matrix(0.3458986,0,0,-0.3458986,38.155981,39.688091)"
       clip-path="url(#clipPath172)"
       id="path296" />
  </g>
</svg>
