<?xml version="1.0" encoding="UTF-8" standalone="no"?>
<!-- Created with Inkscape (http://www.inkscape.org/) -->

<svg
   width="147.58559mm"
   height="24.4993mm"
   viewBox="0 0 147.58559 24.4993"
   version="1.1"
   id="svg1"
   inkscape:version="1.3.2 (091e20ef0f, 2023-11-25)"
   sodipodi:docname="refraction_types.svg"
   xmlns:inkscape="http://www.inkscape.org/namespaces/inkscape"
   xmlns:sodipodi="http://sodipodi.sourceforge.net/DTD/sodipodi-0.dtd"
   xmlns:xlink="http://www.w3.org/1999/xlink"
   xmlns="http://www.w3.org/2000/svg"
   xmlns:svg="http://www.w3.org/2000/svg">
  <sodipodi:namedview
     id="namedview1"
     pagecolor="#ffffff"
     bordercolor="#000000"
     borderopacity="0.25"
     inkscape:showpageshadow="2"
     inkscape:pageopacity="0.0"
     inkscape:pagecheckerboard="0"
     inkscape:deskcolor="#d1d1d1"
     inkscape:document-units="mm"
     inkscape:zoom="1.8422839"
     inkscape:cx="304.51332"
     inkscape:cy="114.53175"
     inkscape:window-width="2560"
     inkscape:window-height="1381"
     inkscape:window-x="0"
     inkscape:window-y="0"
     inkscape:window-maximized="0"
     inkscape:current-layer="layer1" />
  <defs
     id="defs1">
    <pattern
       inkscape:collect="always"
       xlink:href="#pattern49"
       id="pattern6"
       patternTransform="matrix(0.29126039,0,0,-0.29126039,16.334023,35.556429)" />
    <pattern
       inkscape:collect="always"
       xlink:href="#pattern47"
       id="pattern4"
       patternTransform="matrix(0.29126039,0,0,-0.29126039,16.334023,35.556429)" />
    <pattern
       inkscape:collect="always"
       xlink:href="#pattern43"
       id="pattern3"
       patternTransform="matrix(0.29126039,0,0,-0.29126039,16.334023,35.556429)" />
    <pattern
       inkscape:collect="always"
       xlink:href="#pattern36"
       id="pattern2"
       patternTransform="matrix(0.29126039,0,0,-0.29126039,16.334023,35.556429)" />
    <pattern
       inkscape:collect="always"
       xlink:href="#pattern5"
       id="pattern1"
       patternTransform="matrix(0.29126039,0,0,-0.29126039,16.334023,35.556429)" />
    <pattern
       patternUnits="userSpaceOnUse"
       x="0"
       y="0"
       width="6.72487"
       height="6.72487"
       id="pattern5">
      <path
         d="M 0,0 6.72487,6.72487"
         style="fill:none;stroke:#000000;stroke-opacity:1;stroke-width:0.74721;stroke-linecap:butt;stroke-linejoin:miter;stroke-miterlimit:10;stroke-dasharray:none"
         id="path5" />
    </pattern>
    <pattern
       patternUnits="userSpaceOnUse"
       x="0"
       y="0"
       width="6.72487"
       height="6.72487"
       id="pattern36">
      <path
         d="M 0,0 6.72487,6.72487"
         style="fill:none;stroke:#000000;stroke-opacity:1;stroke-width:0.74721;stroke-linecap:butt;stroke-linejoin:miter;stroke-miterlimit:10;stroke-dasharray:none"
         id="path36" />
    </pattern>
    <pattern
       patternUnits="userSpaceOnUse"
       x="0"
       y="0"
       width="6.72487"
       height="6.72487"
       id="pattern43">
      <path
         d="M 0,0 6.72487,6.72487"
         style="fill:none;stroke:#000000;stroke-opacity:1;stroke-width:0.74721;stroke-linecap:butt;stroke-linejoin:miter;stroke-miterlimit:10;stroke-dasharray:none"
         id="path43" />
    </pattern>
    <pattern
       patternUnits="userSpaceOnUse"
       x="0"
       y="0"
       width="6.72487"
       height="6.72487"
       id="pattern47">
      <path
         d="M 0,0 6.72487,6.72487"
         style="fill:none;stroke:#000000;stroke-opacity:1;stroke-width:0.74721;stroke-linecap:butt;stroke-linejoin:miter;stroke-miterlimit:10;stroke-dasharray:none"
         id="path47" />
    </pattern>
    <pattern
       patternUnits="userSpaceOnUse"
       x="0"
       y="0"
       width="6.72487"
       height="6.72487"
       id="pattern49">
      <path
         d="M 0,0 6.72487,6.72487"
         style="fill:none;stroke:#000000;stroke-opacity:1;stroke-width:0.74721;stroke-linecap:butt;stroke-linejoin:miter;stroke-miterlimit:10;stroke-dasharray:none"
         id="path49" />
    </pattern>
  </defs>
  <g
     inkscape:label="Layer 1"
     inkscape:groupmode="layer"
     id="layer1"
     transform="translate(-22.754167,-46.302083)">
    <path
       id="path4"
       d="m 133.8553,57.319627 h 30.46848 v 8.705281 H 133.8553 Z"
       style="fill:url(#pattern1);fill-opacity:1;fill-rule:nonzero;stroke:#000000;stroke-width:0.217633;stroke-linecap:butt;stroke-linejoin:miter;stroke-miterlimit:10;stroke-dasharray:none;stroke-opacity:1" />
    <path
       id="path6"
       d="m 59.860421,57.319627 c 0.363441,-0.363447 0.724711,-0.363447 1.088161,0 0.363437,0.36344 0.724711,0.36344 1.088157,0 0.363441,-0.363447 0.724714,-0.363447 1.088161,0 0.36344,0.36344 0.724711,0.36344 1.08816,0 0.363441,-0.363447 0.724711,-0.363447 1.088161,0 0.36344,0.36344 0.724711,0.36344 1.08816,0 0.363441,-0.363447 0.724711,-0.363447 1.088161,0 0.363437,0.36344 0.724711,0.36344 1.088157,0 0.363441,-0.363447 0.724711,-0.363447 1.088161,0 0.36344,0.36344 0.724711,0.36344 1.08816,0 0.363441,-0.363447 0.724711,-0.363447 1.088161,0 0.36344,0.36344 0.724711,0.36344 1.08816,0 0.363438,-0.363447 0.724711,-0.363447 1.088161,0 0.363437,0.36344 0.724708,0.36344 1.088157,0 0.363441,-0.363447 0.724711,-0.363447 1.088161,0 0.36344,0.36344 0.724711,0.36344 1.08816,0 0.363441,-0.363447 0.724711,-0.363447 1.088161,0 0.36344,0.36344 0.724711,0.36344 1.08816,0 0.363438,-0.363447 0.724708,-0.363447 1.088158,0 0.36344,0.36344 0.724711,0.36344 1.088163,0 0.363438,-0.363447 0.724708,-0.363447 1.088157,0 0.363441,0.36344 0.724712,0.36344 1.088161,0 0.36344,-0.363447 0.724711,-0.363447 1.088157,0 0.363444,0.36344 0.724715,0.36344 1.088164,0 0.363438,-0.363447 0.724711,-0.363447 1.088157,0 0.363441,0.36344 0.724712,0.36344 1.088161,0 0.36344,-0.363447 0.724711,-0.363447 1.08816,0 0.363441,0.36344 0.724712,0.36344 1.088161,0 v 0"
       style="fill:none;stroke:#000000;stroke-width:0.217633;stroke-linecap:butt;stroke-linejoin:miter;stroke-miterlimit:10;stroke-dasharray:none;stroke-opacity:1" />
    <path
       id="path7"
       d="m 74.661569,57.319627 2.70299,-1.00546"
       style="fill:none;stroke:#f5a623;stroke-width:0.217633;stroke-linecap:butt;stroke-linejoin:miter;stroke-miterlimit:10;stroke-dasharray:none;stroke-opacity:1" />
    <path
       id="path8"
       d="m 76.479774,57.639999 1.49633,-1.552174 -2.146863,-0.198019 z"
       style="fill:#f5a623;fill-opacity:1;fill-rule:nonzero;stroke:#000000;stroke-width:0.0232135;stroke-linecap:butt;stroke-linejoin:miter;stroke-miterlimit:10;stroke-dasharray:none;stroke-opacity:0" />
    <path
       id="path9"
       d="m 74.661569,57.319627 4.235116,-3.242719"
       style="fill:none;stroke:#f5a623;stroke-width:0.217633;stroke-linecap:butt;stroke-linejoin:miter;stroke-miterlimit:10;stroke-dasharray:none;stroke-opacity:1" />
    <path
       id="path10"
       d="m 78.439182,55.6035 0.975472,-1.922685 -2.110572,0.440143 z"
       style="fill:#f5a623;fill-opacity:1;fill-rule:nonzero;stroke:#000000;stroke-width:0.0232135;stroke-linecap:butt;stroke-linejoin:miter;stroke-miterlimit:10;stroke-dasharray:none;stroke-opacity:0" />
    <path
       id="path11"
       d="m 74.661569,57.319627 4.387457,-5.708488"
       style="fill:none;stroke:#f5a623;stroke-width:0.217633;stroke-linecap:butt;stroke-linejoin:miter;stroke-miterlimit:10;stroke-dasharray:none;stroke-opacity:1" />
    <path
       id="path12"
       d="m 79.003076,53.205032 0.444225,-2.109686 -1.924538,0.971732 z"
       style="fill:#f5a623;fill-opacity:1;fill-rule:nonzero;stroke:#000000;stroke-width:0.0232135;stroke-linecap:butt;stroke-linejoin:miter;stroke-miterlimit:10;stroke-dasharray:none;stroke-opacity:0" />
    <path
       id="path13"
       d="m 74.661569,57.319627 3.471233,-7.678058"
       style="fill:none;stroke:#f5a623;stroke-width:0.217633;stroke-linecap:butt;stroke-linejoin:miter;stroke-miterlimit:10;stroke-dasharray:none;stroke-opacity:1" />
    <path
       id="path14"
       d="m 78.452682,51.2028 -0.05002,-2.15537 -1.65131,1.386114 z"
       style="fill:#f5a623;fill-opacity:1;fill-rule:nonzero;stroke:#000000;stroke-width:0.0232135;stroke-linecap:butt;stroke-linejoin:miter;stroke-miterlimit:10;stroke-dasharray:none;stroke-opacity:0" />
    <path
       id="path15"
       d="M 74.661569,57.319627 V 47.91357"
       style="fill:none;stroke:#f5a623;stroke-width:0.217633;stroke-linecap:butt;stroke-linejoin:miter;stroke-miterlimit:10;stroke-dasharray:none;stroke-opacity:1" />
    <path
       id="path16"
       d="m 75.595205,49.204128 -0.933636,-1.943456 -0.933638,1.943456 z"
       style="fill:#f5a623;fill-opacity:1;fill-rule:nonzero;stroke:#000000;stroke-width:0.0232135;stroke-linecap:butt;stroke-linejoin:miter;stroke-miterlimit:10;stroke-dasharray:none;stroke-opacity:0" />
    <path
       id="path17"
       d="m 74.661569,57.319627 2.056622,-8.857625"
       style="fill:none;stroke:#f5a623;stroke-width:0.217633;stroke-linecap:butt;stroke-linejoin:miter;stroke-miterlimit:10;stroke-dasharray:none;stroke-opacity:1" />
    <path
       id="path18"
       d="m 77.336179,49.930654 -0.469998,-2.104135 -1.348839,1.681944 z"
       style="fill:#f5a623;fill-opacity:1;fill-rule:nonzero;stroke:#000000;stroke-width:0.0232135;stroke-linecap:butt;stroke-linejoin:miter;stroke-miterlimit:10;stroke-dasharray:none;stroke-opacity:0" />
    <path
       id="path19"
       d="M 74.661569,57.319627 72.100042,56.325048"
       style="fill:none;stroke:#f5a623;stroke-width:0.217633;stroke-linecap:butt;stroke-linejoin:miter;stroke-miterlimit:10;stroke-dasharray:none;stroke-opacity:1" />
    <path
       id="path20"
       d="m 73.642403,55.921688 -2.149557,0.166137 1.473119,1.574205 z"
       style="fill:#f5a623;fill-opacity:1;fill-rule:nonzero;stroke:#000000;stroke-width:0.0232135;stroke-linecap:butt;stroke-linejoin:miter;stroke-miterlimit:10;stroke-dasharray:none;stroke-opacity:0" />
    <path
       id="path21"
       d="M 74.661569,57.319627 70.417742,53.976796"
       style="fill:none;stroke:#f5a623;stroke-width:0.217633;stroke-linecap:butt;stroke-linejoin:miter;stroke-miterlimit:10;stroke-dasharray:none;stroke-opacity:1" />
    <path
       id="path22"
       d="m 72.008417,54.041223 -2.104286,-0.46922 0.948842,1.935946 z"
       style="fill:#f5a623;fill-opacity:1;fill-rule:nonzero;stroke:#000000;stroke-width:0.0232135;stroke-linecap:butt;stroke-linejoin:miter;stroke-miterlimit:10;stroke-dasharray:none;stroke-opacity:0" />
    <path
       id="path23"
       d="m 74.661569,57.319627 -4.33523,-5.880422"
       style="fill:none;stroke:#f5a623;stroke-width:0.217633;stroke-linecap:butt;stroke-linejoin:miter;stroke-miterlimit:10;stroke-dasharray:none;stroke-opacity:1" />
    <path
       id="path24"
       d="m 71.841598,51.924573 -1.90482,-1.009855 0.402135,2.118118 z"
       style="fill:#f5a623;fill-opacity:1;fill-rule:nonzero;stroke:#000000;stroke-width:0.0232135;stroke-linecap:butt;stroke-linejoin:miter;stroke-miterlimit:10;stroke-dasharray:none;stroke-opacity:0" />
    <path
       id="path25"
       d="m 74.661569,57.319627 -3.17525,-7.989279"
       style="fill:none;stroke:#f5a623;stroke-width:0.217633;stroke-linecap:butt;stroke-linejoin:miter;stroke-miterlimit:10;stroke-dasharray:none;stroke-opacity:1" />
    <path
       id="path26"
       d="m 72.830188,50.184207 -1.585441,-1.461046 -0.149681,2.15078 z"
       style="fill:#f5a623;fill-opacity:1;fill-rule:nonzero;stroke:#000000;stroke-width:0.0232135;stroke-linecap:butt;stroke-linejoin:miter;stroke-miterlimit:10;stroke-dasharray:none;stroke-opacity:0" />
    <path
       id="path27"
       d="m 74.661569,57.319627 -1.78676,-8.962088"
       style="fill:none;stroke:#f5a623;stroke-width:0.217633;stroke-linecap:butt;stroke-linejoin:miter;stroke-miterlimit:10;stroke-dasharray:none;stroke-opacity:1" />
    <path
       id="path28"
       d="m 74.043966,49.441158 -1.295383,-1.723457 -0.535811,2.088354 z"
       style="fill:#f5a623;fill-opacity:1;fill-rule:nonzero;stroke:#000000;stroke-width:0.0232135;stroke-linecap:butt;stroke-linejoin:miter;stroke-miterlimit:10;stroke-dasharray:none;stroke-opacity:0" />
    <path
       id="path29"
       d="m 140.38426,46.438028 8.16119,10.202586"
       style="fill:none;stroke:#000000;stroke-width:0.435265;stroke-linecap:butt;stroke-linejoin:miter;stroke-miterlimit:10;stroke-dasharray:none;stroke-opacity:1" />
    <path
       id="path30"
       d="m 146.56298,56.105304 2.52656,1.214323 -0.63013,-2.73149 z"
       style="fill:#000000;fill-opacity:1;fill-rule:nonzero;stroke:#000000;stroke-width:0.0232135;stroke-linecap:butt;stroke-linejoin:miter;stroke-miterlimit:10;stroke-dasharray:none;stroke-opacity:0" />
    <path
       id="path31"
       d="m 149.08954,57.319627 4.06101,8.122026"
       style="fill:none;stroke:#808080;stroke-width:0.217633;stroke-linecap:butt;stroke-linejoin:miter;stroke-miterlimit:10;stroke-dasharray:none;stroke-opacity:1" />
    <path
       id="path32"
       d="m 151.73796,64.704397 1.70421,1.320511 -0.0343,-2.155671 z"
       style="fill:#808080;fill-opacity:1;fill-rule:nonzero;stroke:#000000;stroke-width:0.0232135;stroke-linecap:butt;stroke-linejoin:miter;stroke-miterlimit:10;stroke-dasharray:none;stroke-opacity:0" />
    <path
       id="path33"
       d="m 149.08954,57.319627 c 0.36344,0.36344 0.36344,0.724711 0,1.08816 -0.36345,0.363441 -0.36345,0.724711 0,1.088161 0.36344,0.36344 0.36344,0.724711 0,1.08816 -0.36345,0.363441 -0.36345,0.724711 0,1.088161 0.36344,0.363437 0.36344,0.724708 0,1.08816 -0.36345,0.363438 -0.36345,0.724708 0,1.088161 v 0"
       style="fill:none;stroke:#d0021b;stroke-width:0.217633;stroke-linecap:butt;stroke-linejoin:miter;stroke-miterlimit:10;stroke-dasharray:none;stroke-opacity:1" />
    <path
       id="path34"
       d="m 149.08954,64.577649 c -0.40266,0 -0.72907,-0.326409 -0.72907,-0.729059 0,-0.402659 0.32641,-0.729069 0.72907,-0.729069 0.40265,0 0.72906,0.32641 0.72906,0.729069 0,0.40265 -0.32641,0.729059 -0.72906,0.729059 z"
       style="fill:#d0021b;fill-opacity:1;fill-rule:nonzero;stroke:#d0021b;stroke-width:0.217633;stroke-linecap:butt;stroke-linejoin:miter;stroke-miterlimit:10;stroke-dasharray:none;stroke-opacity:1" />
    <path
       id="path35"
       d="m 22.862983,57.319627 h 30.468478 v 8.705281 H 22.862983 Z"
       style="fill:url(#pattern2);fill-opacity:1;fill-rule:nonzero;stroke:#000000;stroke-width:0.217633;stroke-linecap:butt;stroke-linejoin:miter;stroke-miterlimit:10;stroke-dasharray:none;stroke-opacity:1" />
    <path
       id="path37"
       d="M 28.621521,46.459788 37.524847,56.66455"
       style="fill:none;stroke:#000000;stroke-width:0.435265;stroke-linecap:butt;stroke-linejoin:miter;stroke-miterlimit:10;stroke-dasharray:none;stroke-opacity:1" />
    <path
       id="path38"
       d="m 35.520996,56.214366 2.576225,1.105261 -0.746314,-2.702139 z"
       style="fill:#000000;fill-opacity:1;fill-rule:nonzero;stroke:#000000;stroke-width:0.0232135;stroke-linecap:butt;stroke-linejoin:miter;stroke-miterlimit:10;stroke-dasharray:none;stroke-opacity:0" />
    <path
       id="path39"
       d="m 38.097221,57.319627 7.493066,-8.200373"
       style="fill:none;stroke:#000000;stroke-width:0.217633;stroke-linecap:butt;stroke-linejoin:miter;stroke-miterlimit:10;stroke-dasharray:none;stroke-opacity:1" />
    <path
       id="path40"
       d="m 45.410353,50.700475 0.621727,-2.064366 -2.000097,0.804837 z"
       style="fill:#000000;fill-opacity:1;fill-rule:nonzero;stroke:#000000;stroke-width:0.0232135;stroke-linecap:butt;stroke-linejoin:miter;stroke-miterlimit:10;stroke-dasharray:none;stroke-opacity:0" />
    <path
       id="path41"
       d="M 22.862983,57.319627 H 53.331461"
       style="fill:none;stroke:#000000;stroke-width:0.217633;stroke-linecap:butt;stroke-linejoin:miter;stroke-miterlimit:10;stroke-dasharray:none;stroke-opacity:1" />
    <path
       id="path42"
       d="M 59.860421,57.319627 H 90.3289 v 8.705281 H 59.860421 Z"
       style="fill:url(#pattern3);fill-opacity:1;fill-rule:nonzero;stroke:#000000;stroke-width:0.217633;stroke-linecap:butt;stroke-linejoin:miter;stroke-miterlimit:10;stroke-dasharray:none;stroke-opacity:1" />
    <path
       id="path44"
       d="M 65.61896,46.459788 74.522286,56.66455"
       style="fill:none;stroke:#000000;stroke-width:0.435265;stroke-linecap:butt;stroke-linejoin:miter;stroke-miterlimit:10;stroke-dasharray:none;stroke-opacity:1" />
    <path
       id="path45"
       d="m 72.518435,56.214366 2.576224,1.105261 -0.746314,-2.702139 z"
       style="fill:#000000;fill-opacity:1;fill-rule:nonzero;stroke:#000000;stroke-width:0.0232135;stroke-linecap:butt;stroke-linejoin:miter;stroke-miterlimit:10;stroke-dasharray:none;stroke-opacity:0" />
    <path
       id="path46"
       d="m 96.85786,57.319627 h 13.05792 v 2.176321 H 96.85786 Z"
       style="fill:url(#pattern4);fill-opacity:1;fill-rule:nonzero;stroke:#000000;stroke-width:0.217633;stroke-linecap:butt;stroke-linejoin:miter;stroke-miterlimit:10;stroke-dasharray:none;stroke-opacity:1" />
    <path
       id="path48"
       d="m 114.26842,57.319627 h 13.05792 v 2.176321 h -13.05792 z"
       style="fill:url(#pattern6);fill-opacity:1;fill-rule:nonzero;stroke:#000000;stroke-width:0.217633;stroke-linecap:butt;stroke-linejoin:miter;stroke-miterlimit:10;stroke-dasharray:none;stroke-opacity:1" />
    <path
       id="path50"
       d="m 96.85786,57.319627 h 13.05792 v 2.176321"
       style="fill:none;stroke:#000000;stroke-width:0.217633;stroke-linecap:butt;stroke-linejoin:miter;stroke-miterlimit:10;stroke-dasharray:none;stroke-opacity:1" />
    <path
       id="path51"
       d="m 114.26842,59.495948 v -2.176321 h 13.05792"
       style="fill:none;stroke:#000000;stroke-width:0.217633;stroke-linecap:butt;stroke-linejoin:miter;stroke-miterlimit:10;stroke-dasharray:none;stroke-opacity:1" />
    <path
       id="path52"
       d="m 102.6164,46.459788 8.90332,10.204762"
       style="fill:none;stroke:#000000;stroke-width:0.435265;stroke-linecap:butt;stroke-linejoin:miter;stroke-miterlimit:10;stroke-dasharray:none;stroke-opacity:1" />
    <path
       id="path53"
       d="m 109.51587,56.214366 2.57623,1.105261 -0.74632,-2.702139 z"
       style="fill:#000000;fill-opacity:1;fill-rule:nonzero;stroke:#000000;stroke-width:0.0232135;stroke-linecap:butt;stroke-linejoin:miter;stroke-miterlimit:10;stroke-dasharray:none;stroke-opacity:0" />
    <path
       id="path54"
       d="m 112.20091,59.822392 5.49521,1.760643"
       style="fill:none;stroke:#000000;stroke-width:0.217633;stroke-linecap:butt;stroke-linejoin:miter;stroke-miterlimit:10;stroke-dasharray:0.243747, 0.728337;stroke-dashoffset:0;stroke-opacity:1" />
    <path
       id="path55"
       d="m 116.18085,62.077418 2.13552,-0.296337 -1.56598,-1.481869 z"
       style="fill:#000000;fill-opacity:1;fill-rule:nonzero;stroke:#000000;stroke-width:0.0232135;stroke-linecap:butt;stroke-linejoin:miter;stroke-miterlimit:10;stroke-dasharray:none;stroke-opacity:0" />
    <path
       id="path56"
       d="m 112.20091,59.822392 3.70627,3.880378"
       style="fill:none;stroke:#000000;stroke-width:0.217633;stroke-linecap:butt;stroke-linejoin:miter;stroke-miterlimit:10;stroke-dasharray:0.243747, 0.728337;stroke-dashoffset:0;stroke-opacity:1" />
    <path
       id="path57"
       d="m 114.34024,63.414693 2.01744,0.760341 -0.66731,-2.050094 z"
       style="fill:#000000;fill-opacity:1;fill-rule:nonzero;stroke:#000000;stroke-width:0.0232135;stroke-linecap:butt;stroke-linejoin:miter;stroke-miterlimit:10;stroke-dasharray:none;stroke-opacity:0" />
    <path
       id="path58"
       d="m 112.20091,59.822392 -0.0979,5.54962"
       style="fill:none;stroke:#000000;stroke-width:0.217633;stroke-linecap:butt;stroke-linejoin:miter;stroke-miterlimit:10;stroke-dasharray:0.243747, 0.728337;stroke-dashoffset:0;stroke-opacity:1" />
    <path
       id="path59"
       d="m 111.19284,64.065345 0.89926,1.959563 0.96769,-1.926691 z"
       style="fill:#000000;fill-opacity:1;fill-rule:nonzero;stroke:#000000;stroke-width:0.0232135;stroke-linecap:butt;stroke-linejoin:miter;stroke-miterlimit:10;stroke-dasharray:none;stroke-opacity:0" />
    <path
       id="path60"
       d="m 112.20091,59.822392 -5.61055,1.712766"
       style="fill:none;stroke:#000000;stroke-width:0.217633;stroke-linecap:butt;stroke-linejoin:miter;stroke-miterlimit:10;stroke-dasharray:0.243747, 0.728337;stroke-dashoffset:0;stroke-opacity:1" />
    <path
       id="path61"
       d="m 107.55153,60.265956 -1.58577,1.46072 2.13137,0.325 z"
       style="fill:#000000;fill-opacity:1;fill-rule:nonzero;stroke:#000000;stroke-width:0.0232135;stroke-linecap:butt;stroke-linejoin:miter;stroke-miterlimit:10;stroke-dasharray:none;stroke-opacity:0" />
    <path
       id="path62"
       d="m 112.20091,59.822392 -4.03489,4.104541"
       style="fill:none;stroke:#000000;stroke-width:0.217633;stroke-linecap:butt;stroke-linejoin:miter;stroke-miterlimit:10;stroke-dasharray:0.243747, 0.728337;stroke-dashoffset:0;stroke-opacity:1" />
    <path
       id="path63"
       d="m 108.40338,62.352344 -0.69657,2.04032 2.0281,-0.731384 z"
       style="fill:#000000;fill-opacity:1;fill-rule:nonzero;stroke:#000000;stroke-width:0.0232135;stroke-linecap:butt;stroke-linejoin:miter;stroke-miterlimit:10;stroke-dasharray:none;stroke-opacity:0" />
    <path
       id="path64"
       d="m 133.8553,57.319627 h 30.46848"
       style="fill:none;stroke:#000000;stroke-width:0.217633;stroke-linecap:butt;stroke-linejoin:miter;stroke-miterlimit:10;stroke-dasharray:none;stroke-opacity:1" />
    <path
       id="path65"
       d="m 64.929442,69.353408 v -1.525489 c 0,-0.111621 0.111622,-0.152962 0.264584,-0.152962 0.690397,0 0.913639,0.553972 0.913639,1.045931 0,0.640788 -0.384473,0.797884 -0.830957,0.797884 -0.314193,0 -0.347266,-0.06201 -0.347266,-0.165364 z m -0.545703,-1.790072 c -0.02067,0.02067 -0.02067,0.08682 0,0.107487 0.219108,0.0083 0.276986,0.02481 0.276986,0.289388 v 1.273307 c 0,0.264584 -0.05788,0.28112 -0.276986,0.289388 -0.02067,0.02067 -0.02067,0.08682 0,0.107487 0.124024,-0.0041 0.289388,-0.0083 0.413412,-0.0083 0.115755,0 0.248047,0.0083 0.578776,0.0083 0.446484,0 1.037663,-0.206705 1.037663,-0.988053 0,-0.591178 -0.487826,-1.079004 -1.095541,-1.079004 -0.227376,0 -0.401009,0.0083 -0.525032,0.0083 -0.115756,0 -0.285254,-0.0041 -0.409278,-0.0083 z m 2.450497,0.152962 c 0,0.08268 0.07855,0.165365 0.152962,0.165365 0.09095,0 0.165365,-0.08268 0.165365,-0.152962 0,-0.07441 -0.06615,-0.165365 -0.152963,-0.165365 -0.07441,0 -0.165364,0.07855 -0.165364,0.152962 z m 0.289388,1.51722 v -0.632519 c 0,-0.157096 0.0124,-0.363802 0.0124,-0.363802 0,-0.0124 -0.01654,-0.02067 -0.04134,-0.02067 -0.08682,0.03721 -0.214974,0.06201 -0.434082,0.09095 -0.0083,0.02067 0,0.07028 0.0041,0.09095 0.177767,0.01654 0.206706,0.03307 0.206706,0.214974 v 0.620118 c 0,0.264583 -0.03307,0.272851 -0.227376,0.289388 -0.02067,0.02067 -0.02067,0.08682 0,0.107487 0.103352,-0.0041 0.227376,-0.0083 0.355533,-0.0083 0.128158,0 0.248047,0.0041 0.355534,0.0083 0.01654,-0.02067 0.01654,-0.08682 0,-0.107487 -0.194303,-0.0124 -0.23151,-0.02481 -0.23151,-0.289389 z m 1.708423,0 v -0.851627 h 0.289388 c 0.03307,0 0.07855,-0.0124 0.07855,-0.04134 v -0.06201 c 0,-0.0124 -0.0083,-0.02067 -0.0248,-0.02067 h -0.343132 v -0.169498 c 0,-0.06201 0.0041,-0.206706 0.02067,-0.314193 0.04548,-0.23151 0.128158,-0.260449 0.198438,-0.260449 0.07441,0 0.14056,0.04547 0.169499,0.107487 0.03307,0.06615 0.06615,0.128157 0.148828,0.128157 0.06614,0 0.111621,-0.04547 0.111621,-0.111621 0,-0.128157 -0.144694,-0.235644 -0.380339,-0.235644 -0.115755,0 -0.297656,0.07028 -0.405143,0.239778 -0.04134,-0.07855 -0.186035,-0.186035 -0.438216,-0.186035 -0.08682,0 -0.169499,0.02481 -0.235645,0.06201 -0.219108,0.128158 -0.326595,0.3514 -0.326595,0.740006 h -0.152962 c -0.05788,0 -0.07441,0.03721 -0.07441,0.06201 v 0.04134 c 0,0.01654 0.0041,0.02067 0.01654,0.02067 h 0.210839 v 0.851627 c 0,0.264584 -0.03307,0.276986 -0.206705,0.289388 -0.01654,0.02067 -0.01654,0.08682 0,0.107487 0.107487,-0.0041 0.219108,-0.0083 0.334863,-0.0083 0.103353,0 0.21084,0.0041 0.310059,0.0083 0.02067,-0.02067 0.02067,-0.08682 0,-0.107487 -0.144694,-0.0124 -0.186036,-0.0248 -0.186036,-0.289388 v -0.851627 h 0.63252 v 0.851627 c 0,0.264584 -0.03307,0.276986 -0.173633,0.289388 -0.02067,0.02067 -0.02067,0.08682 0,0.107487 0.09095,-0.0041 0.194304,-0.0083 0.301791,-0.0083 0.09922,0 0.235644,0.0041 0.37207,0.0083 0.02067,-0.02067 0.02067,-0.08682 0,-0.107487 -0.214974,-0.0124 -0.248047,-0.0248 -0.248047,-0.289388 z m -0.219109,-1.405599 c -0.02894,0.115756 -0.03307,0.239779 -0.03307,0.301791 v 0.128157 h -0.632519 v -0.02894 c 0,-0.214974 0.0248,-0.326595 0.04548,-0.388607 0.06615,-0.252181 0.206706,-0.289388 0.256315,-0.289388 0.111622,0 0.169499,0.07855 0.202572,0.157096 0.02894,0.06201 0.05788,0.128158 0.14056,0.128158 0.0083,0 0.01654,-0.0041 0.02067,-0.0083 z m 1.336353,1.827279 c 0.124023,0 0.272852,-0.06615 0.429948,-0.190169 0.01654,-0.01654 0.04134,-0.02067 0.04547,0 0.0124,0.08268 0.03721,0.190169 0.03721,0.190169 0.0248,0.0083 0.04134,0.0041 0.05788,0 0.07028,-0.05788 0.181901,-0.107487 0.376204,-0.128157 0.02067,-0.02067 0.02067,-0.06615 0,-0.08682 -0.202571,-0.01654 -0.23151,-0.07441 -0.23151,-0.23151 v -0.611849 c 0,-0.09508 0.0124,-0.326595 0.0124,-0.326595 0,-0.0083 -0.0083,-0.01654 -0.0248,-0.01654 -0.01654,0 -0.06615,0.0041 -0.111621,0.0041 -0.103353,0 -0.214974,-0.0041 -0.326595,-0.0041 -0.01654,0.01654 -0.01654,0.08268 0,0.103353 0.157096,0.0083 0.198437,0.04548 0.198437,0.256315 v 0.615983 c 0,0.05788 -0.0041,0.08268 -0.04961,0.124024 -0.119889,0.09922 -0.239778,0.152962 -0.318327,0.152962 -0.09508,0 -0.256315,-0.04548 -0.256315,-0.330729 v -0.578776 c 0,-0.09508 0.0124,-0.326595 0.0124,-0.326595 0,-0.0083 -0.0083,-0.01654 -0.0248,-0.01654 -0.0124,0 -0.06201,0.0041 -0.111621,0.0041 -0.09922,0 -0.214974,-0.0041 -0.322461,-0.0041 -0.02067,0.01654 -0.02067,0.08268 0,0.103352 0.152962,0.0124 0.198438,0.04548 0.198438,0.252181 v 0.611849 c 0,0.219108 0.09508,0.434082 0.409277,0.434082 z m 1.149284,-0.471289 c 0.0124,0.157096 0.02067,0.305925 0.02067,0.438216 0.03307,-0.0083 0.06615,-0.0083 0.08268,-0.0083 0.02067,0 0.04134,0 0.06201,0.0041 0.08682,0.02481 0.169498,0.03721 0.289388,0.03721 0.177767,0 0.504362,-0.08682 0.504362,-0.401009 0,-0.214974 -0.157097,-0.343132 -0.37207,-0.42168 -0.19017,-0.07441 -0.318327,-0.124023 -0.318327,-0.297656 0,-0.132292 0.115755,-0.202572 0.223242,-0.202572 0.07028,0 0.256315,0.02481 0.297656,0.293523 0.01654,0.02067 0.08268,0.01654 0.09922,0 0.0124,-0.115756 0.01654,-0.235645 0.02067,-0.338998 -0.09922,-0.01654 -0.252181,-0.06201 -0.417546,-0.06201 -0.235645,0 -0.446484,0.152963 -0.446484,0.359668 0,0.231511 0.103353,0.33073 0.347265,0.429948 0.264584,0.107487 0.326595,0.173633 0.326595,0.310059 0,0.157096 -0.152962,0.223242 -0.272851,0.223242 -0.124024,0 -0.194303,-0.04134 -0.223242,-0.07441 -0.07028,-0.07441 -0.107487,-0.214974 -0.124024,-0.293522 -0.02067,-0.02067 -0.07855,-0.01654 -0.09922,0.0041 z m 1.478979,-0.458887 c 0.06201,-0.359668 0.285254,-0.388606 0.359668,-0.388606 0.11989,0 0.264584,0.06615 0.264584,0.334863 0,0.02894 -0.0124,0.04547 -0.04548,0.04547 z m 0.835091,0.599447 c -0.119889,0.124023 -0.210839,0.173633 -0.396874,0.173633 -0.111622,0 -0.248047,-0.06615 -0.343132,-0.227377 -0.06615,-0.107487 -0.103353,-0.252181 -0.103353,-0.438216 l 0.847494,0.0083 c 0.03721,0 0.05788,-0.02067 0.05788,-0.05374 0,-0.268717 -0.09508,-0.553971 -0.537435,-0.553971 -0.276985,0 -0.636653,0.264583 -0.636653,0.748274 0,0.177767 0.04548,0.347266 0.152962,0.467155 0.107487,0.128158 0.256315,0.206706 0.483691,0.206706 0.243913,0 0.413412,-0.111621 0.541569,-0.276986 -0.0083,-0.03307 -0.02894,-0.04961 -0.06615,-0.05374 z m 1.851051,-1.666048 c 0.194303,0 0.421679,0.07028 0.421679,0.44235 0,0.401009 -0.223242,0.487826 -0.533301,0.487826 h -0.152962 v -0.727605 c 0,-0.09095 0.04134,-0.202571 0.264584,-0.202571 z m -0.264584,1.575097 v -0.537434 c 0.268717,0 0.330729,0.04961 0.37207,0.119889 l 0.343132,0.553971 c 0.09095,0.148828 0.227376,0.285254 0.417545,0.285254 0.04961,0 0.103353,-0.0083 0.132292,-0.02481 0.0124,-0.02067 0.0124,-0.04961 0,-0.07441 -0.144694,0 -0.223242,-0.107487 -0.305924,-0.243912 L 75.557218,68.64234 c 0.136425,-0.04548 0.421679,-0.21084 0.421679,-0.541569 0,-0.16123 -0.05374,-0.289388 -0.169498,-0.396875 -0.148829,-0.144694 -0.347266,-0.152962 -0.549838,-0.152962 -0.148828,0 -0.28112,0.02067 -0.396875,0.02067 -0.111621,0 -0.260449,-0.0041 -0.409277,-0.0083 -0.02067,0.02067 -0.02067,0.08682 0,0.107487 0.223242,0.0083 0.276986,0.0248 0.276986,0.289388 v 1.273307 c 0,0.264584 -0.05374,0.28112 -0.276986,0.289388 -0.02067,0.02067 -0.02067,0.08682 0,0.107487 0.144694,-0.0041 0.293522,-0.0083 0.413411,-0.0083 0.11989,0 0.268718,0.0041 0.409278,0.0083 0.02067,-0.02067 0.02067,-0.08682 0,-0.107487 -0.223242,-0.0083 -0.276986,-0.0248 -0.276986,-0.289388 z m 1.658813,-0.508496 c 0.06201,-0.359668 0.285255,-0.388606 0.359669,-0.388606 0.119889,0 0.264583,0.06615 0.264583,0.334863 0,0.02894 -0.0124,0.04547 -0.04548,0.04547 z m 0.835092,0.599447 c -0.11989,0.124023 -0.21084,0.173633 -0.396875,0.173633 -0.111621,0 -0.248047,-0.06615 -0.343132,-0.227377 -0.06615,-0.107487 -0.103353,-0.252181 -0.103353,-0.438216 l 0.847494,0.0083 c 0.03721,0 0.05788,-0.02067 0.05788,-0.05374 0,-0.268717 -0.09508,-0.553971 -0.537434,-0.553971 -0.276986,0 -0.636654,0.264583 -0.636654,0.748274 0,0.177767 0.04548,0.347266 0.152962,0.467155 0.107487,0.128158 0.256315,0.206706 0.483692,0.206706 0.243912,0 0.413411,-0.111621 0.541569,-0.276986 -0.0083,-0.03307 -0.02894,-0.04961 -0.06615,-0.05374 z m 1.630908,-0.09095 v -1.463476 c 0,-0.206706 0,-0.334863 0,-0.334863 0,-0.02067 -0.0124,-0.03307 -0.04134,-0.03307 -0.04134,0.0248 -0.11989,0.06201 -0.169499,0.07441 -0.07028,-0.04961 -0.214974,-0.07441 -0.326595,-0.07441 -0.268718,0 -0.595312,0.23151 -0.595312,0.760677 v 0.09508 h -0.161231 c -0.05788,0 -0.07441,0.03721 -0.07441,0.06201 v 0.04134 c 0,0.01654 0.0041,0.02067 0.01654,0.02067 h 0.21084 v 0.851627 c 0,0.264584 -0.03307,0.276986 -0.206706,0.289388 -0.01654,0.02067 -0.01654,0.08682 0,0.107487 0.107487,-0.0041 0.227376,-0.0083 0.334863,-0.0083 0.115756,0 0.231511,0.0041 0.343132,0.0083 0.02067,-0.02067 0.02067,-0.08682 0,-0.107487 -0.177767,-0.01654 -0.219108,-0.0248 -0.219108,-0.289388 v -0.851627 h 0.297656 c 0.0248,0 0.07028,-0.0124 0.07028,-0.04134 v -0.06201 c 0,-0.0124 -0.0083,-0.02067 -0.0248,-0.02067 h -0.3514 v -0.148828 c 0,-0.487825 0.202572,-0.599446 0.305925,-0.599446 0.09508,0 0.21084,0.05374 0.252181,0.157096 0.02067,0.04134 0.04961,0.07441 0.09095,0.08682 0,0.01654 -0.0041,0.04961 -0.0041,0.07855 v 1.401464 c 0,0.264584 -0.02894,0.28112 -0.190169,0.289388 -0.01654,0.02067 -0.01654,0.08682 0,0.107487 0.09922,-0.0041 0.194304,-0.0083 0.318327,-0.0083 0.136426,0 0.243913,0.0041 0.343131,0.0083 0.02067,-0.02067 0.02067,-0.08682 0,-0.107487 -0.177767,-0.0124 -0.219107,-0.0248 -0.219107,-0.289388 z m 0.669726,-0.508496 c 0.06201,-0.359668 0.285254,-0.388606 0.359668,-0.388606 0.11989,0 0.264584,0.06615 0.264584,0.334863 0,0.02894 -0.0124,0.04547 -0.04547,0.04547 z m 0.835091,0.599447 c -0.119889,0.124023 -0.210839,0.173633 -0.396874,0.173633 -0.111622,0 -0.248047,-0.06615 -0.343132,-0.227377 -0.06615,-0.107487 -0.103353,-0.252181 -0.103353,-0.438216 l 0.847494,0.0083 c 0.03721,0 0.05788,-0.02067 0.05788,-0.05374 0,-0.268717 -0.09508,-0.553971 -0.537435,-0.553971 -0.276985,0 -0.636653,0.264583 -0.636653,0.748274 0,0.177767 0.04547,0.347266 0.152962,0.467155 0.107487,0.128158 0.256315,0.206706 0.483691,0.206706 0.243913,0 0.413412,-0.111621 0.541569,-0.276986 -0.0083,-0.03307 -0.02894,-0.04961 -0.06615,-0.05374 z m 1.480014,0.0083 c -0.0124,-0.02894 -0.03721,-0.04134 -0.06615,-0.04547 -0.107487,0.14056 -0.243913,0.21084 -0.380339,0.21084 -0.235644,0 -0.425813,-0.235645 -0.425813,-0.607715 0,-0.347266 0.148828,-0.558106 0.359667,-0.558106 0.19017,0 0.214974,0.111622 0.227377,0.223243 0.0083,0.08268 0.05374,0.111621 0.119889,0.111621 0.06615,0 0.157096,-0.04134 0.157096,-0.14056 0,-0.173633 -0.181901,-0.301791 -0.487825,-0.301791 -0.314193,0 -0.65319,0.285254 -0.65319,0.735873 0,0.409277 0.23151,0.694531 0.632519,0.694531 0.19017,0 0.359668,-0.06201 0.516765,-0.322461 z m 0.23151,-1.07487 c -0.04547,0 -0.05788,0.03721 -0.05788,0.06201 v 0.04134 c 0,0.01654 0.0041,0.02067 0.01654,0.02067 h 0.186036 v 0.959114 c 0,0.223242 0.09922,0.314193 0.248046,0.314193 0.144694,0 0.301791,-0.07028 0.425814,-0.21084 -0.0041,-0.03307 -0.0248,-0.04961 -0.05374,-0.05374 -0.08268,0.06201 -0.177767,0.08682 -0.26045,0.08682 -0.08682,0 -0.107487,-0.09508 -0.107487,-0.289388 v -0.806152 h 0.33073 c 0.03307,0 0.07855,-0.0124 0.07855,-0.04134 v -0.06201 c 0,-0.0124 -0.0124,-0.02067 -0.02894,-0.02067 h -0.380339 v -0.124023 c 0,-0.206706 0.0124,-0.334863 0.0124,-0.334863 0,-0.01654 -0.0083,-0.02894 -0.0248,-0.02894 -0.0124,0 -0.04134,0.01654 -0.07028,0.02894 -0.03307,0.02067 -0.06615,0.03721 -0.107487,0.04547 -0.03721,0.0124 -0.07028,0.02481 -0.07028,0.04548 0,0.03721 0.0083,0.01654 0.0083,0.367936 z m 1.152385,-0.541569 c 0,0.08268 0.07855,0.165365 0.152962,0.165365 0.09095,0 0.165364,-0.08268 0.165364,-0.152962 0,-0.07441 -0.06615,-0.165365 -0.152962,-0.165365 -0.07441,0 -0.165364,0.07855 -0.165364,0.152962 z m 0.289387,1.51722 v -0.632519 c 0,-0.157096 0.0124,-0.363802 0.0124,-0.363802 0,-0.0124 -0.01654,-0.02067 -0.04134,-0.02067 -0.08682,0.03721 -0.214974,0.06201 -0.434082,0.09095 -0.0083,0.02067 0,0.07028 0.0041,0.09095 0.177767,0.01654 0.206706,0.03307 0.206706,0.214974 v 0.620118 c 0,0.264583 -0.03307,0.272851 -0.227377,0.289388 -0.02067,0.02067 -0.02067,0.08682 0,0.107487 0.103353,-0.0041 0.227377,-0.0083 0.355534,-0.0083 0.128158,0 0.248047,0.0041 0.355534,0.0083 0.01654,-0.02067 0.01654,-0.08682 0,-0.107487 -0.194303,-0.0124 -0.23151,-0.02481 -0.23151,-0.289388 z m 0.418579,-0.264583 c 0,0.326595 0.214975,0.686263 0.665593,0.686263 0.202572,0 0.359668,-0.07441 0.467155,-0.177767 0.144694,-0.14056 0.206706,-0.343131 0.206706,-0.537435 0,-0.330729 -0.181901,-0.715202 -0.665593,-0.715202 -0.21084,0 -0.384472,0.08682 -0.500228,0.223243 -0.115755,0.136425 -0.173633,0.322461 -0.173633,0.520898 z m 0.624252,-0.632519 c 0.272851,0 0.44235,0.248046 0.44235,0.706933 0,0.401009 -0.206706,0.500228 -0.355534,0.500228 -0.330729,0 -0.438216,-0.401009 -0.438216,-0.644922 0,-0.276986 0.06615,-0.562239 0.3514,-0.562239 z m 1.428336,0.148828 c -0.01654,0.02067 -0.03721,0.02894 -0.03721,0 -0.0041,-0.08682 -0.0083,-0.21084 -0.0248,-0.243913 -0.0041,-0.01654 -0.0124,-0.02481 -0.03721,-0.02481 -0.09095,0.03721 -0.173633,0.06201 -0.392741,0.09095 -0.0041,0.02067 0,0.07028 0.0083,0.09095 0.169498,0.01654 0.206705,0.03307 0.206705,0.214974 v 0.620118 c 0,0.260449 -0.03307,0.272851 -0.223242,0.289388 -0.02067,0.02067 -0.02067,0.08682 0,0.107487 0.09508,-0.0041 0.223242,-0.0083 0.3514,-0.0083 0.124024,0 0.219108,0.0041 0.314193,0.0083 0.02067,-0.02067 0.02067,-0.08682 0,-0.107487 -0.161231,-0.01654 -0.190169,-0.02894 -0.190169,-0.289388 V 68.71262 c 0,-0.06615 0.0248,-0.103353 0.05374,-0.132292 0.119889,-0.119889 0.260449,-0.190169 0.384473,-0.190169 0.06615,0 0.132291,0.04134 0.169498,0.115755 0.03307,0.06201 0.03721,0.148828 0.03721,0.243913 v 0.483692 c 0,0.260449 -0.02894,0.272851 -0.194303,0.289388 -0.01654,0.02067 -0.01654,0.08682 0,0.107487 0.09508,-0.0041 0.194303,-0.0083 0.322461,-0.0083 0.128157,0 0.243913,0.0041 0.338997,0.0083 0.01654,-0.02067 0.01654,-0.08682 0,-0.107487 -0.177767,-0.01654 -0.214973,-0.02894 -0.214973,-0.289388 v -0.47129 c 0,-0.177766 -0.0124,-0.330729 -0.08682,-0.425813 -0.05374,-0.07028 -0.148828,-0.111621 -0.260449,-0.111621 -0.157097,0 -0.334863,0.04134 -0.525033,0.260449 z m 0,0"
       style="fill:#f5a623;fill-opacity:1;fill-rule:nonzero;stroke:none;stroke-width:0.29126"
       aria-label="DifuseRefection" />
    <path
       id="path66"
       d="m 136.78552,68.093535 c 0.19431,0 0.42168,0.07028 0.42168,0.44235 0,0.401009 -0.22324,0.487826 -0.5333,0.487826 h -0.15296 v -0.727604 c 0,-0.09095 0.0413,-0.202572 0.26458,-0.202572 z m -0.26458,1.575098 v -0.537435 c 0.26872,0 0.33073,0.04961 0.37207,0.119889 l 0.34313,0.553971 c 0.0909,0.148829 0.22738,0.285254 0.41755,0.285254 0.0496,0 0.10335,-0.0083 0.13229,-0.0248 0.0124,-0.02067 0.0124,-0.04961 0,-0.07441 -0.1447,0 -0.22324,-0.107487 -0.30593,-0.243913 l -0.40101,-0.669727 c 0.13643,-0.04547 0.42168,-0.21084 0.42168,-0.541569 0,-0.16123 -0.0537,-0.289388 -0.1695,-0.396875 -0.14882,-0.144694 -0.34726,-0.152962 -0.54983,-0.152962 -0.14883,0 -0.28112,0.02067 -0.39688,0.02067 -0.11162,0 -0.26045,-0.0041 -0.40927,-0.0083 -0.0207,0.02067 -0.0207,0.08682 0,0.107487 0.22324,0.0083 0.27698,0.02481 0.27698,0.289388 v 1.273308 c 0,0.264583 -0.0537,0.281119 -0.27698,0.289388 -0.0207,0.02067 -0.0207,0.08682 0,0.107487 0.14469,-0.0041 0.29352,-0.0083 0.41341,-0.0083 0.11989,0 0.26871,0.0041 0.40927,0.0083 0.0207,-0.02067 0.0207,-0.08682 0,-0.107487 -0.22324,-0.0083 -0.27698,-0.02481 -0.27698,-0.289388 z m 1.65778,-0.508496 c 0.062,-0.359668 0.28525,-0.388607 0.35967,-0.388607 0.11989,0 0.26458,0.06615 0.26458,0.334863 0,0.02894 -0.0124,0.04547 -0.0455,0.04547 z m 0.83509,0.599446 c -0.11989,0.124024 -0.21084,0.173633 -0.39688,0.173633 -0.11162,0 -0.24804,-0.06615 -0.34313,-0.227376 -0.0661,-0.107487 -0.10335,-0.252181 -0.10335,-0.438216 l 0.84749,0.0083 c 0.0372,0 0.0579,-0.02067 0.0579,-0.05374 0,-0.268717 -0.0951,-0.553971 -0.53743,-0.553971 -0.27699,0 -0.63666,0.264583 -0.63666,0.748275 0,0.177767 0.0455,0.347265 0.15296,0.467155 0.10749,0.128157 0.25632,0.206705 0.4837,0.206705 0.24391,0 0.41341,-0.111621 0.54157,-0.276985 -0.008,-0.03307 -0.0289,-0.04961 -0.0661,-0.05374 z m 0.75137,-0.09095 v -0.851628 h 0.29353 c 0.0289,0 0.0744,-0.0124 0.0744,-0.04134 v -0.06201 c 0,-0.0124 -0.0124,-0.02067 -0.0248,-0.02067 h -0.34313 v -0.181901 c 0,-0.487826 0.14469,-0.566374 0.24804,-0.566374 0.0951,0 0.14883,0.04134 0.19017,0.152962 0.0289,0.05374 0.062,0.09922 0.12816,0.09922 0.0537,0 0.13229,-0.06615 0.13229,-0.128158 0,-0.05374 -0.0372,-0.111621 -0.10335,-0.165364 -0.0827,-0.05374 -0.16537,-0.06615 -0.28526,-0.06615 -0.26871,0 -0.56224,0.23151 -0.56224,0.727604 v 0.128158 h -0.16123 c -0.0579,0 -0.0744,0.03721 -0.0744,0.06201 v 0.04134 c 0,0.01654 0.004,0.02067 0.0165,0.02067 h 0.21911 v 0.851628 c 0,0.264583 -0.0496,0.276985 -0.22325,0.289388 -0.0207,0.02067 -0.0207,0.08682 0,0.107487 0.11162,-0.0041 0.22325,-0.0083 0.3514,-0.0083 0.12403,0 0.27699,0.0041 0.38861,0.0083 0.0207,-0.02067 0.0207,-0.08682 0,-0.107487 -0.24805,-0.0124 -0.26458,-0.02481 -0.26458,-0.289388 z m 0.98496,-0.748275 c -0.004,-0.128158 -0.008,-0.21084 -0.0248,-0.243913 -0.004,-0.01654 -0.0124,-0.0248 -0.0372,-0.0248 -0.0909,0.03721 -0.17364,0.06201 -0.39274,0.09095 -0.004,0.02067 0,0.07028 0.008,0.09095 0.1695,0.01654 0.20671,0.03307 0.20671,0.214974 v 0.620117 c 0,0.264583 -0.0372,0.276985 -0.23564,0.289388 -0.0207,0.02067 -0.0207,0.08682 0,0.107487 0.11162,-0.0041 0.23564,-0.0083 0.3638,-0.0083 0.12402,0 0.27285,0.0041 0.38447,0.0083 0.0165,-0.02067 0.0165,-0.08682 0,-0.107487 -0.22324,-0.01654 -0.26045,-0.02481 -0.26045,-0.289388 v -0.44235 c 0,-0.08268 0.0372,-0.152963 0.0744,-0.21084 0.0372,-0.05374 0.10748,-0.157097 0.14469,-0.157097 0.0289,0 0.0579,0.0083 0.0827,0.04134 0.0248,0.03307 0.062,0.07442 0.11576,0.07442 0.0786,0 0.14883,-0.07855 0.14883,-0.161231 0,-0.05788 -0.0579,-0.152962 -0.19017,-0.152962 -0.14883,0 -0.28112,0.14056 -0.3514,0.264583 -0.0207,0.03721 -0.0372,0.0124 -0.0372,-0.0041 z m 1.55339,0.396875 v 0.417546 c 0,0.04134 -0.0165,0.06614 -0.0413,0.08268 -0.0827,0.06615 -0.1943,0.14056 -0.28112,0.14056 -0.16123,0 -0.22738,-0.128158 -0.22738,-0.223242 0,-0.144694 0.0661,-0.289388 0.30179,-0.3514 z m 0,0.587044 c 0.0207,0.09922 0.0537,0.186035 0.21498,0.186035 0.11988,0 0.23564,-0.05374 0.30179,-0.119889 -0.008,-0.03721 -0.0207,-0.06615 -0.0538,-0.08682 -0.0248,0.02067 -0.0786,0.05374 -0.11989,0.05374 -0.0909,0 -0.0951,-0.124023 -0.0951,-0.272851 v -0.467155 c 0,-0.450619 -0.24805,-0.537435 -0.47956,-0.537435 -0.26045,0 -0.52503,0.173633 -0.52503,0.355534 0,0.07441 0.0413,0.111621 0.11162,0.111621 0.0951,0 0.14883,-0.06615 0.14883,-0.107487 0,-0.02067 0,-0.04134 -0.008,-0.05788 -0.004,-0.0083 -0.004,-0.02481 -0.004,-0.06201 0,-0.09922 0.13229,-0.132291 0.25218,-0.132291 0.10748,0 0.25631,0.05374 0.25631,0.413411 0,0.02067 -0.008,0.03307 -0.0165,0.03721 l -0.27285,0.06615 c -0.30592,0.07855 -0.52503,0.243913 -0.52503,0.463021 0,0.260449 0.17777,0.343131 0.40101,0.343131 0.10749,0 0.2067,-0.0248 0.34313,-0.136425 l 0.0661,-0.04961 z m 1.78697,-0.136426 c -0.0124,-0.02894 -0.0372,-0.04134 -0.0661,-0.04547 -0.10749,0.14056 -0.24392,0.21084 -0.38034,0.21084 -0.23565,0 -0.42582,-0.235644 -0.42582,-0.607715 0,-0.347265 0.14883,-0.558105 0.35967,-0.558105 0.19017,0 0.21498,0.111621 0.22738,0.223242 0.008,0.08268 0.0537,0.111621 0.11989,0.111621 0.0661,0 0.15709,-0.04134 0.15709,-0.14056 0,-0.173633 -0.1819,-0.30179 -0.48782,-0.30179 -0.31419,0 -0.65319,0.285254 -0.65319,0.735872 0,0.409277 0.23151,0.694531 0.63252,0.694531 0.19017,0 0.35967,-0.06201 0.51676,-0.322461 z m 0.23151,-1.074869 c -0.0455,0 -0.0579,0.03721 -0.0579,0.06201 v 0.04134 c 0,0.01654 0.004,0.02067 0.0165,0.02067 h 0.18604 v 0.959115 c 0,0.223242 0.0992,0.314192 0.24804,0.314192 0.1447,0 0.30179,-0.07028 0.42582,-0.21084 -0.004,-0.03307 -0.0248,-0.04961 -0.0538,-0.05374 -0.0827,0.06201 -0.17776,0.08682 -0.26044,0.08682 -0.0868,0 -0.10749,-0.09508 -0.10749,-0.289388 v -0.806152 h 0.33073 c 0.0331,0 0.0786,-0.0124 0.0786,-0.04134 v -0.06201 c 0,-0.0124 -0.0124,-0.02067 -0.0289,-0.02067 h -0.38034 v -0.124024 c 0,-0.206705 0.0124,-0.334863 0.0124,-0.334863 0,-0.01654 -0.008,-0.02894 -0.0248,-0.02894 -0.0124,0 -0.0413,0.01654 -0.0703,0.02894 -0.0331,0.02067 -0.0661,0.03721 -0.10749,0.04548 -0.0372,0.0124 -0.0703,0.0248 -0.0703,0.04547 0,0.03721 0.008,0.01654 0.008,0.367937 z m 1.15239,-0.541569 c 0,0.08268 0.0786,0.165364 0.15296,0.165364 0.0909,0 0.16536,-0.08268 0.16536,-0.152962 0,-0.07441 -0.0661,-0.165365 -0.15296,-0.165365 -0.0744,0 -0.16536,0.07855 -0.16536,0.152963 z m 0.28939,1.51722 v -0.63252 c 0,-0.157096 0.0124,-0.363802 0.0124,-0.363802 0,-0.0124 -0.0165,-0.02067 -0.0413,-0.02067 -0.0868,0.03721 -0.21498,0.06201 -0.43409,0.09095 -0.008,0.02067 0,0.07028 0.004,0.09095 0.17776,0.01654 0.2067,0.03307 0.2067,0.214974 v 0.620117 c 0,0.264583 -0.0331,0.272851 -0.22737,0.289388 -0.0207,0.02067 -0.0207,0.08682 0,0.107487 0.10335,-0.0041 0.22737,-0.0083 0.35553,-0.0083 0.12816,0 0.24805,0.0041 0.35553,0.0083 0.0165,-0.02067 0.0165,-0.08682 0,-0.107487 -0.1943,-0.0124 -0.23151,-0.02481 -0.23151,-0.289388 z m 0.41961,-0.264584 c 0,0.326595 0.21497,0.686263 0.66559,0.686263 0.20257,0 0.35967,-0.07441 0.46715,-0.177767 0.1447,-0.140559 0.20671,-0.343131 0.20671,-0.537434 0,-0.33073 -0.1819,-0.715202 -0.66559,-0.715202 -0.21084,0 -0.38447,0.08682 -0.50023,0.223242 -0.11575,0.136426 -0.17363,0.322461 -0.17363,0.520898 z m 0.62425,-0.632519 c 0.27285,0 0.44235,0.248047 0.44235,0.706933 0,0.40101 -0.20671,0.500228 -0.35553,0.500228 -0.33073,0 -0.43822,-0.401009 -0.43822,-0.644922 0,-0.276985 0.0661,-0.562239 0.3514,-0.562239 z m 1.4273,0.148828 c -0.0165,0.02067 -0.0372,0.02894 -0.0372,0 -0.004,-0.08682 -0.008,-0.21084 -0.0248,-0.243913 -0.004,-0.01654 -0.0124,-0.0248 -0.0372,-0.0248 -0.0909,0.03721 -0.17363,0.06201 -0.39274,0.09095 -0.004,0.02067 0,0.07028 0.008,0.09095 0.1695,0.01654 0.20671,0.03307 0.20671,0.214974 v 0.620117 c 0,0.260449 -0.0331,0.272851 -0.22324,0.289388 -0.0207,0.02067 -0.0207,0.08682 0,0.107487 0.0951,-0.0041 0.22324,-0.0083 0.3514,-0.0083 0.12402,0 0.2191,0.0041 0.31419,0.0083 0.0207,-0.02067 0.0207,-0.08682 0,-0.107487 -0.16123,-0.01654 -0.19017,-0.02894 -0.19017,-0.289388 v -0.520899 c 0,-0.06615 0.0248,-0.103353 0.0537,-0.132291 0.11989,-0.11989 0.26045,-0.19017 0.38448,-0.19017 0.0661,0 0.13229,0.04134 0.16949,0.115756 0.0331,0.06201 0.0372,0.148828 0.0372,0.243912 v 0.483692 c 0,0.260449 -0.0289,0.272851 -0.1943,0.289388 -0.0165,0.02067 -0.0165,0.08682 0,0.107487 0.0951,-0.0041 0.1943,-0.0083 0.32246,-0.0083 0.12816,0 0.24391,0.0041 0.339,0.0083 0.0165,-0.02067 0.0165,-0.08682 0,-0.107487 -0.17777,-0.01654 -0.21498,-0.02894 -0.21498,-0.289388 v -0.471289 c 0,-0.177767 -0.0124,-0.330729 -0.0868,-0.425814 -0.0538,-0.07028 -0.14883,-0.111621 -0.26045,-0.111621 -0.1571,0 -0.33487,0.04134 -0.52504,0.260449 z m 0,0"
       style="fill:#808080;fill-opacity:1;fill-rule:nonzero;stroke:none;stroke-width:0.29126"
       aria-label="Refraction" />
    <path
       id="path67"
       d="m 151.09886,69.317233 v 0.417546 c 0,0.04134 -0.0165,0.06614 -0.0413,0.08268 -0.0827,0.06615 -0.19431,0.14056 -0.28112,0.14056 -0.16123,0 -0.22738,-0.128158 -0.22738,-0.223242 0,-0.144694 0.0661,-0.289388 0.30179,-0.3514 z m 0,0.587044 c 0.0207,0.09922 0.0537,0.186035 0.21497,0.186035 0.11989,0 0.23565,-0.05374 0.30179,-0.119889 -0.008,-0.03721 -0.0207,-0.06615 -0.0537,-0.08682 -0.0248,0.02067 -0.0786,0.05374 -0.11989,0.05374 -0.0909,0 -0.0951,-0.124023 -0.0951,-0.272851 v -0.467155 c 0,-0.450619 -0.24805,-0.537435 -0.47956,-0.537435 -0.26045,0 -0.52503,0.173633 -0.52503,0.355534 0,0.07441 0.0413,0.111621 0.11162,0.111621 0.0951,0 0.14883,-0.06615 0.14883,-0.107487 0,-0.02067 0,-0.04134 -0.008,-0.05788 -0.004,-0.0083 -0.004,-0.02481 -0.004,-0.06201 0,-0.09922 0.13229,-0.132291 0.25218,-0.132291 0.10749,0 0.25632,0.05374 0.25632,0.413411 0,0.02067 -0.008,0.03307 -0.0165,0.03721 l -0.27285,0.06615 c -0.30592,0.07855 -0.52503,0.243913 -0.52503,0.463021 0,0.260449 0.17776,0.343131 0.40101,0.343131 0.10748,0 0.2067,-0.0248 0.34313,-0.136425 l 0.0661,-0.04961 z m 1.10484,-0.983919 c -0.0165,0.02067 -0.0372,0.02894 -0.0372,0 -0.004,-0.08682 -0.008,-0.21084 -0.0248,-0.243913 -0.004,-0.01654 -0.0124,-0.0248 -0.0372,-0.0248 -0.0909,0.03721 -0.17363,0.06201 -0.39274,0.09095 -0.004,0.02067 0,0.07028 0.008,0.09095 0.1695,0.01654 0.20671,0.03307 0.20671,0.214974 v 0.620117 c 0,0.260449 -0.0331,0.272851 -0.22325,0.289388 -0.0207,0.02067 -0.0207,0.08682 0,0.107487 0.0951,-0.0041 0.22325,-0.0083 0.3514,-0.0083 0.12403,0 0.21911,0.0041 0.3142,0.0083 0.0207,-0.02067 0.0207,-0.08682 0,-0.107487 -0.16123,-0.01654 -0.19017,-0.02894 -0.19017,-0.289388 v -0.520899 c 0,-0.06615 0.0248,-0.103353 0.0537,-0.132291 0.11989,-0.11989 0.26045,-0.19017 0.38447,-0.19017 0.0661,0 0.13229,0.04134 0.1695,0.115756 0.0331,0.06201 0.0372,0.148828 0.0372,0.243912 v 0.483692 c 0,0.260449 -0.0289,0.272851 -0.19431,0.289388 -0.0165,0.02067 -0.0165,0.08682 0,0.107487 0.0951,-0.0041 0.19431,-0.0083 0.32247,-0.0083 0.12815,0 0.24391,0.0041 0.33899,0.0083 0.0165,-0.02067 0.0165,-0.08682 0,-0.107487 -0.17776,-0.01654 -0.21497,-0.02894 -0.21497,-0.289388 v -0.471289 c 0,-0.177767 -0.0124,-0.330729 -0.0868,-0.425814 -0.0537,-0.07028 -0.14883,-0.111621 -0.26045,-0.111621 -0.15709,0 -0.33486,0.04134 -0.52503,0.260449 z m 2.23449,0.744141 c 0,0.05788 -0.004,0.08268 -0.0496,0.124023 -0.11575,0.09922 -0.21911,0.152962 -0.29766,0.152962 -0.17363,0 -0.3514,-0.190169 -0.3514,-0.587044 0,-0.227376 0.0455,-0.355534 0.091,-0.42168 0.0992,-0.148828 0.23564,-0.16123 0.29765,-0.16123 0.11576,0 0.1943,0.04134 0.25632,0.115755 0.0455,0.04961 0.0537,0.07441 0.0537,0.173633 z m -0.0331,0.235644 c 0.0165,-0.01654 0.0455,-0.02067 0.0455,0 0.0124,0.07855 0.0372,0.190169 0.0372,0.190169 0.0248,0.0083 0.0413,0.0041 0.0579,0 0.0703,-0.05788 0.1819,-0.107487 0.3762,-0.128157 0.0207,-0.02067 0.0207,-0.06615 0,-0.08682 -0.20257,-0.01654 -0.23151,-0.07441 -0.23151,-0.23151 v -1.438672 c 0,-0.206706 0.0124,-0.334863 0.0124,-0.334863 0,-0.02067 -0.0124,-0.03307 -0.0413,-0.03307 -0.0786,0.03307 -0.31832,0.07855 -0.44648,0.08682 -0.004,0.02481 0,0.07441 0.0207,0.09508 0.16536,0.0083 0.20257,-0.0041 0.20257,0.260449 v 0.409278 c 0,0.02067 -0.004,0.0248 -0.0289,0.0248 -0.0124,0 -0.14056,-0.05374 -0.24805,-0.05374 -0.2067,0 -0.34726,0.07028 -0.47542,0.194303 -0.13643,0.136426 -0.21911,0.322461 -0.21911,0.558106 0,0.388606 0.19844,0.677994 0.54157,0.677994 0.12402,0 0.23978,-0.06615 0.39688,-0.190169 z m 0,0"
       style="fill:#000000;fill-opacity:1;fill-rule:nonzero;stroke:none;stroke-width:0.29126"
       aria-label="and" />
    <path
       id="path68"
       d="m 156.57966,69.156002 c -0.0703,0 -0.0909,-0.0083 -0.0785,-0.04134 l 0.32246,-0.822688 h 0.0207 l 0.29765,0.864029 z m -0.34313,0.649056 0.17364,-0.458886 c 0.0165,-0.04134 0.0372,-0.05374 0.11162,-0.05374 h 0.67386 l 0.1819,0.537435 c 0.0372,0.107487 -0.0827,0.119889 -0.23565,0.128158 -0.0165,0.02067 -0.0165,0.08682 0,0.107487 0.11989,-0.0041 0.29353,-0.0083 0.41755,-0.0083 0.13229,0 0.25218,0.0041 0.3638,0.0083 0.0165,-0.02067 0.0165,-0.08682 0,-0.107487 -0.12402,-0.0124 -0.23151,-0.02067 -0.28525,-0.173633 l -0.65733,-1.819011 c -0.0455,0.02894 -0.13229,0.06201 -0.17363,0.06201 l -0.72347,1.70739 c -0.0827,0.194303 -0.17777,0.214973 -0.31833,0.223242 -0.0165,0.02067 -0.0165,0.08682 0,0.107487 0.0827,-0.0041 0.19017,-0.0083 0.28526,-0.0083 0.12815,0 0.28939,0.0041 0.40514,0.0083 0.0207,-0.02067 0.0207,-0.08682 0,-0.107487 -0.11989,-0.0083 -0.26872,-0.02067 -0.21911,-0.152963 z m 2.27067,-0.901237 c 0.0827,-0.07441 0.17776,-0.103352 0.26871,-0.103352 0.19431,0 0.35554,0.235644 0.35554,0.545703 0,0.359668 -0.14883,0.636653 -0.45062,0.636653 -0.0992,0 -0.16537,-0.07028 -0.22738,-0.152962 v -0.79375 c 0,-0.06615 0.0124,-0.09922 0.0538,-0.132292 z m -0.0248,-0.09922 c -0.0165,0.02067 -0.0289,0.0124 -0.0289,-0.01654 v -0.58291 c 0,-0.206705 0.0124,-0.334863 0.0124,-0.334863 0,-0.02067 -0.0124,-0.03307 -0.0413,-0.03307 -0.0786,0.03307 -0.31832,0.07855 -0.44648,0.08682 -0.004,0.02481 0,0.07442 0.0207,0.09508 0.16536,0.0083 0.20257,-0.0041 0.20257,0.260449 v 1.550293 c 0,0.124024 -0.004,0.181901 -0.0124,0.227377 0.0165,0.0248 0.0331,0.03721 0.0703,0.03721 0.0165,-0.01654 0.0496,-0.04548 0.0744,-0.07442 0.0331,-0.03721 0.0538,-0.03721 0.0868,-0.0124 0.0744,0.06201 0.1695,0.08268 0.28112,0.08268 0.32246,0 0.7028,-0.297656 0.7028,-0.802018 0,-0.388607 -0.28939,-0.628385 -0.56224,-0.628385 -0.14056,0 -0.26045,0.05374 -0.35967,0.144694 z m 1.19063,0.81442 c 0.0124,0.157097 0.0207,0.305925 0.0207,0.438216 0.0331,-0.0083 0.0661,-0.0083 0.0827,-0.0083 0.0207,0 0.0413,0 0.062,0.0041 0.0868,0.02481 0.1695,0.03721 0.28939,0.03721 0.17776,0 0.50436,-0.08682 0.50436,-0.401009 0,-0.214974 -0.1571,-0.343131 -0.37207,-0.421679 -0.19017,-0.07441 -0.31833,-0.124024 -0.31833,-0.297657 0,-0.132291 0.11576,-0.202571 0.22325,-0.202571 0.0703,0 0.25631,0.0248 0.29765,0.293522 0.0165,0.02067 0.0827,0.01654 0.0992,0 0.0124,-0.115755 0.0165,-0.235645 0.0207,-0.338998 -0.0992,-0.01654 -0.25218,-0.06201 -0.41754,-0.06201 -0.23565,0 -0.44649,0.152962 -0.44649,0.359668 0,0.23151 0.10335,0.330729 0.34727,0.429948 0.26458,0.107487 0.32659,0.173632 0.32659,0.310058 0,0.157097 -0.15296,0.223242 -0.27285,0.223242 -0.12402,0 -0.1943,-0.04134 -0.22324,-0.07441 -0.0703,-0.07441 -0.10749,-0.214974 -0.12403,-0.293522 -0.0207,-0.02067 -0.0785,-0.01654 -0.0992,0.0041 z m 1.21853,-0.214974 c 0,0.326595 0.21497,0.686263 0.66559,0.686263 0.20257,0 0.35967,-0.07441 0.46715,-0.177767 0.1447,-0.140559 0.20671,-0.343131 0.20671,-0.537434 0,-0.33073 -0.1819,-0.715202 -0.66559,-0.715202 -0.21084,0 -0.38448,0.08682 -0.50023,0.223242 -0.11576,0.136426 -0.17363,0.322461 -0.17363,0.520898 z m 0.62425,-0.632519 c 0.27285,0 0.44235,0.248047 0.44235,0.706933 0,0.40101 -0.20671,0.500228 -0.35554,0.500228 -0.33073,0 -0.43821,-0.401009 -0.43821,-0.644922 0,-0.276985 0.0661,-0.562239 0.3514,-0.562239 z m 1.4025,0.148828 c -0.004,-0.128158 -0.008,-0.21084 -0.0248,-0.243913 -0.004,-0.01654 -0.0124,-0.0248 -0.0372,-0.0248 -0.0909,0.03721 -0.17363,0.06201 -0.39274,0.09095 -0.004,0.02067 0,0.07028 0.008,0.09095 0.1695,0.01654 0.20671,0.03307 0.20671,0.214974 v 0.620117 c 0,0.264583 -0.0372,0.276985 -0.23565,0.289388 -0.0207,0.02067 -0.0207,0.08682 0,0.107487 0.11162,-0.0041 0.23565,-0.0083 0.36381,-0.0083 0.12402,0 0.27285,0.0041 0.38447,0.0083 0.0165,-0.02067 0.0165,-0.08682 0,-0.107487 -0.22324,-0.01654 -0.26045,-0.02481 -0.26045,-0.289388 v -0.44235 c 0,-0.08268 0.0372,-0.152963 0.0744,-0.21084 0.0372,-0.05374 0.10749,-0.157097 0.1447,-0.157097 0.0289,0 0.0579,0.0083 0.0827,0.04134 0.0248,0.03307 0.062,0.07442 0.11575,0.07442 0.0786,0 0.14883,-0.07855 0.14883,-0.161231 0,-0.05788 -0.0579,-0.152962 -0.19017,-0.152962 -0.14882,0 -0.28112,0.14056 -0.3514,0.264583 -0.0207,0.03721 -0.0372,0.0124 -0.0372,-0.0041 z m 1.18235,0.08268 c 0.0827,-0.09922 0.22738,-0.194303 0.31833,-0.194303 0.20257,0 0.38034,0.227376 0.38034,0.587044 0,0.260449 -0.0951,0.587044 -0.45062,0.587044 -0.0579,0 -0.16537,-0.01654 -0.22324,-0.07028 -0.0661,-0.05374 -0.0786,-0.07441 -0.0786,-0.190169 V 69.1436 c 0,-0.06615 0.0124,-0.09509 0.0537,-0.14056 z m -0.062,-0.115755 c -0.004,-0.09509 -0.008,-0.177767 -0.0248,-0.21084 -0.008,-0.01654 -0.0124,-0.0248 -0.0372,-0.0248 -0.0909,0.03721 -0.17363,0.06201 -0.39274,0.09095 -0.008,0.02067 0,0.07028 0.008,0.09095 0.1695,0.01654 0.2067,0.03307 0.2067,0.214974 v 1.360123 c 0,0.26045 -0.0372,0.276986 -0.23151,0.289388 -0.0165,0.01654 -0.0165,0.08268 0,0.103353 0.11162,-0.0041 0.23151,-0.0083 0.35554,-0.0083 0.12815,0 0.28112,0.0041 0.38447,0.0083 0.0207,-0.02067 0.0207,-0.08682 0,-0.103353 -0.22324,-0.01654 -0.26045,-0.02894 -0.26045,-0.289388 v -0.343131 c 0,-0.04134 0.0124,-0.04134 0.0455,-0.02481 0.0785,0.02894 0.17363,0.04961 0.27698,0.04961 0.17777,0 0.33486,-0.05374 0.46716,-0.177767 0.14882,-0.148828 0.23564,-0.343131 0.23564,-0.60358 0,-0.334864 -0.23978,-0.649056 -0.56224,-0.649056 -0.14883,0 -0.31006,0.09922 -0.43822,0.239778 -0.0165,0.02067 -0.0289,0.02067 -0.0331,-0.0124 z m 1.28881,-0.194303 c -0.0455,0 -0.0579,0.03721 -0.0579,0.06201 v 0.04134 c 0,0.01654 0.004,0.02067 0.0165,0.02067 h 0.18604 v 0.959115 c 0,0.223242 0.0992,0.314192 0.24804,0.314192 0.1447,0 0.30179,-0.07028 0.42582,-0.21084 -0.004,-0.03307 -0.0248,-0.04961 -0.0537,-0.05374 -0.0827,0.06201 -0.17776,0.08682 -0.26045,0.08682 -0.0868,0 -0.10748,-0.09508 -0.10748,-0.289388 v -0.806152 h 0.33073 c 0.0331,0 0.0785,-0.0124 0.0785,-0.04134 v -0.06201 c 0,-0.0124 -0.0124,-0.02067 -0.0289,-0.02067 h -0.38033 v -0.124024 c 0,-0.206705 0.0124,-0.334863 0.0124,-0.334863 0,-0.01654 -0.008,-0.02894 -0.0248,-0.02894 -0.0124,0 -0.0413,0.01654 -0.0703,0.02894 -0.0331,0.02067 -0.0661,0.03721 -0.10748,0.04548 -0.0372,0.0124 -0.0703,0.0248 -0.0703,0.04547 0,0.03721 0.008,0.01654 0.008,0.367937 z m 1.15342,-0.541569 c 0,0.08268 0.0785,0.165364 0.15296,0.165364 0.091,0 0.16537,-0.08268 0.16537,-0.152962 0,-0.07441 -0.0662,-0.165365 -0.15297,-0.165365 -0.0744,0 -0.16536,0.07855 -0.16536,0.152963 z m 0.28939,1.51722 v -0.63252 c 0,-0.157096 0.0124,-0.363802 0.0124,-0.363802 0,-0.0124 -0.0165,-0.02067 -0.0413,-0.02067 -0.0868,0.03721 -0.21498,0.06201 -0.43408,0.09095 -0.008,0.02067 0,0.07028 0.004,0.09095 0.17776,0.01654 0.2067,0.03307 0.2067,0.214974 v 0.620117 c 0,0.264583 -0.0331,0.272851 -0.22737,0.289388 -0.0207,0.02067 -0.0207,0.08682 0,0.107487 0.10335,-0.0041 0.22737,-0.0083 0.35553,-0.0083 0.12816,0 0.24805,0.0041 0.35554,0.0083 0.0165,-0.02067 0.0165,-0.08682 0,-0.107487 -0.19431,-0.0124 -0.23152,-0.02481 -0.23152,-0.289388 z m 0.41858,-0.264584 c 0,0.326595 0.21497,0.686263 0.66559,0.686263 0.20257,0 0.35967,-0.07441 0.46715,-0.177767 0.1447,-0.140559 0.20671,-0.343131 0.20671,-0.537434 0,-0.33073 -0.1819,-0.715202 -0.66559,-0.715202 -0.21084,0 -0.38448,0.08682 -0.50023,0.223242 -0.11576,0.136426 -0.17363,0.322461 -0.17363,0.520898 z m 0.62425,-0.632519 c 0.27285,0 0.44235,0.248047 0.44235,0.706933 0,0.40101 -0.20671,0.500228 -0.35554,0.500228 -0.33073,0 -0.43821,-0.401009 -0.43821,-0.644922 0,-0.276985 0.0661,-0.562239 0.3514,-0.562239 z m 1.4273,0.148828 c -0.0165,0.02067 -0.0372,0.02894 -0.0372,0 -0.004,-0.08682 -0.008,-0.21084 -0.0248,-0.243913 -0.004,-0.01654 -0.0124,-0.0248 -0.0372,-0.0248 -0.0909,0.03721 -0.17363,0.06201 -0.39274,0.09095 -0.004,0.02067 0,0.07028 0.008,0.09095 0.1695,0.01654 0.20671,0.03307 0.20671,0.214974 v 0.620117 c 0,0.260449 -0.0331,0.272851 -0.22325,0.289388 -0.0207,0.02067 -0.0207,0.08682 0,0.107487 0.0951,-0.0041 0.22325,-0.0083 0.3514,-0.0083 0.12403,0 0.21911,0.0041 0.3142,0.0083 0.0207,-0.02067 0.0207,-0.08682 0,-0.107487 -0.16123,-0.01654 -0.19017,-0.02894 -0.19017,-0.289388 v -0.520899 c 0,-0.06615 0.0248,-0.103353 0.0537,-0.132291 0.11989,-0.11989 0.26045,-0.19017 0.38447,-0.19017 0.0662,0 0.1323,0.04134 0.1695,0.115756 0.0331,0.06201 0.0372,0.148828 0.0372,0.243912 v 0.483692 c 0,0.260449 -0.0289,0.272851 -0.1943,0.289388 -0.0165,0.02067 -0.0165,0.08682 0,0.107487 0.0951,-0.0041 0.1943,-0.0083 0.32246,-0.0083 0.12815,0 0.24391,0.0041 0.33899,0.0083 0.0165,-0.02067 0.0165,-0.08682 0,-0.107487 -0.17776,-0.01654 -0.21497,-0.02894 -0.21497,-0.289388 v -0.471289 c 0,-0.177767 -0.0124,-0.330729 -0.0868,-0.425814 -0.0537,-0.07028 -0.14882,-0.111621 -0.26045,-0.111621 -0.15709,0 -0.33486,0.04134 -0.52503,0.260449 z m 0,0"
       style="fill:#8c5729;fill-opacity:1;fill-rule:nonzero;stroke:none;stroke-width:0.29126"
       aria-label="Absorption" />
    <path
       id="path69"
       d="m 29.233429,68.052194 c -0.186035,-0.02481 -0.177767,-0.08682 -0.49196,-0.08682 -0.318327,0 -0.60358,0.214974 -0.60358,0.549838 0,0.334863 0.276985,0.487825 0.558105,0.595312 0.190169,0.07441 0.425814,0.161231 0.425814,0.471289 0,0.26045 -0.144694,0.392741 -0.396875,0.392741 -0.297656,0 -0.487826,-0.136426 -0.558106,-0.450618 -0.04134,-0.0124 -0.07441,-0.0083 -0.103353,0.0083 0.0124,0.243913 0.02481,0.326595 0.06201,0.483691 0.202572,0 0.289388,0.07441 0.574642,0.07441 0.14056,0 0.276986,-0.03721 0.388607,-0.107487 0.186035,-0.111621 0.297656,-0.305924 0.297656,-0.508496 0,-0.338997 -0.252181,-0.487825 -0.51263,-0.587044 -0.190169,-0.07028 -0.508496,-0.190169 -0.508496,-0.458887 0,-0.177767 0.16123,-0.355533 0.347265,-0.355533 0.310059,0 0.409278,0.198437 0.47129,0.409277 0.03721,0.0041 0.07855,0 0.107486,-0.02067 -0.0124,-0.152962 -0.02894,-0.239778 -0.05788,-0.409277 z m 0.843359,0.950846 c 0.08268,-0.09922 0.227377,-0.194303 0.318327,-0.194303 0.202572,0 0.380339,0.227376 0.380339,0.587044 0,0.260449 -0.09509,0.587044 -0.450619,0.587044 -0.05788,0 -0.165364,-0.01654 -0.223242,-0.07028 -0.06615,-0.05374 -0.07855,-0.07441 -0.07855,-0.190169 V 69.1436 c 0,-0.06615 0.0124,-0.09509 0.05374,-0.14056 z m -0.06201,-0.115755 c -0.0041,-0.09509 -0.0083,-0.177767 -0.0248,-0.21084 -0.0083,-0.01654 -0.0124,-0.0248 -0.03721,-0.0248 -0.09095,0.03721 -0.173633,0.06201 -0.392741,0.09095 -0.0083,0.02067 0,0.07028 0.0083,0.09095 0.169499,0.01654 0.206706,0.03307 0.206706,0.214974 v 1.360123 c 0,0.26045 -0.03721,0.276986 -0.23151,0.289388 -0.01654,0.01654 -0.01654,0.08268 0,0.103353 0.111621,-0.0041 0.23151,-0.0083 0.355533,-0.0083 0.128158,0 0.28112,0.0041 0.384473,0.0083 0.02067,-0.02067 0.02067,-0.08682 0,-0.103353 -0.223242,-0.01654 -0.260449,-0.02894 -0.260449,-0.289388 v -0.343131 c 0,-0.04134 0.0124,-0.04134 0.04547,-0.02481 0.07855,0.02894 0.173633,0.04961 0.276986,0.04961 0.177767,0 0.334863,-0.05374 0.467155,-0.177767 0.148828,-0.148828 0.235644,-0.343131 0.235644,-0.60358 0,-0.334864 -0.239778,-0.649056 -0.562239,-0.649056 -0.148829,0 -0.310059,0.09922 -0.438217,0.239778 -0.01654,0.02067 -0.02894,0.02067 -0.03307,-0.0124 z m 1.567863,0.272852 c 0.06201,-0.359668 0.285254,-0.388607 0.359667,-0.388607 0.11989,0 0.264584,0.06615 0.264584,0.334863 0,0.02894 -0.0124,0.04547 -0.04547,0.04547 z m 0.835091,0.599446 c -0.11989,0.124024 -0.21084,0.173633 -0.396875,0.173633 -0.111622,0 -0.248047,-0.06615 -0.343132,-0.227376 -0.06615,-0.107487 -0.103353,-0.252181 -0.103353,-0.438216 l 0.847494,0.0083 c 0.03721,0 0.05788,-0.02067 0.05788,-0.05374 0,-0.268717 -0.09508,-0.553971 -0.537436,-0.553971 -0.276985,0 -0.636653,0.264583 -0.636653,0.748275 0,0.177767 0.04547,0.347265 0.152962,0.467155 0.107487,0.128157 0.256315,0.206705 0.483691,0.206705 0.243913,0 0.413412,-0.111621 0.541569,-0.276985 -0.0083,-0.03307 -0.02894,-0.04961 -0.06614,-0.05374 z m 1.478979,0.0083 c -0.0124,-0.02894 -0.03721,-0.04134 -0.06615,-0.04547 -0.107487,0.14056 -0.243912,0.21084 -0.380338,0.21084 -0.235645,0 -0.425814,-0.235644 -0.425814,-0.607715 0,-0.347265 0.148828,-0.558105 0.359668,-0.558105 0.190169,0 0.214974,0.111621 0.227376,0.223242 0.0083,0.08268 0.05374,0.111621 0.119889,0.111621 0.06615,0 0.157097,-0.04134 0.157097,-0.14056 0,-0.173633 -0.181901,-0.30179 -0.487826,-0.30179 -0.314192,0 -0.65319,0.285254 -0.65319,0.735872 0,0.409277 0.231511,0.694531 0.63252,0.694531 0.190169,0 0.359668,-0.06201 0.516764,-0.322461 z m 0.785482,0.322461 c 0.124023,0 0.272851,-0.06614 0.429948,-0.190169 0.01654,-0.01654 0.04134,-0.02067 0.04548,0 0.0124,0.08268 0.03721,0.190169 0.03721,0.190169 0.0248,0.0083 0.04134,0.0041 0.05788,0 0.07028,-0.05788 0.181901,-0.107487 0.376204,-0.128157 0.02067,-0.02067 0.02067,-0.06615 0,-0.08682 -0.202572,-0.01654 -0.23151,-0.07441 -0.23151,-0.23151 v -0.611849 c 0,-0.09509 0.0124,-0.326595 0.0124,-0.326595 0,-0.0083 -0.0083,-0.01654 -0.0248,-0.01654 -0.01654,0 -0.06615,0.0041 -0.111621,0.0041 -0.103353,0 -0.214974,-0.0041 -0.326595,-0.0041 -0.01654,0.01654 -0.01654,0.08268 0,0.103353 0.157096,0.0083 0.198437,0.04547 0.198437,0.256315 v 0.615983 c 0,0.05788 -0.0041,0.08268 -0.04961,0.124023 -0.11989,0.09922 -0.239779,0.152962 -0.318327,0.152962 -0.09508,0 -0.256315,-0.04547 -0.256315,-0.330729 v -0.578776 c 0,-0.09508 0.0124,-0.326595 0.0124,-0.326595 0,-0.0083 -0.0083,-0.01654 -0.0248,-0.01654 -0.0124,0 -0.06201,0.0041 -0.111621,0.0041 -0.09922,0 -0.214974,-0.0041 -0.322461,-0.0041 -0.02067,0.01654 -0.02067,0.08268 0,0.103353 0.152962,0.0124 0.198437,0.04547 0.198437,0.252181 v 0.611849 c 0,0.219108 0.09509,0.434082 0.409278,0.434082 z m 1.299146,-0.421679 c 0,0.264583 -0.03307,0.281119 -0.227377,0.289388 -0.02067,0.02067 -0.02067,0.08682 0,0.107487 0.111621,-0.0041 0.227377,-0.0083 0.355534,-0.0083 0.128158,0 0.248047,0.0041 0.3514,0.0083 0.02067,-0.02067 0.02067,-0.08682 0,-0.107487 -0.194304,-0.0083 -0.227377,-0.02481 -0.227377,-0.289388 v -1.463477 c 0,-0.206706 0.0124,-0.334863 0.0124,-0.334863 0,-0.02067 -0.0124,-0.03307 -0.04134,-0.03307 -0.07855,0.03307 -0.318327,0.07855 -0.446484,0.08682 -0.0041,0.02481 0,0.07441 0.02067,0.09508 0.181901,0.0124 0.202572,0.02067 0.202572,0.260449 z m 1.466577,-0.3514 v 0.417546 c 0,0.04134 -0.01654,0.06614 -0.04134,0.08268 -0.08268,0.06615 -0.194303,0.14056 -0.281119,0.14056 -0.161231,0 -0.227377,-0.128158 -0.227377,-0.223242 0,-0.144694 0.06615,-0.289388 0.301791,-0.3514 z m 0,0.587044 c 0.02067,0.09922 0.05374,0.186035 0.214974,0.186035 0.119889,0 0.235644,-0.05374 0.30179,-0.119889 -0.0083,-0.03721 -0.02067,-0.06615 -0.05374,-0.08682 -0.0248,0.02067 -0.07855,0.05374 -0.119889,0.05374 -0.09095,0 -0.09508,-0.124023 -0.09508,-0.272851 v -0.467155 c 0,-0.450619 -0.248047,-0.537435 -0.479558,-0.537435 -0.260449,0 -0.525032,0.173633 -0.525032,0.355534 0,0.07441 0.04134,0.111621 0.111621,0.111621 0.09508,0 0.148828,-0.06615 0.148828,-0.107487 0,-0.02067 0,-0.04134 -0.0083,-0.05788 -0.0041,-0.0083 -0.0041,-0.02481 -0.0041,-0.06201 0,-0.09922 0.132292,-0.132291 0.252181,-0.132291 0.107487,0 0.256315,0.05374 0.256315,0.413411 0,0.02067 -0.0083,0.03307 -0.01654,0.03721 l -0.272851,0.06615 c -0.305925,0.07855 -0.525033,0.243913 -0.525033,0.463021 0,0.260449 0.177767,0.343131 0.401009,0.343131 0.107487,0 0.206706,-0.0248 0.343132,-0.136425 l 0.06615,-0.04961 z m 1.080037,-0.983919 c -0.0041,-0.128158 -0.0083,-0.21084 -0.0248,-0.243913 -0.0041,-0.01654 -0.0124,-0.0248 -0.03721,-0.0248 -0.09095,0.03721 -0.173633,0.06201 -0.392741,0.09095 -0.0041,0.02067 0,0.07028 0.0083,0.09095 0.169499,0.01654 0.206706,0.03307 0.206706,0.214974 v 0.620117 c 0,0.264583 -0.03721,0.276985 -0.235645,0.289388 -0.02067,0.02067 -0.02067,0.08682 0,0.107487 0.111622,-0.0041 0.235645,-0.0083 0.363802,-0.0083 0.124024,0 0.272852,0.0041 0.384473,0.0083 0.01654,-0.02067 0.01654,-0.08682 0,-0.107487 -0.223242,-0.01654 -0.260449,-0.02481 -0.260449,-0.289388 v -0.44235 c 0,-0.08268 0.03721,-0.152963 0.07441,-0.21084 0.03721,-0.05374 0.107487,-0.157097 0.144694,-0.157097 0.02894,0 0.05788,0.0083 0.08268,0.04134 0.0248,0.03307 0.06201,0.07442 0.115755,0.07442 0.07855,0 0.148829,-0.07855 0.148829,-0.161231 0,-0.05788 -0.05788,-0.152962 -0.19017,-0.152962 -0.148828,0 -0.281119,0.14056 -0.351399,0.264583 -0.02067,0.03721 -0.03721,0.0124 -0.03721,-0.0041 z m 2.282031,-0.826823 c 0.194304,0 0.42168,0.07028 0.42168,0.44235 0,0.401009 -0.223242,0.487826 -0.533301,0.487826 H 40.5454 v -0.727604 c 0,-0.09095 0.04134,-0.202572 0.264584,-0.202572 z M 40.5454,69.668633 v -0.537435 c 0.268717,0 0.330729,0.04961 0.37207,0.119889 l 0.343132,0.553971 c 0.09095,0.148829 0.227376,0.285254 0.417545,0.285254 0.04961,0 0.103353,-0.0083 0.132292,-0.0248 0.0124,-0.02067 0.0124,-0.04961 0,-0.07441 -0.144694,0 -0.223242,-0.107487 -0.305925,-0.243913 l -0.401009,-0.669727 c 0.136426,-0.04547 0.42168,-0.21084 0.42168,-0.541569 0,-0.16123 -0.05374,-0.289388 -0.169499,-0.396875 -0.148828,-0.144694 -0.347265,-0.152962 -0.549837,-0.152962 -0.148828,0 -0.28112,0.02067 -0.396875,0.02067 -0.111621,0 -0.260449,-0.0041 -0.409277,-0.0083 -0.02067,0.02067 -0.02067,0.08682 0,0.107487 0.223242,0.0083 0.276985,0.02481 0.276985,0.289388 v 1.273308 c 0,0.264583 -0.05374,0.281119 -0.276985,0.289388 -0.02067,0.02067 -0.02067,0.08682 0,0.107487 0.144694,-0.0041 0.293522,-0.0083 0.413411,-0.0083 0.11989,0 0.268718,0.0041 0.409278,0.0083 0.02067,-0.02067 0.02067,-0.08682 0,-0.107487 -0.223243,-0.0083 -0.276986,-0.02481 -0.276986,-0.289388 z m 1.658813,-0.508496 c 0.06201,-0.359668 0.285254,-0.388607 0.359668,-0.388607 0.11989,0 0.264584,0.06615 0.264584,0.334863 0,0.02894 -0.0124,0.04547 -0.04548,0.04547 z m 0.835092,0.599446 c -0.11989,0.124024 -0.21084,0.173633 -0.396876,0.173633 -0.11162,0 -0.248046,-0.06615 -0.343131,-0.227376 -0.06615,-0.107487 -0.103353,-0.252181 -0.103353,-0.438216 l 0.847494,0.0083 c 0.03721,0 0.05788,-0.02067 0.05788,-0.05374 0,-0.268717 -0.09508,-0.553971 -0.537435,-0.553971 -0.276985,0 -0.636653,0.264583 -0.636653,0.748275 0,0.177767 0.04548,0.347265 0.152962,0.467155 0.107487,0.128157 0.256315,0.206705 0.483691,0.206705 0.243913,0 0.413412,-0.111621 0.541569,-0.276985 -0.0083,-0.03307 -0.02894,-0.04961 -0.06614,-0.05374 z m 1.630908,-0.09095 v -1.463477 c 0,-0.206706 0,-0.334863 0,-0.334863 0,-0.02067 -0.0124,-0.03307 -0.04134,-0.03307 -0.04134,0.02481 -0.11989,0.06201 -0.169499,0.07441 -0.07028,-0.04961 -0.214974,-0.07441 -0.326595,-0.07441 -0.268717,0 -0.595313,0.23151 -0.595313,0.760677 v 0.09508 h -0.16123 c -0.05788,0 -0.07441,0.03721 -0.07441,0.06201 v 0.04134 c 0,0.01654 0.0041,0.02067 0.01654,0.02067 h 0.210839 v 0.851628 c 0,0.264583 -0.03307,0.276985 -0.206706,0.289388 -0.01653,0.02067 -0.01653,0.08682 0,0.107487 0.107487,-0.0041 0.227377,-0.0083 0.334864,-0.0083 0.115755,0 0.23151,0.0041 0.343132,0.0083 0.02067,-0.02067 0.02067,-0.08682 0,-0.107487 -0.177767,-0.01654 -0.219109,-0.02481 -0.219109,-0.289388 V 68.817 h 0.297656 c 0.0248,0 0.07028,-0.0124 0.07028,-0.04134 v -0.06201 c 0,-0.0124 -0.0083,-0.02067 -0.0248,-0.02067 H 43.77311 v -0.148828 c 0,-0.487826 0.202571,-0.599447 0.305924,-0.599447 0.09508,0 0.21084,0.05374 0.252181,0.157096 0.02067,0.04134 0.04961,0.07441 0.09095,0.08682 0,0.01654 -0.0041,0.04961 -0.0041,0.07855 v 1.401465 c 0,0.264583 -0.02894,0.28112 -0.190169,0.289388 -0.01654,0.02067 -0.01654,0.08682 0,0.107487 0.09922,-0.0041 0.194303,-0.0083 0.318327,-0.0083 0.136425,0 0.243912,0.0041 0.343131,0.0083 0.02067,-0.02067 0.02067,-0.08682 0,-0.107487 -0.177767,-0.0124 -0.219108,-0.02481 -0.219108,-0.289388 z m 0.669726,-0.508496 c 0.06201,-0.359668 0.285254,-0.388607 0.359668,-0.388607 0.11989,0 0.264584,0.06615 0.264584,0.334863 0,0.02894 -0.0124,0.04547 -0.04548,0.04547 z m 0.835092,0.599446 c -0.11989,0.124024 -0.21084,0.173633 -0.396876,0.173633 -0.11162,0 -0.248046,-0.06615 -0.343131,-0.227376 -0.06615,-0.107487 -0.103353,-0.252181 -0.103353,-0.438216 l 0.847494,0.0083 c 0.03721,0 0.05788,-0.02067 0.05788,-0.05374 0,-0.268717 -0.09508,-0.553971 -0.537435,-0.553971 -0.276985,0 -0.636653,0.264583 -0.636653,0.748275 0,0.177767 0.04548,0.347265 0.152962,0.467155 0.107487,0.128157 0.256315,0.206705 0.483691,0.206705 0.243913,0 0.413412,-0.111621 0.541569,-0.276985 -0.0083,-0.03307 -0.02894,-0.04961 -0.06615,-0.05374 z m 1.480012,0.0083 c -0.0124,-0.02894 -0.03721,-0.04134 -0.06614,-0.04547 -0.107487,0.14056 -0.243913,0.21084 -0.380339,0.21084 -0.235644,0 -0.425814,-0.235644 -0.425814,-0.607715 0,-0.347265 0.148828,-0.558105 0.359668,-0.558105 0.19017,0 0.214974,0.111621 0.227377,0.223242 0.0083,0.08268 0.05374,0.111621 0.119889,0.111621 0.06615,0 0.157096,-0.04134 0.157096,-0.14056 0,-0.173633 -0.181901,-0.30179 -0.487825,-0.30179 -0.314193,0 -0.65319,0.285254 -0.65319,0.735872 0,0.409277 0.23151,0.694531 0.632519,0.694531 0.19017,0 0.359668,-0.06201 0.516764,-0.322461 z m 0.231511,-1.074869 c -0.04547,0 -0.05788,0.03721 -0.05788,0.06201 v 0.04134 c 0,0.01654 0.0041,0.02067 0.01654,0.02067 h 0.186035 v 0.959115 c 0,0.223242 0.09922,0.314192 0.248047,0.314192 0.144694,0 0.30179,-0.07028 0.425814,-0.21084 -0.0041,-0.03307 -0.0248,-0.04961 -0.05374,-0.05374 -0.08268,0.06201 -0.177767,0.08682 -0.260449,0.08682 -0.08682,0 -0.107487,-0.09508 -0.107487,-0.289388 v -0.806152 h 0.330729 c 0.03307,0 0.07855,-0.0124 0.07855,-0.04134 v -0.06201 c 0,-0.0124 -0.0124,-0.02067 -0.02894,-0.02067 h -0.380339 v -0.124024 c 0,-0.206705 0.0124,-0.334863 0.0124,-0.334863 0,-0.01654 -0.0083,-0.02894 -0.0248,-0.02894 -0.0124,0 -0.04134,0.01654 -0.07028,0.02894 -0.03307,0.02067 -0.06614,0.03721 -0.107487,0.04548 -0.03721,0.0124 -0.07028,0.0248 -0.07028,0.04547 0,0.03721 0.0083,0.01654 0.0083,0.367937 z m 1.152384,-0.541569 c 0,0.08268 0.07855,0.165364 0.152963,0.165364 0.09095,0 0.165364,-0.08268 0.165364,-0.152962 0,-0.07441 -0.06615,-0.165365 -0.152962,-0.165365 -0.07441,0 -0.165365,0.07855 -0.165365,0.152963 z m 0.289389,1.51722 v -0.63252 c 0,-0.157096 0.0124,-0.363802 0.0124,-0.363802 0,-0.0124 -0.01654,-0.02067 -0.04134,-0.02067 -0.08682,0.03721 -0.214974,0.06201 -0.434082,0.09095 -0.0083,0.02067 0,0.07028 0.0041,0.09095 0.177767,0.01654 0.206706,0.03307 0.206706,0.214974 v 0.620117 c 0,0.264583 -0.03307,0.272851 -0.227376,0.289388 -0.02067,0.02067 -0.02067,0.08682 0,0.107487 0.103353,-0.0041 0.227376,-0.0083 0.355533,-0.0083 0.128158,0 0.248047,0.0041 0.355534,0.0083 0.01654,-0.02067 0.01654,-0.08682 0,-0.107487 -0.194303,-0.0124 -0.23151,-0.02481 -0.23151,-0.289388 z m 0.419612,-0.264584 c 0,0.326595 0.214974,0.686263 0.665593,0.686263 0.202571,0 0.359667,-0.07441 0.467154,-0.177767 0.144695,-0.140559 0.206706,-0.343131 0.206706,-0.537434 0,-0.33073 -0.181901,-0.715202 -0.665592,-0.715202 -0.21084,0 -0.384473,0.08682 -0.500228,0.223242 -0.115755,0.136426 -0.173633,0.322461 -0.173633,0.520898 z M 50.37219,68.77153 c 0.272852,0 0.442351,0.248047 0.442351,0.706933 0,0.40101 -0.206706,0.500228 -0.355534,0.500228 -0.330729,0 -0.438216,-0.401009 -0.438216,-0.644922 0,-0.276985 0.06614,-0.562239 0.351399,-0.562239 z m 1.427303,0.148828 c -0.01654,0.02067 -0.03721,0.02894 -0.03721,0 -0.0041,-0.08682 -0.0083,-0.21084 -0.0248,-0.243913 -0.0041,-0.01654 -0.0124,-0.0248 -0.03721,-0.0248 -0.09095,0.03721 -0.173633,0.06201 -0.392741,0.09095 -0.0041,0.02067 0,0.07028 0.0083,0.09095 0.169499,0.01654 0.206706,0.03307 0.206706,0.214974 v 0.620117 c 0,0.260449 -0.03307,0.272851 -0.223243,0.289388 -0.02067,0.02067 -0.02067,0.08682 0,0.107487 0.09508,-0.0041 0.223243,-0.0083 0.3514,-0.0083 0.124023,0 0.219108,0.0041 0.314193,0.0083 0.02067,-0.02067 0.02067,-0.08682 0,-0.107487 -0.161231,-0.01654 -0.19017,-0.02894 -0.19017,-0.289388 v -0.520899 c 0,-0.06615 0.0248,-0.103353 0.05374,-0.132291 0.119889,-0.11989 0.260449,-0.19017 0.384473,-0.19017 0.06614,0 0.132291,0.04134 0.169498,0.115756 0.03307,0.06201 0.03721,0.148828 0.03721,0.243912 v 0.483692 c 0,0.260449 -0.02894,0.272851 -0.194303,0.289388 -0.01654,0.02067 -0.01654,0.08682 0,0.107487 0.09508,-0.0041 0.194303,-0.0083 0.322461,-0.0083 0.128158,0 0.243913,0.0041 0.338997,0.0083 0.01654,-0.02067 0.01654,-0.08682 0,-0.107487 -0.177767,-0.01654 -0.214974,-0.02894 -0.214974,-0.289388 v -0.471289 c 0,-0.177767 -0.0124,-0.330729 -0.08682,-0.425814 -0.05374,-0.07028 -0.148828,-0.111621 -0.260449,-0.111621 -0.157097,0 -0.334864,0.04134 -0.525033,0.260449 z m 0,0"
       style="fill:#000000;fill-opacity:1;fill-rule:nonzero;stroke:none;stroke-width:0.29126"
       aria-label="SpecularRefection" />
    <path
       id="path70"
       d="m 106.71397,69.353408 v -1.525489 c 0,-0.111621 0.11162,-0.152962 0.26459,-0.152962 0.69039,0 0.91364,0.553972 0.91364,1.045931 0,0.640788 -0.38448,0.797884 -0.83096,0.797884 -0.31419,0 -0.34727,-0.06201 -0.34727,-0.165364 z m -0.5457,-1.790072 c -0.0207,0.02067 -0.0207,0.08682 0,0.107487 0.21911,0.0083 0.27699,0.02481 0.27699,0.289388 v 1.273307 c 0,0.264584 -0.0579,0.28112 -0.27699,0.289388 -0.0207,0.02067 -0.0207,0.08682 0,0.107487 0.12402,-0.0041 0.28939,-0.0083 0.41341,-0.0083 0.11576,0 0.24805,0.0083 0.57878,0.0083 0.44648,0 1.03766,-0.206705 1.03766,-0.988053 0,-0.591178 -0.48783,-1.079004 -1.09554,-1.079004 -0.22738,0 -0.40101,0.0083 -0.52503,0.0083 -0.11576,0 -0.28526,-0.0041 -0.40928,-0.0083 z m 2.4505,0.152962 c 0,0.08268 0.0785,0.165365 0.15296,0.165365 0.0909,0 0.16536,-0.08268 0.16536,-0.152962 0,-0.07441 -0.0661,-0.165365 -0.15296,-0.165365 -0.0744,0 -0.16536,0.07855 -0.16536,0.152962 z m 0.28938,1.51722 v -0.632519 c 0,-0.157096 0.0124,-0.363802 0.0124,-0.363802 0,-0.0124 -0.0165,-0.02067 -0.0413,-0.02067 -0.0868,0.03721 -0.21498,0.06201 -0.43409,0.09095 -0.008,0.02067 0,0.07028 0.004,0.09095 0.17776,0.01654 0.2067,0.03307 0.2067,0.214974 v 0.620118 c 0,0.264583 -0.0331,0.272851 -0.22737,0.289388 -0.0207,0.02067 -0.0207,0.08682 0,0.107487 0.10335,-0.0041 0.22737,-0.0083 0.35553,-0.0083 0.12816,0 0.24805,0.0041 0.35553,0.0083 0.0165,-0.02067 0.0165,-0.08682 0,-0.107487 -0.1943,-0.0124 -0.23151,-0.0248 -0.23151,-0.289388 z m 1.70843,0 v -0.851627 h 0.28939 c 0.0331,0 0.0785,-0.0124 0.0785,-0.04134 v -0.06201 c 0,-0.0124 -0.008,-0.02067 -0.0248,-0.02067 h -0.34313 v -0.169498 c 0,-0.06201 0.004,-0.206706 0.0207,-0.314193 0.0455,-0.23151 0.12816,-0.260449 0.19844,-0.260449 0.0744,0 0.14056,0.04547 0.1695,0.107487 0.0331,0.06615 0.0661,0.128157 0.14882,0.128157 0.0662,0 0.11162,-0.04547 0.11162,-0.111621 0,-0.128157 -0.14469,-0.235644 -0.38033,-0.235644 -0.11576,0 -0.29766,0.07028 -0.40515,0.239778 -0.0413,-0.07855 -0.18603,-0.186035 -0.43821,-0.186035 -0.0868,0 -0.1695,0.02481 -0.23565,0.06201 -0.21911,0.128158 -0.32659,0.3514 -0.32659,0.740006 h -0.15297 c -0.0579,0 -0.0744,0.03721 -0.0744,0.06201 v 0.04134 c 0,0.01654 0.004,0.02067 0.0165,0.02067 h 0.21084 v 0.851627 c 0,0.264584 -0.0331,0.276986 -0.20671,0.289388 -0.0165,0.02067 -0.0165,0.08682 0,0.107487 0.10749,-0.0041 0.21911,-0.0083 0.33487,-0.0083 0.10335,0 0.21084,0.0041 0.31005,0.0083 0.0207,-0.02067 0.0207,-0.08682 0,-0.107487 -0.14469,-0.0124 -0.18603,-0.0248 -0.18603,-0.289388 v -0.851627 h 0.63252 v 0.851627 c 0,0.264584 -0.0331,0.276986 -0.17363,0.289388 -0.0207,0.02067 -0.0207,0.08682 0,0.107487 0.091,-0.0041 0.1943,-0.0083 0.30179,-0.0083 0.0992,0 0.23564,0.0041 0.37207,0.0083 0.0207,-0.02067 0.0207,-0.08682 0,-0.107487 -0.21498,-0.0124 -0.24805,-0.0248 -0.24805,-0.289388 z m -0.21911,-1.405599 c -0.0289,0.115756 -0.0331,0.239779 -0.0331,0.301791 v 0.128157 h -0.63252 v -0.02894 c 0,-0.214974 0.0248,-0.326595 0.0455,-0.388607 0.0662,-0.252181 0.20671,-0.289388 0.25632,-0.289388 0.11162,0 0.1695,0.07855 0.20257,0.157096 0.0289,0.06201 0.0579,0.128158 0.14056,0.128158 0.008,0 0.0165,-0.0041 0.0207,-0.0083 z m 1.20406,0.657325 c -0.004,-0.128158 -0.008,-0.21084 -0.0248,-0.243913 -0.004,-0.01654 -0.0124,-0.02481 -0.0372,-0.02481 -0.0909,0.03721 -0.17363,0.06201 -0.39274,0.09095 -0.004,0.02067 0,0.07028 0.008,0.09095 0.1695,0.01654 0.2067,0.03307 0.2067,0.214974 v 0.620118 c 0,0.264583 -0.0372,0.276985 -0.23564,0.289388 -0.0207,0.02067 -0.0207,0.08682 0,0.107487 0.11162,-0.0041 0.23564,-0.0083 0.3638,-0.0083 0.12402,0 0.27285,0.0041 0.38447,0.0083 0.0165,-0.02067 0.0165,-0.08682 0,-0.107487 -0.22324,-0.01654 -0.26045,-0.02481 -0.26045,-0.289388 v -0.442351 c 0,-0.08268 0.0372,-0.152962 0.0744,-0.21084 0.0372,-0.05374 0.10749,-0.157096 0.14469,-0.157096 0.0289,0 0.0579,0.0083 0.0827,0.04134 0.0248,0.03307 0.062,0.07441 0.11576,0.07441 0.0785,0 0.14883,-0.07855 0.14883,-0.16123 0,-0.05788 -0.0579,-0.152962 -0.19017,-0.152962 -0.14883,0 -0.28112,0.140559 -0.3514,0.264583 -0.0207,0.03721 -0.0372,0.0124 -0.0372,-0.0041 z m 1.55443,0.396875 v 0.417545 c 0,0.04134 -0.0165,0.06615 -0.0413,0.08268 -0.0827,0.06615 -0.19431,0.140559 -0.28112,0.140559 -0.16123,0 -0.22738,-0.128157 -0.22738,-0.223242 0,-0.144694 0.0661,-0.289388 0.30179,-0.351399 z m 0,0.587044 c 0.0207,0.09922 0.0537,0.186035 0.21497,0.186035 0.11989,0 0.23565,-0.05374 0.30179,-0.119889 -0.008,-0.03721 -0.0207,-0.06615 -0.0537,-0.08682 -0.0248,0.02067 -0.0785,0.05374 -0.11989,0.05374 -0.0909,0 -0.0951,-0.124024 -0.0951,-0.272852 v -0.467155 c 0,-0.450618 -0.24804,-0.537435 -0.47955,-0.537435 -0.26045,0 -0.52504,0.173633 -0.52504,0.355534 0,0.07441 0.0413,0.111621 0.11163,0.111621 0.0951,0 0.14882,-0.06614 0.14882,-0.107487 0,-0.02067 0,-0.04134 -0.008,-0.05788 -0.004,-0.0083 -0.004,-0.02481 -0.004,-0.06201 0,-0.09922 0.13229,-0.132292 0.25218,-0.132292 0.10749,0 0.25632,0.05374 0.25632,0.413412 0,0.02067 -0.008,0.03307 -0.0165,0.03721 l -0.27285,0.06615 c -0.30593,0.07855 -0.52503,0.243913 -0.52503,0.463021 0,0.260449 0.17776,0.343131 0.401,0.343131 0.10749,0 0.20671,-0.02481 0.34314,-0.136426 l 0.0661,-0.04961 z m 1.78697,-0.136426 c -0.0124,-0.02894 -0.0372,-0.04134 -0.0662,-0.04547 -0.10748,0.14056 -0.24391,0.21084 -0.38034,0.21084 -0.23564,0 -0.42581,-0.235645 -0.42581,-0.607715 0,-0.347266 0.14883,-0.558106 0.35967,-0.558106 0.19017,0 0.21497,0.111622 0.22737,0.223243 0.008,0.08268 0.0538,0.111621 0.11989,0.111621 0.0662,0 0.1571,-0.04134 0.1571,-0.14056 0,-0.173633 -0.1819,-0.301791 -0.48783,-0.301791 -0.31419,0 -0.65319,0.285254 -0.65319,0.735873 0,0.409277 0.23151,0.694531 0.63252,0.694531 0.19017,0 0.35967,-0.06201 0.51677,-0.322461 z m 0.23151,-1.07487 c -0.0455,0 -0.0579,0.03721 -0.0579,0.06201 v 0.04134 c 0,0.01654 0.004,0.02067 0.0165,0.02067 h 0.18603 v 0.959114 c 0,0.223242 0.0992,0.314193 0.24805,0.314193 0.14469,0 0.30179,-0.07028 0.42581,-0.21084 -0.004,-0.03307 -0.0248,-0.04961 -0.0537,-0.05374 -0.0827,0.06201 -0.17777,0.08682 -0.26045,0.08682 -0.0868,0 -0.10748,-0.09508 -0.10748,-0.289388 v -0.806152 h 0.33072 c 0.0331,0 0.0786,-0.0124 0.0786,-0.04134 v -0.06201 c 0,-0.0124 -0.0124,-0.02067 -0.0289,-0.02067 h -0.38034 v -0.124023 c 0,-0.206706 0.0124,-0.334863 0.0124,-0.334863 0,-0.01654 -0.008,-0.02894 -0.0248,-0.02894 -0.0124,0 -0.0413,0.01654 -0.0703,0.02894 -0.0331,0.02067 -0.0661,0.03721 -0.10748,0.04547 -0.0372,0.0124 -0.0703,0.02481 -0.0703,0.04548 0,0.03721 0.008,0.01654 0.008,0.367936 z m 1.15238,-0.541569 c 0,0.08268 0.0786,0.165365 0.15297,0.165365 0.091,0 0.16536,-0.08268 0.16536,-0.152962 0,-0.07441 -0.0662,-0.165365 -0.15296,-0.165365 -0.0744,0 -0.16537,0.07855 -0.16537,0.152962 z m 0.28939,1.51722 v -0.632519 c 0,-0.157096 0.0124,-0.363802 0.0124,-0.363802 0,-0.0124 -0.0165,-0.02067 -0.0413,-0.02067 -0.0868,0.03721 -0.21497,0.06201 -0.43408,0.09095 -0.008,0.02067 0,0.07028 0.004,0.09095 0.17777,0.01654 0.20671,0.03307 0.20671,0.214974 v 0.620118 c 0,0.264583 -0.0331,0.272851 -0.22738,0.289388 -0.0207,0.02067 -0.0207,0.08682 0,0.107487 0.10335,-0.0041 0.22738,-0.0083 0.35554,-0.0083 0.12815,0 0.24804,0.0041 0.35553,0.0083 0.0165,-0.02067 0.0165,-0.08682 0,-0.107487 -0.1943,-0.0124 -0.23151,-0.02481 -0.23151,-0.289388 z m 0.41858,-0.264583 c 0,0.326595 0.21497,0.686263 0.66559,0.686263 0.20257,0 0.35967,-0.07441 0.46716,-0.177767 0.14469,-0.14056 0.2067,-0.343131 0.2067,-0.537435 0,-0.330729 -0.1819,-0.715202 -0.66559,-0.715202 -0.21084,0 -0.38447,0.08682 -0.50023,0.223243 -0.11575,0.136425 -0.17363,0.322461 -0.17363,0.520898 z m 0.62425,-0.632519 c 0.27285,0 0.44235,0.248046 0.44235,0.706933 0,0.401009 -0.2067,0.500228 -0.35553,0.500228 -0.33073,0 -0.43822,-0.401009 -0.43822,-0.644922 0,-0.276986 0.0661,-0.562239 0.3514,-0.562239 z m 1.42834,0.148828 c -0.0165,0.02067 -0.0372,0.02894 -0.0372,0 -0.004,-0.08682 -0.008,-0.21084 -0.0248,-0.243913 -0.004,-0.01654 -0.0124,-0.02481 -0.0372,-0.02481 -0.0909,0.03721 -0.17363,0.06201 -0.39274,0.09095 -0.004,0.02067 0,0.07028 0.008,0.09095 0.1695,0.01654 0.2067,0.03307 0.2067,0.214974 v 0.620118 c 0,0.260449 -0.0331,0.272851 -0.22324,0.289388 -0.0207,0.02067 -0.0207,0.08682 0,0.107487 0.0951,-0.0041 0.22324,-0.0083 0.3514,-0.0083 0.12402,0 0.21911,0.0041 0.31419,0.0083 0.0207,-0.02067 0.0207,-0.08682 0,-0.107487 -0.16123,-0.01654 -0.19017,-0.02894 -0.19017,-0.289388 V 68.71262 c 0,-0.06615 0.0248,-0.103353 0.0538,-0.132292 0.11989,-0.119889 0.26045,-0.190169 0.38447,-0.190169 0.0662,0 0.13229,0.04134 0.1695,0.115755 0.0331,0.06201 0.0372,0.148828 0.0372,0.243913 v 0.483692 c 0,0.260449 -0.0289,0.272851 -0.19431,0.289388 -0.0165,0.02067 -0.0165,0.08682 0,0.107487 0.0951,-0.0041 0.19431,-0.0083 0.32246,-0.0083 0.12816,0 0.24392,0.0041 0.339,0.0083 0.0165,-0.02067 0.0165,-0.08682 0,-0.107487 -0.17777,-0.01654 -0.21497,-0.02894 -0.21497,-0.289388 v -0.47129 c 0,-0.177766 -0.0124,-0.330729 -0.0868,-0.425813 -0.0537,-0.07028 -0.14883,-0.111621 -0.26045,-0.111621 -0.15709,0 -0.33486,0.04134 -0.52503,0.260449 z m 0,0"
       style="fill:#000000;fill-opacity:1;fill-rule:nonzero;stroke:none;stroke-width:0.29126"
       aria-label="Difraction" />
  </g>
</svg>
