<?xml version="1.0" encoding="utf-8" standalone="no"?>
<!DOCTYPE svg PUBLIC "-//W3C//DTD SVG 1.1//EN"
  "http://www.w3.org/Graphics/SVG/1.1/DTD/svg11.dtd">
<svg xmlns:xlink="http://www.w3.org/1999/xlink" width="842.494375pt" height="489.077031pt" viewBox="0 0 842.494375 489.077031" xmlns="http://www.w3.org/2000/svg" version="1.1">
 <metadata>
  <rdf:RDF xmlns:dc="http://purl.org/dc/elements/1.1/" xmlns:cc="http://creativecommons.org/ns#" xmlns:rdf="http://www.w3.org/1999/02/22-rdf-syntax-ns#">
   <cc:Work>
    <dc:type rdf:resource="http://purl.org/dc/dcmitype/StillImage"/>
    <dc:date>2025-06-30T00:51:36.328202</dc:date>
    <dc:format>image/svg+xml</dc:format>
    <dc:creator>
     <cc:Agent>
      <dc:title>Matplotlib v3.9.1, https://matplotlib.org/</dc:title>
     </cc:Agent>
    </dc:creator>
   </cc:Work>
  </rdf:RDF>
 </metadata>
 <defs>
  <style type="text/css">*{stroke-linejoin: round; stroke-linecap: butt}</style>
 </defs>
 <g id="figure_1">
  <g id="patch_1">
   <path d="M 0 489.077031 
L 842.494375 489.077031 
L 842.494375 0 
L 0 0 
L 0 489.077031 
z
" style="fill: none"/>
  </g>
  <g id="axes_1">
   <g id="patch_2">
    <path d="M 22.903125 483.198125 
L 839.313125 483.198125 
L 839.313125 16.678125 
L 22.903125 16.678125 
L 22.903125 483.198125 
z
" style="fill: none"/>
   </g>
   <g id="PathCollection_1">
    <defs>
     <path id="m7636ff8f6f" d="M 0 5 
C 1.326016 5 2.597899 4.473168 3.535534 3.535534 
C 4.473168 2.597899 5 1.326016 5 0 
C 5 -1.326016 4.473168 -2.597899 3.535534 -3.535534 
C 2.597899 -4.473168 1.326016 -5 0 -5 
C -1.326016 -5 -2.597899 -4.473168 -3.535534 -3.535534 
C -4.473168 -2.597899 -5 -1.326016 -5 0 
C -5 1.326016 -4.473168 2.597899 -3.535534 3.535534 
C -2.597899 4.473168 -1.326016 5 0 5 
z
" style="stroke: #008000"/>
    </defs>
    <g clip-path="url(#p4c75763e38)">
     <use xlink:href="#m7636ff8f6f" x="606.053125" y="133.308125" style="fill: #008000; stroke: #008000"/>
    </g>
   </g>
   <g id="patch_3">
    <path d="M 606.053125 74.993125 
C 621.518444 74.993125 636.352425 81.137561 647.288057 92.073193 
C 658.223689 103.008825 664.368125 117.842806 664.368125 133.308125 
C 664.368125 148.773444 658.223689 163.607425 647.288057 174.543057 
C 636.352425 185.478689 621.518444 191.623125 606.053125 191.623125 
C 590.587806 191.623125 575.753825 185.478689 564.818193 174.543057 
C 553.882561 163.607425 547.738125 148.773444 547.738125 133.308125 
C 547.738125 117.842806 553.882561 103.008825 564.818193 92.073193 
C 575.753825 81.137561 590.587806 74.993125 606.053125 74.993125 
z
" clip-path="url(#p4c75763e38)" style="fill: #008000; opacity: 0.5; stroke: #008000; stroke-linejoin: miter"/>
   </g>
   <g id="PathCollection_2">
    <defs>
     <path id="m248ba1fb2e" d="M -1 3 
L 1 3 
L 1 1 
L 3 1 
L 3 -1 
L 1 -1 
L 1 -3 
L -1 -3 
L -1 -1 
L -3 -1 
L -3 1 
L -1 1 
z
" style="stroke: #ff0029"/>
    </defs>
    <g clip-path="url(#p4c75763e38)">
     <use xlink:href="#m248ba1fb2e" x="810.155625" y="220.780625" style="fill: #ff0029; stroke: #ff0029"/>
    </g>
   </g>
   <g id="patch_4">
    <path d="M 576.895625 128.059775 
L 575.146175 133.308125 
L 576.312475 133.308125 
L 576.312475 162.465625 
L 577.478775 162.465625 
L 577.478775 133.308125 
L 578.645075 133.308125 
z
" clip-path="url(#p4c75763e38)" style="fill: #ff0029; stroke: #ff0029; stroke-linejoin: miter"/>
   </g>
   <g id="PathCollection_3">
    <defs>
     <path id="m2431682169" d="M -1 3 
L 1 3 
L 1 1 
L 3 1 
L 3 -1 
L 1 -1 
L 1 -3 
L -1 -3 
L -1 -1 
L -3 -1 
L -3 1 
L -1 1 
z
" style="stroke: #ff6e00"/>
    </defs>
    <g clip-path="url(#p4c75763e38)">
     <use xlink:href="#m2431682169" x="401.950625" y="279.095625" style="fill: #ff6e00; stroke: #ff6e00"/>
    </g>
   </g>
   <g id="patch_5">
    <path d="M 600.804775 162.465625 
L 606.053125 164.215075 
L 606.053125 163.048775 
L 635.210625 163.048775 
L 635.210625 161.882475 
L 606.053125 161.882475 
L 606.053125 160.716175 
z
" clip-path="url(#p4c75763e38)" style="fill: #ff6e00; stroke: #ff6e00; stroke-linejoin: miter"/>
   </g>
   <g id="PathCollection_4">
    <defs>
     <path id="me7352b8aa5" d="M -1 3 
L 1 3 
L 1 1 
L 3 1 
L 3 -1 
L 1 -1 
L 1 -3 
L -1 -3 
L -1 -1 
L -3 -1 
L -3 1 
L -1 1 
z
" style="stroke: #f9ff00"/>
    </defs>
    <g clip-path="url(#p4c75763e38)">
     <use xlink:href="#me7352b8aa5" x="810.155625" y="45.835625" style="fill: #f9ff00; stroke: #f9ff00"/>
    </g>
   </g>
   <g id="patch_6">
    <path d="M 635.210625 138.556475 
L 636.960075 133.308125 
L 635.793775 133.308125 
L 635.793775 104.150625 
L 634.627475 104.150625 
L 634.627475 133.308125 
L 633.461175 133.308125 
z
" clip-path="url(#p4c75763e38)" style="fill: #f9ff00; stroke: #f9ff00; stroke-linejoin: miter"/>
   </g>
   <g id="PathCollection_5">
    <defs>
     <path id="mc8f8fd710a" d="M -1 3 
L 1 3 
L 1 1 
L 3 1 
L 3 -1 
L 1 -1 
L 1 -3 
L -1 -3 
L -1 -1 
L -3 -1 
L -3 1 
L -1 1 
z
" style="stroke: #5cff00"/>
    </defs>
    <g clip-path="url(#p4c75763e38)">
     <use xlink:href="#mc8f8fd710a" x="401.950625" y="162.465625" style="fill: #5cff00; stroke: #5cff00"/>
    </g>
   </g>
   <g id="patch_7">
    <path d="M 611.301475 104.150625 
L 606.053125 102.401175 
L 606.053125 103.567475 
L 576.895625 103.567475 
L 576.895625 104.733775 
L 606.053125 104.733775 
L 606.053125 105.900075 
z
" clip-path="url(#p4c75763e38)" style="fill: #5cff00; stroke: #5cff00; stroke-linejoin: miter"/>
   </g>
   <g id="PathCollection_6">
    <defs>
     <path id="m601827f254" d="M -1 3 
L 1 3 
L 1 1 
L 3 1 
L 3 -1 
L 1 -1 
L 1 -3 
L -1 -3 
L -1 -1 
L -3 -1 
L -3 1 
L -1 1 
z
" style="stroke: #00ff3b"/>
    </defs>
    <g clip-path="url(#p4c75763e38)">
     <use xlink:href="#m601827f254" x="810.155625" y="104.150625" style="fill: #00ff3b; stroke: #00ff3b"/>
    </g>
   </g>
   <g id="patch_8">
    <path d="M 635.210625 138.556475 
L 636.960075 133.308125 
L 635.793775 133.308125 
L 635.793775 104.150625 
L 634.627475 104.150625 
L 634.627475 133.308125 
L 633.461175 133.308125 
z
" clip-path="url(#p4c75763e38)" style="fill: #00ff3b; stroke: #00ff3b; stroke-linejoin: miter"/>
   </g>
   <g id="PathCollection_7">
    <defs>
     <path id="m28f9b28ee4" d="M -1 3 
L 1 3 
L 1 1 
L 3 1 
L 3 -1 
L 1 -1 
L 1 -3 
L -1 -3 
L -1 -1 
L -3 -1 
L -3 1 
L -1 1 
z
" style="stroke: #00ffd7"/>
    </defs>
    <g clip-path="url(#p4c75763e38)">
     <use xlink:href="#m28f9b28ee4" x="168.690625" y="395.725625" style="fill: #00ffd7; stroke: #00ffd7"/>
    </g>
   </g>
   <g id="patch_9">
    <path d="M 635.210625 138.556475 
L 636.960075 133.308125 
L 635.793775 133.308125 
L 635.793775 104.150625 
L 634.627475 104.150625 
L 634.627475 133.308125 
L 633.461175 133.308125 
z
" clip-path="url(#p4c75763e38)" style="fill: #00ffd7; stroke: #00ffd7; stroke-linejoin: miter"/>
   </g>
   <g id="PathCollection_8">
    <defs>
     <path id="m6e909f7d7c" d="M -1 3 
L 1 3 
L 1 1 
L 3 1 
L 3 -1 
L 1 -1 
L 1 -3 
L -1 -3 
L -1 -1 
L -3 -1 
L -3 1 
L -1 1 
z
" style="stroke: #008fff"/>
    </defs>
    <g clip-path="url(#p4c75763e38)">
     <use xlink:href="#m6e909f7d7c" x="693.525625" y="395.725625" style="fill: #008fff; stroke: #008fff"/>
    </g>
   </g>
   <g id="patch_10">
    <path d="M 611.301475 104.150625 
L 606.053125 102.401175 
L 606.053125 103.567475 
L 576.895625 103.567475 
L 576.895625 104.733775 
L 606.053125 104.733775 
L 606.053125 105.900075 
z
" clip-path="url(#p4c75763e38)" style="fill: #008fff; stroke: #008fff; stroke-linejoin: miter"/>
   </g>
   <g id="PathCollection_9">
    <defs>
     <path id="m914cba6047" d="M -1 3 
L 1 3 
L 1 1 
L 3 1 
L 3 -1 
L 1 -1 
L 1 -3 
L -1 -3 
L -1 -1 
L -3 -1 
L -3 1 
L -1 1 
z
" style="stroke: #0e00ff"/>
    </defs>
    <g clip-path="url(#p4c75763e38)">
     <use xlink:href="#m914cba6047" x="401.950625" y="337.410625" style="fill: #0e00ff; stroke: #0e00ff"/>
    </g>
   </g>
   <g id="patch_11">
    <path d="M 635.210625 138.556475 
L 636.960075 133.308125 
L 635.793775 133.308125 
L 635.793775 104.150625 
L 634.627475 104.150625 
L 634.627475 133.308125 
L 633.461175 133.308125 
z
" clip-path="url(#p4c75763e38)" style="fill: #0e00ff; stroke: #0e00ff; stroke-linejoin: miter"/>
   </g>
   <g id="PathCollection_10">
    <defs>
     <path id="m6bd3ad1fd6" d="M -1 3 
L 1 3 
L 1 1 
L 3 1 
L 3 -1 
L 1 -1 
L 1 -3 
L -1 -3 
L -1 -1 
L -3 -1 
L -3 1 
L -1 1 
z
" style="stroke: #a700ff"/>
    </defs>
    <g clip-path="url(#p4c75763e38)">
     <use xlink:href="#m6bd3ad1fd6" x="693.525625" y="104.150625" style="fill: #a700ff; stroke: #a700ff"/>
    </g>
   </g>
   <g id="patch_12">
    <path d="M 611.301475 104.150625 
L 606.053125 102.401175 
L 606.053125 103.567475 
L 576.895625 103.567475 
L 576.895625 104.733775 
L 606.053125 104.733775 
L 606.053125 105.900075 
z
" clip-path="url(#p4c75763e38)" style="fill: #a700ff; stroke: #a700ff; stroke-linejoin: miter"/>
   </g>
   <g id="PathCollection_11">
    <defs>
     <path id="m75afa603d4" d="M -1 3 
L 1 3 
L 1 1 
L 3 1 
L 3 -1 
L 1 -1 
L 1 -3 
L -1 -3 
L -1 -1 
L -3 -1 
L -3 1 
L -1 1 
z
" style="stroke: #ff00bf"/>
    </defs>
    <g clip-path="url(#p4c75763e38)">
     <use xlink:href="#m75afa603d4" x="460.265625" y="162.465625" style="fill: #ff00bf; stroke: #ff00bf"/>
    </g>
   </g>
   <g id="patch_13">
    <path d="M 600.804775 162.465625 
L 606.053125 164.215075 
L 606.053125 163.048775 
L 635.210625 163.048775 
L 635.210625 161.882475 
L 606.053125 161.882475 
L 606.053125 160.716175 
z
" clip-path="url(#p4c75763e38)" style="fill: #ff00bf; stroke: #ff00bf; stroke-linejoin: miter"/>
   </g>
   <g id="PathCollection_12">
    <defs>
     <path id="m9157a2cad0" d="M -0 4.242641 
L 4.242641 0 
L 0 -4.242641 
L -4.242641 -0 
z
" style="stroke: #ff0029"/>
    </defs>
    <g clip-path="url(#p4c75763e38)">
     <use xlink:href="#m9157a2cad0" x="576.895625" y="162.465625" style="fill: #ff0029; stroke: #ff0029"/>
    </g>
   </g>
   <g id="PathCollection_13">
    <defs>
     <path id="m8f3469b3b4" d="M -0 4.242641 
L 4.242641 0 
L 0 -4.242641 
L -4.242641 -0 
z
" style="stroke: #ff6e00"/>
    </defs>
    <g clip-path="url(#p4c75763e38)">
     <use xlink:href="#m8f3469b3b4" x="635.210625" y="162.465625" style="fill: #ff6e00; stroke: #ff6e00"/>
    </g>
   </g>
   <g id="PathCollection_14">
    <defs>
     <path id="m3d13cf1c8f" d="M -0 4.242641 
L 4.242641 0 
L 0 -4.242641 
L -4.242641 -0 
z
" style="stroke: #f9ff00"/>
    </defs>
    <g clip-path="url(#p4c75763e38)">
     <use xlink:href="#m3d13cf1c8f" x="635.210625" y="104.150625" style="fill: #f9ff00; stroke: #f9ff00"/>
    </g>
   </g>
   <g id="PathCollection_15">
    <defs>
     <path id="m43d48d6263" d="M -0 4.242641 
L 4.242641 0 
L 0 -4.242641 
L -4.242641 -0 
z
" style="stroke: #5cff00"/>
    </defs>
    <g clip-path="url(#p4c75763e38)">
     <use xlink:href="#m43d48d6263" x="576.895625" y="104.150625" style="fill: #5cff00; stroke: #5cff00"/>
    </g>
   </g>
   <g id="PathCollection_16">
    <defs>
     <path id="mf1008ebb9c" d="M -0 4.242641 
L 4.242641 0 
L 0 -4.242641 
L -4.242641 -0 
z
" style="stroke: #00ff3b"/>
    </defs>
    <g clip-path="url(#p4c75763e38)">
     <use xlink:href="#mf1008ebb9c" x="635.210625" y="104.150625" style="fill: #00ff3b; stroke: #00ff3b"/>
    </g>
   </g>
   <g id="PathCollection_17">
    <defs>
     <path id="m57a1b9d84b" d="M -0 4.242641 
L 4.242641 0 
L 0 -4.242641 
L -4.242641 -0 
z
" style="stroke: #00ffd7"/>
    </defs>
    <g clip-path="url(#p4c75763e38)">
     <use xlink:href="#m57a1b9d84b" x="635.210625" y="104.150625" style="fill: #00ffd7; stroke: #00ffd7"/>
    </g>
   </g>
   <g id="PathCollection_18">
    <defs>
     <path id="m73205013b5" d="M -0 4.242641 
L 4.242641 0 
L 0 -4.242641 
L -4.242641 -0 
z
" style="stroke: #008fff"/>
    </defs>
    <g clip-path="url(#p4c75763e38)">
     <use xlink:href="#m73205013b5" x="576.895625" y="104.150625" style="fill: #008fff; stroke: #008fff"/>
    </g>
   </g>
   <g id="PathCollection_19">
    <defs>
     <path id="me39bec4dad" d="M -0 4.242641 
L 4.242641 0 
L 0 -4.242641 
L -4.242641 -0 
z
" style="stroke: #0e00ff"/>
    </defs>
    <g clip-path="url(#p4c75763e38)">
     <use xlink:href="#me39bec4dad" x="635.210625" y="104.150625" style="fill: #0e00ff; stroke: #0e00ff"/>
    </g>
   </g>
   <g id="PathCollection_20">
    <defs>
     <path id="md6fe3f0bd8" d="M -0 4.242641 
L 4.242641 0 
L 0 -4.242641 
L -4.242641 -0 
z
" style="stroke: #a700ff"/>
    </defs>
    <g clip-path="url(#p4c75763e38)">
     <use xlink:href="#md6fe3f0bd8" x="576.895625" y="104.150625" style="fill: #a700ff; stroke: #a700ff"/>
    </g>
   </g>
   <g id="PathCollection_21">
    <defs>
     <path id="m139226ef48" d="M -0 4.242641 
L 4.242641 0 
L 0 -4.242641 
L -4.242641 -0 
z
" style="stroke: #ff00bf"/>
    </defs>
    <g clip-path="url(#p4c75763e38)">
     <use xlink:href="#m139226ef48" x="635.210625" y="162.465625" style="fill: #ff00bf; stroke: #ff00bf"/>
    </g>
   </g>
   <g id="matplotlib.axis_1">
    <g id="xtick_1">
     <g id="line2d_1">
      <defs>
       <path id="m0bb6edde51" d="M 0 0 
L 0 -3.5 
" style="stroke: #000000; stroke-width: 0.8"/>
      </defs>
      <g>
       <use xlink:href="#m0bb6edde51" x="22.903125" y="16.678125" style="stroke: #000000; stroke-width: 0.8"/>
      </g>
     </g>
     <g id="text_1">
      <!-- 0 -->
      <g transform="translate(19.721875 7.598437) scale(0.1 -0.1)">
       <defs>
        <path id="DejaVuSans-30" d="M 2034 4250 
Q 1547 4250 1301 3770 
Q 1056 3291 1056 2328 
Q 1056 1369 1301 889 
Q 1547 409 2034 409 
Q 2525 409 2770 889 
Q 3016 1369 3016 2328 
Q 3016 3291 2770 3770 
Q 2525 4250 2034 4250 
z
M 2034 4750 
Q 2819 4750 3233 4129 
Q 3647 3509 3647 2328 
Q 3647 1150 3233 529 
Q 2819 -91 2034 -91 
Q 1250 -91 836 529 
Q 422 1150 422 2328 
Q 422 3509 836 4129 
Q 1250 4750 2034 4750 
z
" transform="scale(0.015625)"/>
       </defs>
       <use xlink:href="#DejaVuSans-30"/>
      </g>
     </g>
    </g>
    <g id="xtick_2">
     <g id="line2d_2">
      <g>
       <use xlink:href="#m0bb6edde51" x="139.533125" y="16.678125" style="stroke: #000000; stroke-width: 0.8"/>
      </g>
     </g>
     <g id="text_2">
      <!-- 1 -->
      <g transform="translate(136.351875 7.598437) scale(0.1 -0.1)">
       <defs>
        <path id="DejaVuSans-31" d="M 794 531 
L 1825 531 
L 1825 4091 
L 703 3866 
L 703 4441 
L 1819 4666 
L 2450 4666 
L 2450 531 
L 3481 531 
L 3481 0 
L 794 0 
L 794 531 
z
" transform="scale(0.015625)"/>
       </defs>
       <use xlink:href="#DejaVuSans-31"/>
      </g>
     </g>
    </g>
    <g id="xtick_3">
     <g id="line2d_3">
      <g>
       <use xlink:href="#m0bb6edde51" x="256.163125" y="16.678125" style="stroke: #000000; stroke-width: 0.8"/>
      </g>
     </g>
     <g id="text_3">
      <!-- 2 -->
      <g transform="translate(252.981875 7.598437) scale(0.1 -0.1)">
       <defs>
        <path id="DejaVuSans-32" d="M 1228 531 
L 3431 531 
L 3431 0 
L 469 0 
L 469 531 
Q 828 903 1448 1529 
Q 2069 2156 2228 2338 
Q 2531 2678 2651 2914 
Q 2772 3150 2772 3378 
Q 2772 3750 2511 3984 
Q 2250 4219 1831 4219 
Q 1534 4219 1204 4116 
Q 875 4013 500 3803 
L 500 4441 
Q 881 4594 1212 4672 
Q 1544 4750 1819 4750 
Q 2544 4750 2975 4387 
Q 3406 4025 3406 3419 
Q 3406 3131 3298 2873 
Q 3191 2616 2906 2266 
Q 2828 2175 2409 1742 
Q 1991 1309 1228 531 
z
" transform="scale(0.015625)"/>
       </defs>
       <use xlink:href="#DejaVuSans-32"/>
      </g>
     </g>
    </g>
    <g id="xtick_4">
     <g id="line2d_4">
      <g>
       <use xlink:href="#m0bb6edde51" x="372.793125" y="16.678125" style="stroke: #000000; stroke-width: 0.8"/>
      </g>
     </g>
     <g id="text_4">
      <!-- 3 -->
      <g transform="translate(369.611875 7.598437) scale(0.1 -0.1)">
       <defs>
        <path id="DejaVuSans-33" d="M 2597 2516 
Q 3050 2419 3304 2112 
Q 3559 1806 3559 1356 
Q 3559 666 3084 287 
Q 2609 -91 1734 -91 
Q 1441 -91 1130 -33 
Q 819 25 488 141 
L 488 750 
Q 750 597 1062 519 
Q 1375 441 1716 441 
Q 2309 441 2620 675 
Q 2931 909 2931 1356 
Q 2931 1769 2642 2001 
Q 2353 2234 1838 2234 
L 1294 2234 
L 1294 2753 
L 1863 2753 
Q 2328 2753 2575 2939 
Q 2822 3125 2822 3475 
Q 2822 3834 2567 4026 
Q 2313 4219 1838 4219 
Q 1578 4219 1281 4162 
Q 984 4106 628 3988 
L 628 4550 
Q 988 4650 1302 4700 
Q 1616 4750 1894 4750 
Q 2613 4750 3031 4423 
Q 3450 4097 3450 3541 
Q 3450 3153 3228 2886 
Q 3006 2619 2597 2516 
z
" transform="scale(0.015625)"/>
       </defs>
       <use xlink:href="#DejaVuSans-33"/>
      </g>
     </g>
    </g>
    <g id="xtick_5">
     <g id="line2d_5">
      <g>
       <use xlink:href="#m0bb6edde51" x="489.423125" y="16.678125" style="stroke: #000000; stroke-width: 0.8"/>
      </g>
     </g>
     <g id="text_5">
      <!-- 4 -->
      <g transform="translate(486.241875 7.598437) scale(0.1 -0.1)">
       <defs>
        <path id="DejaVuSans-34" d="M 2419 4116 
L 825 1625 
L 2419 1625 
L 2419 4116 
z
M 2253 4666 
L 3047 4666 
L 3047 1625 
L 3713 1625 
L 3713 1100 
L 3047 1100 
L 3047 0 
L 2419 0 
L 2419 1100 
L 313 1100 
L 313 1709 
L 2253 4666 
z
" transform="scale(0.015625)"/>
       </defs>
       <use xlink:href="#DejaVuSans-34"/>
      </g>
     </g>
    </g>
    <g id="xtick_6">
     <g id="line2d_6">
      <g>
       <use xlink:href="#m0bb6edde51" x="606.053125" y="16.678125" style="stroke: #000000; stroke-width: 0.8"/>
      </g>
     </g>
     <g id="text_6">
      <!-- 5 -->
      <g transform="translate(602.871875 7.598437) scale(0.1 -0.1)">
       <defs>
        <path id="DejaVuSans-35" d="M 691 4666 
L 3169 4666 
L 3169 4134 
L 1269 4134 
L 1269 2991 
Q 1406 3038 1543 3061 
Q 1681 3084 1819 3084 
Q 2600 3084 3056 2656 
Q 3513 2228 3513 1497 
Q 3513 744 3044 326 
Q 2575 -91 1722 -91 
Q 1428 -91 1123 -41 
Q 819 9 494 109 
L 494 744 
Q 775 591 1075 516 
Q 1375 441 1709 441 
Q 2250 441 2565 725 
Q 2881 1009 2881 1497 
Q 2881 1984 2565 2268 
Q 2250 2553 1709 2553 
Q 1456 2553 1204 2497 
Q 953 2441 691 2322 
L 691 4666 
z
" transform="scale(0.015625)"/>
       </defs>
       <use xlink:href="#DejaVuSans-35"/>
      </g>
     </g>
    </g>
    <g id="xtick_7">
     <g id="line2d_7">
      <g>
       <use xlink:href="#m0bb6edde51" x="722.683125" y="16.678125" style="stroke: #000000; stroke-width: 0.8"/>
      </g>
     </g>
     <g id="text_7">
      <!-- 6 -->
      <g transform="translate(719.501875 7.598437) scale(0.1 -0.1)">
       <defs>
        <path id="DejaVuSans-36" d="M 2113 2584 
Q 1688 2584 1439 2293 
Q 1191 2003 1191 1497 
Q 1191 994 1439 701 
Q 1688 409 2113 409 
Q 2538 409 2786 701 
Q 3034 994 3034 1497 
Q 3034 2003 2786 2293 
Q 2538 2584 2113 2584 
z
M 3366 4563 
L 3366 3988 
Q 3128 4100 2886 4159 
Q 2644 4219 2406 4219 
Q 1781 4219 1451 3797 
Q 1122 3375 1075 2522 
Q 1259 2794 1537 2939 
Q 1816 3084 2150 3084 
Q 2853 3084 3261 2657 
Q 3669 2231 3669 1497 
Q 3669 778 3244 343 
Q 2819 -91 2113 -91 
Q 1303 -91 875 529 
Q 447 1150 447 2328 
Q 447 3434 972 4092 
Q 1497 4750 2381 4750 
Q 2619 4750 2861 4703 
Q 3103 4656 3366 4563 
z
" transform="scale(0.015625)"/>
       </defs>
       <use xlink:href="#DejaVuSans-36"/>
      </g>
     </g>
    </g>
    <g id="xtick_8">
     <g id="line2d_8">
      <g>
       <use xlink:href="#m0bb6edde51" x="839.313125" y="16.678125" style="stroke: #000000; stroke-width: 0.8"/>
      </g>
     </g>
     <g id="text_8">
      <!-- 7 -->
      <g transform="translate(836.131875 7.598437) scale(0.1 -0.1)">
       <defs>
        <path id="DejaVuSans-37" d="M 525 4666 
L 3525 4666 
L 3525 4397 
L 1831 0 
L 1172 0 
L 2766 4134 
L 525 4134 
L 525 4666 
z
" transform="scale(0.015625)"/>
       </defs>
       <use xlink:href="#DejaVuSans-37"/>
      </g>
     </g>
    </g>
   </g>
   <g id="matplotlib.axis_2">
    <g id="ytick_1">
     <g id="line2d_9">
      <defs>
       <path id="m1cba811457" d="M 0 0 
L -3.5 0 
" style="stroke: #000000; stroke-width: 0.8"/>
      </defs>
      <g>
       <use xlink:href="#m1cba811457" x="22.903125" y="16.678125" style="stroke: #000000; stroke-width: 0.8"/>
      </g>
     </g>
     <g id="text_9">
      <!-- 0.0 -->
      <g transform="translate(0 20.477344) scale(0.1 -0.1)">
       <defs>
        <path id="DejaVuSans-2e" d="M 684 794 
L 1344 794 
L 1344 0 
L 684 0 
L 684 794 
z
" transform="scale(0.015625)"/>
       </defs>
       <use xlink:href="#DejaVuSans-30"/>
       <use xlink:href="#DejaVuSans-2e" x="63.623047"/>
       <use xlink:href="#DejaVuSans-30" x="95.410156"/>
      </g>
     </g>
    </g>
    <g id="ytick_2">
     <g id="line2d_10">
      <g>
       <use xlink:href="#m1cba811457" x="22.903125" y="74.993125" style="stroke: #000000; stroke-width: 0.8"/>
      </g>
     </g>
     <g id="text_10">
      <!-- 0.5 -->
      <g transform="translate(0 78.792344) scale(0.1 -0.1)">
       <use xlink:href="#DejaVuSans-30"/>
       <use xlink:href="#DejaVuSans-2e" x="63.623047"/>
       <use xlink:href="#DejaVuSans-35" x="95.410156"/>
      </g>
     </g>
    </g>
    <g id="ytick_3">
     <g id="line2d_11">
      <g>
       <use xlink:href="#m1cba811457" x="22.903125" y="133.308125" style="stroke: #000000; stroke-width: 0.8"/>
      </g>
     </g>
     <g id="text_11">
      <!-- 1.0 -->
      <g transform="translate(0 137.107344) scale(0.1 -0.1)">
       <use xlink:href="#DejaVuSans-31"/>
       <use xlink:href="#DejaVuSans-2e" x="63.623047"/>
       <use xlink:href="#DejaVuSans-30" x="95.410156"/>
      </g>
     </g>
    </g>
    <g id="ytick_4">
     <g id="line2d_12">
      <g>
       <use xlink:href="#m1cba811457" x="22.903125" y="191.623125" style="stroke: #000000; stroke-width: 0.8"/>
      </g>
     </g>
     <g id="text_12">
      <!-- 1.5 -->
      <g transform="translate(0 195.422344) scale(0.1 -0.1)">
       <use xlink:href="#DejaVuSans-31"/>
       <use xlink:href="#DejaVuSans-2e" x="63.623047"/>
       <use xlink:href="#DejaVuSans-35" x="95.410156"/>
      </g>
     </g>
    </g>
    <g id="ytick_5">
     <g id="line2d_13">
      <g>
       <use xlink:href="#m1cba811457" x="22.903125" y="249.938125" style="stroke: #000000; stroke-width: 0.8"/>
      </g>
     </g>
     <g id="text_13">
      <!-- 2.0 -->
      <g transform="translate(0 253.737344) scale(0.1 -0.1)">
       <use xlink:href="#DejaVuSans-32"/>
       <use xlink:href="#DejaVuSans-2e" x="63.623047"/>
       <use xlink:href="#DejaVuSans-30" x="95.410156"/>
      </g>
     </g>
    </g>
    <g id="ytick_6">
     <g id="line2d_14">
      <g>
       <use xlink:href="#m1cba811457" x="22.903125" y="308.253125" style="stroke: #000000; stroke-width: 0.8"/>
      </g>
     </g>
     <g id="text_14">
      <!-- 2.5 -->
      <g transform="translate(0 312.052344) scale(0.1 -0.1)">
       <use xlink:href="#DejaVuSans-32"/>
       <use xlink:href="#DejaVuSans-2e" x="63.623047"/>
       <use xlink:href="#DejaVuSans-35" x="95.410156"/>
      </g>
     </g>
    </g>
    <g id="ytick_7">
     <g id="line2d_15">
      <g>
       <use xlink:href="#m1cba811457" x="22.903125" y="366.568125" style="stroke: #000000; stroke-width: 0.8"/>
      </g>
     </g>
     <g id="text_15">
      <!-- 3.0 -->
      <g transform="translate(0 370.367344) scale(0.1 -0.1)">
       <use xlink:href="#DejaVuSans-33"/>
       <use xlink:href="#DejaVuSans-2e" x="63.623047"/>
       <use xlink:href="#DejaVuSans-30" x="95.410156"/>
      </g>
     </g>
    </g>
    <g id="ytick_8">
     <g id="line2d_16">
      <g>
       <use xlink:href="#m1cba811457" x="22.903125" y="424.883125" style="stroke: #000000; stroke-width: 0.8"/>
      </g>
     </g>
     <g id="text_16">
      <!-- 3.5 -->
      <g transform="translate(0 428.682344) scale(0.1 -0.1)">
       <use xlink:href="#DejaVuSans-33"/>
       <use xlink:href="#DejaVuSans-2e" x="63.623047"/>
       <use xlink:href="#DejaVuSans-35" x="95.410156"/>
      </g>
     </g>
    </g>
    <g id="ytick_9">
     <g id="line2d_17">
      <g>
       <use xlink:href="#m1cba811457" x="22.903125" y="483.198125" style="stroke: #000000; stroke-width: 0.8"/>
      </g>
     </g>
     <g id="text_17">
      <!-- 4.0 -->
      <g transform="translate(0 486.997344) scale(0.1 -0.1)">
       <use xlink:href="#DejaVuSans-34"/>
       <use xlink:href="#DejaVuSans-2e" x="63.623047"/>
       <use xlink:href="#DejaVuSans-30" x="95.410156"/>
      </g>
     </g>
    </g>
   </g>
   <g id="LineCollection_1">
    <path d="M 810.155625 220.780625 
L 810.155625 220.780625 
L 810.155625 220.780625 
L 751.840625 220.780625 
L 693.525625 220.780625 
L 693.525625 220.780625 
L 693.525625 220.780625 
L 693.525625 220.780625 
L 635.210625 220.780625 
L 576.895625 220.780625 
L 576.895625 220.780625 
L 576.895625 220.780625 
L 576.895625 162.465625 
L 576.895625 162.465625 
L 576.895625 104.150625 
L 576.895625 104.150625 
L 576.895625 104.150625 
L 576.895625 104.150625 
L 576.895625 104.150625 
L 576.895625 104.150625 
L 576.895625 104.150625 
L 635.210625 104.150625 
L 635.210625 104.150625 
L 635.210625 162.465625 
L 635.210625 162.465625 
L 635.210625 162.465625 
L 635.210625 162.465625 
L 635.210625 162.465625 
L 635.210625 162.465625 
L 635.210625 162.465625 
L 576.895625 162.465625 
L 576.895625 162.465625 
L 576.895625 162.465625 
L 576.895625 162.465625 
" clip-path="url(#p4c75763e38)" style="fill: none; stroke: #ff0029; stroke-width: 1.5"/>
    <path d="M 401.950625 279.095625 
L 401.950625 279.095625 
L 460.265625 279.095625 
L 460.265625 279.095625 
L 460.265625 279.095625 
L 460.265625 279.095625 
L 460.265625 279.095625 
L 460.265625 220.780625 
L 460.265625 162.465625 
L 460.265625 104.150625 
L 460.265625 104.150625 
L 518.580625 104.150625 
L 518.580625 104.150625 
L 518.580625 104.150625 
L 576.895625 104.150625 
L 635.210625 104.150625 
L 635.210625 104.150625 
L 635.210625 104.150625 
L 635.210625 104.150625 
L 635.210625 104.150625 
L 635.210625 104.150625 
L 635.210625 104.150625 
L 635.210625 104.150625 
L 635.210625 104.150625 
L 635.210625 104.150625 
L 635.210625 162.465625 
L 635.210625 162.465625 
L 635.210625 162.465625 
L 635.210625 162.465625 
L 635.210625 162.465625 
L 635.210625 162.465625 
L 635.210625 162.465625 
L 635.210625 162.465625 
L 635.210625 162.465625 
" clip-path="url(#p4c75763e38)" style="fill: none; stroke: #ff6e00; stroke-width: 1.5"/>
    <path d="M 810.155625 45.835625 
L 810.155625 45.835625 
L 810.155625 45.835625 
L 810.155625 45.835625 
L 751.840625 45.835625 
L 693.525625 45.835625 
L 635.210625 45.835625 
L 635.210625 45.835625 
L 635.210625 104.150625 
L 635.210625 104.150625 
L 635.210625 104.150625 
L 635.210625 104.150625 
L 635.210625 104.150625 
L 635.210625 104.150625 
L 635.210625 104.150625 
L 635.210625 104.150625 
L 635.210625 104.150625 
L 635.210625 104.150625 
L 635.210625 104.150625 
L 635.210625 104.150625 
L 635.210625 104.150625 
L 635.210625 104.150625 
L 635.210625 104.150625 
L 635.210625 104.150625 
L 635.210625 104.150625 
L 635.210625 104.150625 
L 635.210625 104.150625 
L 635.210625 104.150625 
L 635.210625 104.150625 
L 635.210625 104.150625 
L 635.210625 104.150625 
L 635.210625 104.150625 
L 635.210625 104.150625 
L 635.210625 104.150625 
" clip-path="url(#p4c75763e38)" style="fill: none; stroke: #f9ff00; stroke-width: 1.5"/>
    <path d="M 401.950625 162.465625 
L 401.950625 162.465625 
L 401.950625 162.465625 
L 401.950625 162.465625 
L 460.265625 162.465625 
L 518.580625 162.465625 
L 576.895625 162.465625 
L 576.895625 162.465625 
L 576.895625 162.465625 
L 576.895625 162.465625 
L 576.895625 162.465625 
L 576.895625 104.150625 
L 576.895625 104.150625 
L 576.895625 104.150625 
L 576.895625 104.150625 
L 576.895625 104.150625 
L 576.895625 104.150625 
L 576.895625 104.150625 
L 576.895625 104.150625 
L 576.895625 104.150625 
L 576.895625 104.150625 
L 576.895625 104.150625 
L 576.895625 104.150625 
L 576.895625 104.150625 
L 576.895625 104.150625 
L 576.895625 104.150625 
L 576.895625 104.150625 
L 576.895625 104.150625 
L 576.895625 104.150625 
L 576.895625 104.150625 
L 576.895625 104.150625 
L 576.895625 104.150625 
L 576.895625 104.150625 
L 576.895625 104.150625 
" clip-path="url(#p4c75763e38)" style="fill: none; stroke: #5cff00; stroke-width: 1.5"/>
    <path d="M 810.155625 104.150625 
L 810.155625 104.150625 
L 810.155625 104.150625 
L 810.155625 162.465625 
L 810.155625 162.465625 
L 751.840625 162.465625 
L 693.525625 162.465625 
L 635.210625 162.465625 
L 576.895625 162.465625 
L 576.895625 162.465625 
L 576.895625 162.465625 
L 576.895625 162.465625 
L 576.895625 162.465625 
L 576.895625 162.465625 
L 576.895625 162.465625 
L 576.895625 162.465625 
L 576.895625 162.465625 
L 576.895625 162.465625 
L 576.895625 162.465625 
L 576.895625 162.465625 
L 576.895625 162.465625 
L 576.895625 104.150625 
L 576.895625 104.150625 
L 576.895625 104.150625 
L 576.895625 104.150625 
L 576.895625 104.150625 
L 576.895625 104.150625 
L 635.210625 104.150625 
L 635.210625 104.150625 
L 635.210625 104.150625 
L 635.210625 104.150625 
L 635.210625 104.150625 
L 635.210625 104.150625 
L 635.210625 104.150625 
" clip-path="url(#p4c75763e38)" style="fill: none; stroke: #00ff3b; stroke-width: 1.5"/>
    <path d="M 168.690625 395.725625 
L 168.690625 395.725625 
L 168.690625 337.410625 
L 168.690625 337.410625 
L 168.690625 337.410625 
L 168.690625 337.410625 
L 168.690625 279.095625 
L 168.690625 279.095625 
L 168.690625 279.095625 
L 168.690625 220.780625 
L 168.690625 162.465625 
L 168.690625 104.150625 
L 168.690625 45.835625 
L 168.690625 45.835625 
L 227.005625 45.835625 
L 285.320625 45.835625 
L 343.635625 45.835625 
L 401.950625 45.835625 
L 460.265625 45.835625 
L 460.265625 45.835625 
L 518.580625 45.835625 
L 518.580625 45.835625 
L 518.580625 45.835625 
L 518.580625 45.835625 
L 518.580625 45.835625 
L 518.580625 45.835625 
L 576.895625 45.835625 
L 635.210625 45.835625 
L 635.210625 45.835625 
L 635.210625 104.150625 
L 635.210625 104.150625 
L 635.210625 104.150625 
L 635.210625 104.150625 
L 635.210625 104.150625 
" clip-path="url(#p4c75763e38)" style="fill: none; stroke: #00ffd7; stroke-width: 1.5"/>
    <path d="M 693.525625 395.725625 
L 693.525625 395.725625 
L 693.525625 337.410625 
L 693.525625 279.095625 
L 693.525625 220.780625 
L 693.525625 220.780625 
L 693.525625 220.780625 
L 693.525625 220.780625 
L 693.525625 220.780625 
L 693.525625 220.780625 
L 693.525625 220.780625 
L 635.210625 220.780625 
L 635.210625 220.780625 
L 576.895625 220.780625 
L 576.895625 220.780625 
L 576.895625 162.465625 
L 576.895625 104.150625 
L 576.895625 104.150625 
L 576.895625 104.150625 
L 576.895625 104.150625 
L 576.895625 104.150625 
L 576.895625 104.150625 
L 576.895625 104.150625 
L 576.895625 104.150625 
L 576.895625 104.150625 
L 576.895625 104.150625 
L 576.895625 104.150625 
L 576.895625 104.150625 
L 576.895625 104.150625 
L 576.895625 104.150625 
L 576.895625 104.150625 
L 576.895625 104.150625 
L 576.895625 104.150625 
L 576.895625 104.150625 
" clip-path="url(#p4c75763e38)" style="fill: none; stroke: #008fff; stroke-width: 1.5"/>
    <path d="M 401.950625 337.410625 
L 401.950625 337.410625 
L 401.950625 337.410625 
L 401.950625 337.410625 
L 460.265625 337.410625 
L 518.580625 337.410625 
L 518.580625 337.410625 
L 518.580625 279.095625 
L 518.580625 220.780625 
L 518.580625 220.780625 
L 518.580625 220.780625 
L 576.895625 220.780625 
L 576.895625 220.780625 
L 576.895625 220.780625 
L 576.895625 162.465625 
L 576.895625 104.150625 
L 576.895625 104.150625 
L 576.895625 104.150625 
L 576.895625 104.150625 
L 576.895625 104.150625 
L 576.895625 104.150625 
L 576.895625 104.150625 
L 576.895625 104.150625 
L 576.895625 104.150625 
L 576.895625 104.150625 
L 576.895625 104.150625 
L 576.895625 104.150625 
L 576.895625 104.150625 
L 576.895625 104.150625 
L 576.895625 104.150625 
L 576.895625 104.150625 
L 635.210625 104.150625 
L 635.210625 104.150625 
L 635.210625 104.150625 
" clip-path="url(#p4c75763e38)" style="fill: none; stroke: #0e00ff; stroke-width: 1.5"/>
    <path d="M 693.525625 104.150625 
L 693.525625 104.150625 
L 693.525625 104.150625 
L 693.525625 162.465625 
L 693.525625 162.465625 
L 635.210625 162.465625 
L 635.210625 162.465625 
L 635.210625 162.465625 
L 635.210625 162.465625 
L 635.210625 162.465625 
L 635.210625 162.465625 
L 635.210625 162.465625 
L 635.210625 162.465625 
L 635.210625 162.465625 
L 635.210625 162.465625 
L 635.210625 162.465625 
L 635.210625 162.465625 
L 635.210625 162.465625 
L 576.895625 162.465625 
L 576.895625 162.465625 
L 576.895625 162.465625 
L 576.895625 104.150625 
L 576.895625 104.150625 
L 576.895625 104.150625 
L 576.895625 104.150625 
L 576.895625 104.150625 
L 576.895625 104.150625 
L 576.895625 104.150625 
L 576.895625 104.150625 
L 576.895625 104.150625 
L 576.895625 104.150625 
L 576.895625 104.150625 
L 576.895625 104.150625 
L 576.895625 104.150625 
" clip-path="url(#p4c75763e38)" style="fill: none; stroke: #a700ff; stroke-width: 1.5"/>
    <path d="M 460.265625 162.465625 
L 460.265625 162.465625 
L 460.265625 162.465625 
L 460.265625 162.465625 
L 460.265625 162.465625 
L 518.580625 162.465625 
L 576.895625 162.465625 
L 635.210625 162.465625 
L 635.210625 162.465625 
L 635.210625 162.465625 
L 635.210625 162.465625 
L 635.210625 162.465625 
L 635.210625 162.465625 
L 635.210625 162.465625 
L 635.210625 162.465625 
L 635.210625 162.465625 
L 635.210625 162.465625 
L 635.210625 162.465625 
L 635.210625 162.465625 
L 635.210625 162.465625 
L 635.210625 162.465625 
L 635.210625 162.465625 
L 635.210625 162.465625 
L 635.210625 162.465625 
L 635.210625 162.465625 
L 635.210625 162.465625 
L 635.210625 162.465625 
L 635.210625 162.465625 
L 635.210625 162.465625 
L 635.210625 162.465625 
L 635.210625 162.465625 
L 635.210625 162.465625 
L 635.210625 162.465625 
L 635.210625 162.465625 
" clip-path="url(#p4c75763e38)" style="fill: none; stroke: #ff00bf; stroke-width: 1.5"/>
   </g>
   <g id="patch_14">
    <path d="M 22.903125 483.198125 
L 22.903125 16.678125 
" style="fill: none; stroke: #000000; stroke-width: 0.8; stroke-linejoin: miter; stroke-linecap: square"/>
   </g>
   <g id="patch_15">
    <path d="M 839.313125 483.198125 
L 839.313125 16.678125 
" style="fill: none; stroke: #000000; stroke-width: 0.8; stroke-linejoin: miter; stroke-linecap: square"/>
   </g>
   <g id="patch_16">
    <path d="M 22.903125 483.198125 
L 839.313125 483.198125 
" style="fill: none; stroke: #000000; stroke-width: 0.8; stroke-linejoin: miter; stroke-linecap: square"/>
   </g>
   <g id="patch_17">
    <path d="M 22.903125 16.678125 
L 839.313125 16.678125 
" style="fill: none; stroke: #000000; stroke-width: 0.8; stroke-linejoin: miter; stroke-linecap: square"/>
   </g>
   <g id="text_18">
    <!-- speech_0 -->
    <g transform="translate(610.053125 129.308125) scale(0.1 -0.1)">
     <defs>
      <path id="DejaVuSans-73" d="M 2834 3397 
L 2834 2853 
Q 2591 2978 2328 3040 
Q 2066 3103 1784 3103 
Q 1356 3103 1142 2972 
Q 928 2841 928 2578 
Q 928 2378 1081 2264 
Q 1234 2150 1697 2047 
L 1894 2003 
Q 2506 1872 2764 1633 
Q 3022 1394 3022 966 
Q 3022 478 2636 193 
Q 2250 -91 1575 -91 
Q 1294 -91 989 -36 
Q 684 19 347 128 
L 347 722 
Q 666 556 975 473 
Q 1284 391 1588 391 
Q 1994 391 2212 530 
Q 2431 669 2431 922 
Q 2431 1156 2273 1281 
Q 2116 1406 1581 1522 
L 1381 1569 
Q 847 1681 609 1914 
Q 372 2147 372 2553 
Q 372 3047 722 3315 
Q 1072 3584 1716 3584 
Q 2034 3584 2315 3537 
Q 2597 3491 2834 3397 
z
" transform="scale(0.015625)"/>
      <path id="DejaVuSans-70" d="M 1159 525 
L 1159 -1331 
L 581 -1331 
L 581 3500 
L 1159 3500 
L 1159 2969 
Q 1341 3281 1617 3432 
Q 1894 3584 2278 3584 
Q 2916 3584 3314 3078 
Q 3713 2572 3713 1747 
Q 3713 922 3314 415 
Q 2916 -91 2278 -91 
Q 1894 -91 1617 61 
Q 1341 213 1159 525 
z
M 3116 1747 
Q 3116 2381 2855 2742 
Q 2594 3103 2138 3103 
Q 1681 3103 1420 2742 
Q 1159 2381 1159 1747 
Q 1159 1113 1420 752 
Q 1681 391 2138 391 
Q 2594 391 2855 752 
Q 3116 1113 3116 1747 
z
" transform="scale(0.015625)"/>
      <path id="DejaVuSans-65" d="M 3597 1894 
L 3597 1613 
L 953 1613 
Q 991 1019 1311 708 
Q 1631 397 2203 397 
Q 2534 397 2845 478 
Q 3156 559 3463 722 
L 3463 178 
Q 3153 47 2828 -22 
Q 2503 -91 2169 -91 
Q 1331 -91 842 396 
Q 353 884 353 1716 
Q 353 2575 817 3079 
Q 1281 3584 2069 3584 
Q 2775 3584 3186 3129 
Q 3597 2675 3597 1894 
z
M 3022 2063 
Q 3016 2534 2758 2815 
Q 2500 3097 2075 3097 
Q 1594 3097 1305 2825 
Q 1016 2553 972 2059 
L 3022 2063 
z
" transform="scale(0.015625)"/>
      <path id="DejaVuSans-63" d="M 3122 3366 
L 3122 2828 
Q 2878 2963 2633 3030 
Q 2388 3097 2138 3097 
Q 1578 3097 1268 2742 
Q 959 2388 959 1747 
Q 959 1106 1268 751 
Q 1578 397 2138 397 
Q 2388 397 2633 464 
Q 2878 531 3122 666 
L 3122 134 
Q 2881 22 2623 -34 
Q 2366 -91 2075 -91 
Q 1284 -91 818 406 
Q 353 903 353 1747 
Q 353 2603 823 3093 
Q 1294 3584 2113 3584 
Q 2378 3584 2631 3529 
Q 2884 3475 3122 3366 
z
" transform="scale(0.015625)"/>
      <path id="DejaVuSans-68" d="M 3513 2113 
L 3513 0 
L 2938 0 
L 2938 2094 
Q 2938 2591 2744 2837 
Q 2550 3084 2163 3084 
Q 1697 3084 1428 2787 
Q 1159 2491 1159 1978 
L 1159 0 
L 581 0 
L 581 4863 
L 1159 4863 
L 1159 2956 
Q 1366 3272 1645 3428 
Q 1925 3584 2291 3584 
Q 2894 3584 3203 3211 
Q 3513 2838 3513 2113 
z
" transform="scale(0.015625)"/>
      <path id="DejaVuSans-5f" d="M 3263 -1063 
L 3263 -1509 
L -63 -1509 
L -63 -1063 
L 3263 -1063 
z
" transform="scale(0.015625)"/>
     </defs>
     <use xlink:href="#DejaVuSans-73"/>
     <use xlink:href="#DejaVuSans-70" x="52.099609"/>
     <use xlink:href="#DejaVuSans-65" x="115.576172"/>
     <use xlink:href="#DejaVuSans-65" x="177.099609"/>
     <use xlink:href="#DejaVuSans-63" x="238.623047"/>
     <use xlink:href="#DejaVuSans-68" x="293.603516"/>
     <use xlink:href="#DejaVuSans-5f" x="356.982422"/>
     <use xlink:href="#DejaVuSans-30" x="406.982422"/>
    </g>
   </g>
   <g id="text_19">
    <!-- t = 32 -->
    <g transform="translate(52.060625 45.835625) scale(0.12 -0.12)">
     <defs>
      <path id="DejaVuSans-74" d="M 1172 4494 
L 1172 3500 
L 2356 3500 
L 2356 3053 
L 1172 3053 
L 1172 1153 
Q 1172 725 1289 603 
Q 1406 481 1766 481 
L 2356 481 
L 2356 0 
L 1766 0 
Q 1100 0 847 248 
Q 594 497 594 1153 
L 594 3053 
L 172 3053 
L 172 3500 
L 594 3500 
L 594 4494 
L 1172 4494 
z
" transform="scale(0.015625)"/>
      <path id="DejaVuSans-20" transform="scale(0.015625)"/>
      <path id="DejaVuSans-3d" d="M 678 2906 
L 4684 2906 
L 4684 2381 
L 678 2381 
L 678 2906 
z
M 678 1631 
L 4684 1631 
L 4684 1100 
L 678 1100 
L 678 1631 
z
" transform="scale(0.015625)"/>
     </defs>
     <use xlink:href="#DejaVuSans-74"/>
     <use xlink:href="#DejaVuSans-20" x="39.208984"/>
     <use xlink:href="#DejaVuSans-3d" x="70.996094"/>
     <use xlink:href="#DejaVuSans-20" x="154.785156"/>
     <use xlink:href="#DejaVuSans-33" x="186.572266"/>
     <use xlink:href="#DejaVuSans-32" x="250.195312"/>
    </g>
   </g>
  </g>
 </g>
 <defs>
  <clipPath id="p4c75763e38">
   <rect x="22.903125" y="16.678125" width="816.41" height="466.52"/>
  </clipPath>
 </defs>
</svg>
